{
copyright = "Copyright (c) 2015, Cadson Demak (info@cadsondemak.com)";
customParameters = (
{
name = vendorID;
value = CDK;
},
{
name = description;
value = "Copyright (c) 2015, Cadson Demak (info@cadsondemak.com)";
},
{
name = license;

glyphs = (
{
glyphname = A;
lastChange = "2015-07-19 18:01:16 +0000";
layers = (
{
layerId = "E35F1BB4-987F-4EDF-94B4-0283FA17DEFF";
name = Regular;
paths = (
{
closed = 1;
nodes = (
"141 64 OFFCURVE",
"159 133 OFFCURVE",
"178 200 CURVE",
"428 200 LINE",
"447 133 OFFCURVE",
"465 64 OFFCURVE",
"481 0 CURVE",
"572 7 LINE",
"519 205 OFFCURVE",
"445 441 OFFCURVE",
"377 616 CURVE",
"230 616 LINE",
"162 441 OFFCURVE",
"88 205 OFFCURVE",
"35 7 CURVE",
"126 0 LINE"
);
},
{
closed = 1;
nodes = (
"230 376 OFFCURVE",
"260 470 OFFCURVE",
"283 535 CURVE",
"324 535 LINE",
"347 470 OFFCURVE",
"376 376 OFFCURVE",
"406 275 CURVE",
"200 275 LINE"
);
}
);
width = 607;
}
);
leftKerningGroup = A;
rightKerningGroup = A;
unicode = 0041;
},
{
glyphname = Aacute;
lastChange = "2015-07-19 17:28:46 +0000";
layers = (
{
components = (
{
name = A;
}
);
layerId = "E35F1BB4-987F-4EDF-94B4-0283FA17DEFF";
name = Regular;
paths = (
{
closed = 1;
nodes = (
"458 830 LINE",
"352 841 LINE",
"269 696 LINE",
"333 686 LINE"
);
}
);
width = 607;
}
);
leftKerningGroup = A;
note = Aacute;
rightKerningGroup = A;
unicode = 00C1;
},
{
glyphname = Abreve;
lastChange = "2015-07-19 17:28:46 +0000";
layers = (
{
components = (
{
name = A;
}
);
layerId = "E35F1BB4-987F-4EDF-94B4-0283FA17DEFF";
name = Regular;
paths = (
{
closed = 1;
nodes = (
"388 686 OFFCURVE",
"430 730 OFFCURVE",
"438 799 CURVE",
"361 811 LINE",
"358 772 OFFCURVE",
"349 750 OFFCURVE",
"303 750 CURVE SMOOTH",
"257 750 OFFCURVE",
"248 772 OFFCURVE",
"245 811 CURVE",
"168 799 LINE",
"176 730 OFFCURVE",
"218 686 OFFCURVE",
"303 686 CURVE SMOOTH"
);
}
);
width = 607;
}
);
leftKerningGroup = A;
note = Abreve;
rightKerningGroup = A;
unicode = 0102;
},
{
glyphname = Abreveacute;
lastChange = "2015-07-19 17:28:46 +0000";
layers = (
{
layerId = "E35F1BB4-987F-4EDF-94B4-0283FA17DEFF";
name = Regular;
paths = (
{
closed = 1;
nodes = (
"141 64 OFFCURVE",
"159 133 OFFCURVE",
"178 200 CURVE",
"428 200 LINE",
"447 133 OFFCURVE",
"465 64 OFFCURVE",
"481 0 CURVE",
"572 7 LINE",
"519 205 OFFCURVE",
"445 441 OFFCURVE",
"377 616 CURVE",
"230 616 LINE",
"162 441 OFFCURVE",
"88 205 OFFCURVE",
"35 7 CURVE",
"126 0 LINE"
);
},
{
closed = 1;
nodes = (
"230 376 OFFCURVE",
"260 470 OFFCURVE",
"283 535 CURVE",
"324 535 LINE",
"347 470 OFFCURVE",
"376 376 OFFCURVE",
"406 275 CURVE",
"200 275 LINE"
);
},
{
closed = 1;
nodes = (
"387 686 OFFCURVE",
"429 730 OFFCURVE",
"437 799 CURVE",
"360 811 LINE",
"357 772 OFFCURVE",
"348 750 OFFCURVE",
"302 750 CURVE SMOOTH",
"256 750 OFFCURVE",
"247 772 OFFCURVE",
"244 811 CURVE",
"167 799 LINE",
"175 730 OFFCURVE",
"217 686 OFFCURVE",
"302 686 CURVE SMOOTH"
);
},
{
closed = 1;
nodes = (
"407 947 LINE",
"333 960 LINE",
"273 852 LINE",
"325 840 LINE"
);
}
);
width = 607;
}
);
leftKerningGroup = A;
note = Abreveacute;
rightKerningGroup = A;
unicode = 1EAE;
},
{
glyphname = Abrevedotbelow;
lastChange = "2015-07-19 17:28:46 +0000";
layers = (
{
layerId = "E35F1BB4-987F-4EDF-94B4-0283FA17DEFF";
name = Regular;
paths = (
{
closed = 1;
nodes = (
"141 64 OFFCURVE",
"159 133 OFFCURVE",
"178 200 CURVE",
"428 200 LINE",
"447 133 OFFCURVE",
"465 64 OFFCURVE",
"481 0 CURVE",
"572 7 LINE",
"519 205 OFFCURVE",
"445 441 OFFCURVE",
"377 616 CURVE",
"230 616 LINE",
"162 441 OFFCURVE",
"88 205 OFFCURVE",
"35 7 CURVE",
"126 0 LINE"
);
},
{
closed = 1;
nodes = (
"342 -179 OFFCURVE",
"364 -158 OFFCURVE",
"364 -123 CURVE SMOOTH",
"364 -86 OFFCURVE",
"342 -65 OFFCURVE",
"304 -65 CURVE SMOOTH",
"266 -65 OFFCURVE",
"244 -86 OFFCURVE",
"244 -123 CURVE SMOOTH",
"244 -158 OFFCURVE",
"266 -179 OFFCURVE",
"304 -179 CURVE SMOOTH"
);
},
{
closed = 1;
nodes = (
"230 376 OFFCURVE",
"260 470 OFFCURVE",
"283 535 CURVE",
"324 535 LINE",
"347 470 OFFCURVE",
"376 376 OFFCURVE",
"406 275 CURVE",
"200 275 LINE"
);
},
{
closed = 1;
nodes = (
"387 686 OFFCURVE",
"429 730 OFFCURVE",
"437 799 CURVE",
"360 811 LINE",
"357 772 OFFCURVE",
"348 750 OFFCURVE",
"302 750 CURVE SMOOTH",
"256 750 OFFCURVE",
"247 772 OFFCURVE",
"244 811 CURVE",
"167 799 LINE",
"175 730 OFFCURVE",
"217 686 OFFCURVE",
"302 686 CURVE SMOOTH"
);
}
);
width = 607;
}
);
leftKerningGroup = A;
note = Abrevedotbelow;
rightKerningGroup = A;
unicode = 1EB6;
},
{
glyphname = Abrevegrave;
lastChange = "2015-07-19 17:28:46 +0000";
layers = (
{
layerId = "E35F1BB4-987F-4EDF-94B4-0283FA17DEFF";
name = Regular;
paths = (
{
closed = 1;
nodes = (
"141 64 OFFCURVE",
"159 133 OFFCURVE",
"178 200 CURVE",
"428 200 LINE",
"447 133 OFFCURVE",
"465 64 OFFCURVE",
"481 0 CURVE",
"572 7 LINE",
"519 205 OFFCURVE",
"445 441 OFFCURVE",
"377 616 CURVE",
"230 616 LINE",
"162 441 OFFCURVE",
"88 205 OFFCURVE",
"35 7 CURVE",
"126 0 LINE"
);
},
{
closed = 1;
nodes = (
"230 376 OFFCURVE",
"260 470 OFFCURVE",
"283 535 CURVE",
"324 535 LINE",
"347 470 OFFCURVE",
"376 376 OFFCURVE",
"406 275 CURVE",
"200 275 LINE"
);
},
{
closed = 1;
nodes = (
"387 686 OFFCURVE",
"429 730 OFFCURVE",
"437 799 CURVE",
"360 811 LINE",
"357 772 OFFCURVE",
"348 750 OFFCURVE",
"302 750 CURVE SMOOTH",
"256 750 OFFCURVE",
"247 772 OFFCURVE",
"244 811 CURVE",
"167 799 LINE",
"175 730 OFFCURVE",
"217 686 OFFCURVE",
"302 686 CURVE SMOOTH"
);
},
{
closed = 1;
nodes = (
"334 852 LINE",
"274 960 LINE",
"200 947 LINE",
"282 840 LINE"
);
}
);
width = 607;
}
);
leftKerningGroup = A;
note = Abrevegrave;
rightKerningGroup = A;
unicode = 1EB0;
},
{
glyphname = Abrevehookabove;
lastChange = "2015-07-19 17:28:46 +0000";
layers = (
{
layerId = "E35F1BB4-987F-4EDF-94B4-0283FA17DEFF";
name = Regular;
paths = (
{
closed = 1;
nodes = (
"141 64 OFFCURVE",
"159 133 OFFCURVE",
"178 200 CURVE",
"428 200 LINE",
"447 133 OFFCURVE",
"465 64 OFFCURVE",
"481 0 CURVE",
"572 7 LINE",
"519 205 OFFCURVE",
"445 441 OFFCURVE",
"377 616 CURVE",
"230 616 LINE",
"162 441 OFFCURVE",
"88 205 OFFCURVE",
"35 7 CURVE",
"126 0 LINE"
);
},
{
closed = 1;
nodes = (
"230 376 OFFCURVE",
"260 470 OFFCURVE",
"283 535 CURVE",
"324 535 LINE",
"347 470 OFFCURVE",
"376 376 OFFCURVE",
"406 275 CURVE",
"200 275 LINE"
);
},
{
closed = 1;
nodes = (
"388 686 OFFCURVE",
"430 730 OFFCURVE",
"438 799 CURVE",
"361 811 LINE",
"358 772 OFFCURVE",
"349 750 OFFCURVE",
"303 750 CURVE SMOOTH",
"257 750 OFFCURVE",
"248 772 OFFCURVE",
"245 811 CURVE",
"168 799 LINE",
"176 730 OFFCURVE",
"218 686 OFFCURVE",
"303 686 CURVE SMOOTH"
);
},
{
closed = 1;
nodes = (
"322 829 LINE",
"322 861 LINE",
"363 861 OFFCURVE",
"385 879 OFFCURVE",
"385 916 CURVE SMOOTH",
"385 955 OFFCURVE",
"365 975 OFFCURVE",
"317 975 CURVE SMOOTH",
"297 975 OFFCURVE",
"276 971 OFFCURVE",
"256 963 CURVE",
"267 924 LINE",
"280 930 OFFCURVE",
"297 933 OFFCURVE",
"310 933 CURVE SMOOTH",
"328 933 OFFCURVE",
"335 927 OFFCURVE",
"335 915 CURVE SMOOTH",
"335 900 OFFCURVE",
"319 895 OFFCURVE",
"276 895 CURVE",
"276 865 LINE",
"285 829 LINE"
);
}
);
width = 607;
}
);
leftKerningGroup = A;
note = Abrevehookabove;
rightKerningGroup = A;
unicode = 1EB2;
},
{
glyphname = Abrevetilde;
lastChange = "2015-07-19 17:28:46 +0000";
layers = (
{
layerId = "E35F1BB4-987F-4EDF-94B4-0283FA17DEFF";
name = Regular;
paths = (
{
closed = 1;
nodes = (
"141 64 OFFCURVE",
"159 133 OFFCURVE",
"178 200 CURVE",
"428 200 LINE",
"447 133 OFFCURVE",
"465 64 OFFCURVE",
"481 0 CURVE",
"572 7 LINE",
"519 205 OFFCURVE",
"445 441 OFFCURVE",
"377 616 CURVE",
"230 616 LINE",
"162 441 OFFCURVE",
"88 205 OFFCURVE",
"35 7 CURVE",
"126 0 LINE"
);
},
{
closed = 1;
nodes = (
"230 376 OFFCURVE",
"260 470 OFFCURVE",
"283 535 CURVE",
"324 535 LINE",
"347 470 OFFCURVE",
"376 376 OFFCURVE",
"406 275 CURVE",
"200 275 LINE"
);
},
{
closed = 1;
nodes = (
"388 686 OFFCURVE",
"430 730 OFFCURVE",
"438 799 CURVE",
"361 811 LINE",
"358 772 OFFCURVE",
"349 750 OFFCURVE",
"303 750 CURVE SMOOTH",
"257 750 OFFCURVE",
"248 772 OFFCURVE",
"245 811 CURVE",
"168 799 LINE",
"176 730 OFFCURVE",
"218 686 OFFCURVE",
"303 686 CURVE SMOOTH"
);
},
{
closed = 1;
nodes = (
"231 875 OFFCURVE",
"241 890 OFFCURVE",
"263 890 CURVE SMOOTH",
"291 890 OFFCURVE",
"319 857 OFFCURVE",
"357 857 CURVE SMOOTH",
"402 857 OFFCURVE",
"424 882 OFFCURVE",
"427 935 CURVE",
"383 950 LINE",
"380 928 OFFCURVE",
"370 913 OFFCURVE",
"348 913 CURVE SMOOTH",
"325 913 OFFCURVE",
"288 946 OFFCURVE",
"254 946 CURVE SMOOTH",
"209 946 OFFCURVE",
"187 921 OFFCURVE",
"184 868 CURVE",
"228 854 LINE"
);
}
);
width = 607;
}
);
leftKerningGroup = A;
note = Abrevetilde;
rightKerningGroup = A;
unicode = 1EB4;
},
{
glyphname = Acaron;
lastChange = "2015-07-19 17:28:46 +0000";
layers = (
{
layerId = "E35F1BB4-987F-4EDF-94B4-0283FA17DEFF";
name = Regular;
paths = (
{
closed = 1;
nodes = (
"141 64 OFFCURVE",
"159 133 OFFCURVE",
"178 200 CURVE",
"428 200 LINE",
"447 133 OFFCURVE",
"465 64 OFFCURVE",
"481 0 CURVE",
"572 7 LINE",
"519 205 OFFCURVE",
"445 441 OFFCURVE",
"377 616 CURVE",
"230 616 LINE",
"162 441 OFFCURVE",
"88 205 OFFCURVE",
"35 7 CURVE",
"126 0 LINE"
);
},
{
closed = 1;
nodes = (
"230 376 OFFCURVE",
"260 470 OFFCURVE",
"283 535 CURVE",
"324 535 LINE",
"347 470 OFFCURVE",
"376 376 OFFCURVE",
"406 275 CURVE",
"200 275 LINE"
);
},
{
closed = 1;
nodes = (
"341 696 LINE",
"440 829 LINE",
"387 840 LINE",
"306 765 LINE",
"301 765 LINE",
"217 840 LINE",
"166 829 LINE",
"266 696 LINE"
);
}
);
width = 607;
}
);
leftKerningGroup = A;
note = Acaron;
rightKerningGroup = A;
unicode = 01CD;
},
{
glyphname = Acircumflex;
lastChange = "2015-07-19 17:28:46 +0000";
layers = (
{
components = (
{
name = A;
}
);
layerId = "E35F1BB4-987F-4EDF-94B4-0283FA17DEFF";
name = Regular;
paths = (
{
closed = 1;
nodes = (
"301 760 LINE",
"306 760 LINE",
"387 685 LINE",
"440 696 LINE",
"341 829 LINE",
"266 829 LINE",
"166 696 LINE",
"217 685 LINE"
);
}
);
width = 607;
}
);
leftKerningGroup = A;
note = Acircumflex;
rightKerningGroup = A;
unicode = 00C2;
},
{
glyphname = Acircumflexacute;
lastChange = "2015-07-19 17:28:46 +0000";
layers = (
{
layerId = "E35F1BB4-987F-4EDF-94B4-0283FA17DEFF";
name = Regular;
paths = (
{
closed = 1;
nodes = (
"141 64 OFFCURVE",
"159 133 OFFCURVE",
"178 200 CURVE",
"428 200 LINE",
"447 133 OFFCURVE",
"465 64 OFFCURVE",
"481 0 CURVE",
"572 7 LINE",
"519 205 OFFCURVE",
"445 441 OFFCURVE",
"377 616 CURVE",
"230 616 LINE",
"162 441 OFFCURVE",
"88 205 OFFCURVE",
"35 7 CURVE",
"126 0 LINE"
);
},
{
closed = 1;
nodes = (
"230 376 OFFCURVE",
"260 470 OFFCURVE",
"283 535 CURVE",
"324 535 LINE",
"347 470 OFFCURVE",
"376 376 OFFCURVE",
"406 275 CURVE",
"200 275 LINE"
);
},
{
closed = 1;
nodes = (
"300 760 LINE",
"305 760 LINE",
"386 685 LINE",
"439 696 LINE",
"340 829 LINE",
"265 829 LINE",
"165 696 LINE",
"216 685 LINE"
);
},
{
closed = 1;
nodes = (
"556 882 LINE",
"482 895 LINE",
"422 787 LINE",
"474 775 LINE"
);
}
);
width = 607;
}
);
leftKerningGroup = A;
note = Acircumflexacute;
rightKerningGroup = A;
unicode = 1EA4;
},
{
glyphname = Acircumflexdotbelow;
lastChange = "2015-07-19 17:28:46 +0000";
layers = (
{
layerId = "E35F1BB4-987F-4EDF-94B4-0283FA17DEFF";
name = Regular;
paths = (
{
closed = 1;
nodes = (
"141 64 OFFCURVE",
"159 133 OFFCURVE",
"178 200 CURVE",
"428 200 LINE",
"447 133 OFFCURVE",
"465 64 OFFCURVE",
"481 0 CURVE",
"572 7 LINE",
"519 205 OFFCURVE",
"445 441 OFFCURVE",
"377 616 CURVE",
"230 616 LINE",
"162 441 OFFCURVE",
"88 205 OFFCURVE",
"35 7 CURVE",
"126 0 LINE"
);
},
{
closed = 1;
nodes = (
"340 -179 OFFCURVE",
"362 -158 OFFCURVE",
"362 -123 CURVE SMOOTH",
"362 -86 OFFCURVE",
"340 -65 OFFCURVE",
"302 -65 CURVE SMOOTH",
"264 -65 OFFCURVE",
"242 -86 OFFCURVE",
"242 -123 CURVE SMOOTH",
"242 -158 OFFCURVE",
"264 -179 OFFCURVE",
"302 -179 CURVE SMOOTH"
);
},
{
closed = 1;
nodes = (
"230 376 OFFCURVE",
"260 470 OFFCURVE",
"283 535 CURVE",
"324 535 LINE",
"347 470 OFFCURVE",
"376 376 OFFCURVE",
"406 275 CURVE",
"200 275 LINE"
);
},
{
closed = 1;
nodes = (
"301 759 LINE",
"306 759 LINE",
"387 684 LINE",
"440 695 LINE",
"341 828 LINE",
"266 828 LINE",
"166 695 LINE",
"217 684 LINE"
);
}
);
width = 607;
}
);
leftKerningGroup = A;
note = Acircumflexdotbelow;
rightKerningGroup = A;
unicode = 1EAC;
},
{
glyphname = Acircumflexgrave;
lastChange = "2015-07-19 17:28:46 +0000";
layers = (
{
layerId = "E35F1BB4-987F-4EDF-94B4-0283FA17DEFF";
name = Regular;
paths = (
{
closed = 1;
nodes = (
"141 64 OFFCURVE",
"159 133 OFFCURVE",
"178 200 CURVE",
"428 200 LINE",
"447 133 OFFCURVE",
"465 64 OFFCURVE",
"481 0 CURVE",
"572 7 LINE",
"519 205 OFFCURVE",
"445 441 OFFCURVE",
"377 616 CURVE",
"230 616 LINE",
"162 441 OFFCURVE",
"88 205 OFFCURVE",
"35 7 CURVE",
"126 0 LINE"
);
},
{
closed = 1;
nodes = (
"230 376 OFFCURVE",
"260 470 OFFCURVE",
"283 535 CURVE",
"324 535 LINE",
"347 470 OFFCURVE",
"376 376 OFFCURVE",
"406 275 CURVE",
"200 275 LINE"
);
},
{
closed = 1;
nodes = (
"183 787 LINE",
"123 895 LINE",
"49 882 LINE",
"131 775 LINE"
);
},
{
closed = 1;
nodes = (
"300 760 LINE",
"305 760 LINE",
"389 685 LINE",
"440 696 LINE",
"340 829 LINE",
"265 829 LINE",
"166 696 LINE",
"219 685 LINE"
);
}
);
width = 607;
}
);
leftKerningGroup = A;
note = Acircumflexgrave;
rightKerningGroup = A;
unicode = 1EA6;
},
{
glyphname = Acircumflexhookabove;
lastChange = "2015-07-19 17:28:46 +0000";
layers = (
{
layerId = "E35F1BB4-987F-4EDF-94B4-0283FA17DEFF";
name = Regular;
paths = (
{
closed = 1;
nodes = (
"141 64 OFFCURVE",
"159 133 OFFCURVE",
"178 200 CURVE",
"428 200 LINE",
"447 133 OFFCURVE",
"465 64 OFFCURVE",
"481 0 CURVE",
"572 7 LINE",
"519 205 OFFCURVE",
"445 441 OFFCURVE",
"377 616 CURVE",
"230 616 LINE",
"162 441 OFFCURVE",
"88 205 OFFCURVE",
"35 7 CURVE",
"126 0 LINE"
);
},
{
closed = 1;
nodes = (
"230 376 OFFCURVE",
"260 470 OFFCURVE",
"283 535 CURVE",
"324 535 LINE",
"347 470 OFFCURVE",
"376 376 OFFCURVE",
"406 275 CURVE",
"200 275 LINE"
);
},
{
closed = 1;
nodes = (
"301 760 LINE",
"306 760 LINE",
"387 685 LINE",
"440 696 LINE",
"341 829 LINE",
"266 829 LINE",
"166 696 LINE",
"217 685 LINE"
);
},
{
closed = 1;
nodes = (
"464 796 LINE",
"464 828 LINE",
"505 828 OFFCURVE",
"527 846 OFFCURVE",
"527 883 CURVE SMOOTH",
"527 922 OFFCURVE",
"507 942 OFFCURVE",
"459 942 CURVE SMOOTH",
"439 942 OFFCURVE",
"418 938 OFFCURVE",
"398 930 CURVE",
"409 891 LINE",
"422 897 OFFCURVE",
"439 900 OFFCURVE",
"452 900 CURVE SMOOTH",
"470 900 OFFCURVE",
"477 894 OFFCURVE",
"477 882 CURVE SMOOTH",
"477 867 OFFCURVE",
"461 862 OFFCURVE",
"418 862 CURVE",
"418 832 LINE",
"427 796 LINE"
);
}
);
width = 607;
}
);
leftKerningGroup = A;
note = Acircumflexhookabove;
rightKerningGroup = A;
unicode = 1EA8;
},
{
glyphname = Acircumflextilde;
lastChange = "2015-07-19 17:28:46 +0000";
layers = (
{
layerId = "E35F1BB4-987F-4EDF-94B4-0283FA17DEFF";
name = Regular;
paths = (
{
closed = 1;
nodes = (
"141 64 OFFCURVE",
"159 133 OFFCURVE",
"178 200 CURVE",
"428 200 LINE",
"447 133 OFFCURVE",
"465 64 OFFCURVE",
"481 0 CURVE",
"572 7 LINE",
"519 205 OFFCURVE",
"445 441 OFFCURVE",
"377 616 CURVE",
"230 616 LINE",
"162 441 OFFCURVE",
"88 205 OFFCURVE",
"35 7 CURVE",
"126 0 LINE"
);
},
{
closed = 1;
nodes = (
"230 376 OFFCURVE",
"260 470 OFFCURVE",
"283 535 CURVE",
"324 535 LINE",
"347 470 OFFCURVE",
"376 376 OFFCURVE",
"406 275 CURVE",
"200 275 LINE"
);
},
{
closed = 1;
nodes = (
"301 759 LINE",
"306 759 LINE",
"387 684 LINE",
"440 695 LINE",
"341 828 LINE",
"266 828 LINE",
"166 695 LINE",
"217 684 LINE"
);
},
{
closed = 1;
nodes = (
"228 892 OFFCURVE",
"238 907 OFFCURVE",
"260 907 CURVE SMOOTH",
"288 907 OFFCURVE",
"316 874 OFFCURVE",
"354 874 CURVE SMOOTH",
"399 874 OFFCURVE",
"421 899 OFFCURVE",
"424 952 CURVE",
"380 967 LINE",
"377 945 OFFCURVE",
"367 930 OFFCURVE",
"345 930 CURVE SMOOTH",
"322 930 OFFCURVE",
"285 963 OFFCURVE",
"251 963 CURVE SMOOTH",
"206 963 OFFCURVE",
"184 938 OFFCURVE",
"181 885 CURVE",
"225 871 LINE"
);
}
);
width = 607;
}
);
leftKerningGroup = A;
note = Acircumflextilde;
rightKerningGroup = A;
unicode = 1EAA;
},
{
glyphname = Adieresis;
lastChange = "2015-07-19 17:28:46 +0000";
layers = (
{
components = (
{
name = A;
}
);
layerId = "E35F1BB4-987F-4EDF-94B4-0283FA17DEFF";
name = Regular;
paths = (
{
closed = 1;
nodes = (
"411 691 OFFCURVE",
"428 707 OFFCURVE",
"428 734 CURVE SMOOTH",
"428 762 OFFCURVE",
"411 778 OFFCURVE",
"382 778 CURVE SMOOTH",
"353 778 OFFCURVE",
"335 762 OFFCURVE",
"335 734 CURVE SMOOTH",
"335 707 OFFCURVE",
"353 691 OFFCURVE",
"382 691 CURVE SMOOTH"
);
},
{
closed = 1;
nodes = (
"253 691 OFFCURVE",
"270 707 OFFCURVE",
"270 734 CURVE SMOOTH",
"270 762 OFFCURVE",
"253 778 OFFCURVE",
"224 778 CURVE SMOOTH",
"196 778 OFFCURVE",
"178 762 OFFCURVE",
"178 734 CURVE SMOOTH",
"178 707 OFFCURVE",
"196 691 OFFCURVE",
"224 691 CURVE SMOOTH"
);
}
);
width = 607;
}
);
leftKerningGroup = A;
note = Adieresis;
rightKerningGroup = A;
unicode = 00C4;
},
{
glyphname = Adotbelow;
lastChange = "2015-07-19 17:28:46 +0000";
layers = (
{
layerId = "E35F1BB4-987F-4EDF-94B4-0283FA17DEFF";
name = Regular;
paths = (
{
closed = 1;
nodes = (
"141 64 OFFCURVE",
"159 133 OFFCURVE",
"178 200 CURVE",
"428 200 LINE",
"447 133 OFFCURVE",
"465 64 OFFCURVE",
"481 0 CURVE",
"572 7 LINE",
"519 205 OFFCURVE",
"445 441 OFFCURVE",
"377 616 CURVE",
"230 616 LINE",
"162 441 OFFCURVE",
"88 205 OFFCURVE",
"35 7 CURVE",
"126 0 LINE"
);
},
{
closed = 1;
nodes = (
"340 -179 OFFCURVE",
"362 -158 OFFCURVE",
"362 -123 CURVE SMOOTH",
"362 -86 OFFCURVE",
"340 -65 OFFCURVE",
"302 -65 CURVE SMOOTH",
"264 -65 OFFCURVE",
"242 -86 OFFCURVE",
"242 -123 CURVE SMOOTH",
"242 -158 OFFCURVE",
"264 -179 OFFCURVE",
"302 -179 CURVE SMOOTH"
);
},
{
closed = 1;
nodes = (
"230 376 OFFCURVE",
"260 470 OFFCURVE",
"283 535 CURVE",
"324 535 LINE",
"347 470 OFFCURVE",
"376 376 OFFCURVE",
"406 275 CURVE",
"200 275 LINE"
);
}
);
width = 607;
}
);
leftKerningGroup = A;
note = Adotbelow;
rightKerningGroup = A;
unicode = 1EA0;
},
{
glyphname = Agrave;
lastChange = "2015-07-19 17:28:46 +0000";
layers = (
{
components = (
{
name = A;
}
);
layerId = "E35F1BB4-987F-4EDF-94B4-0283FA17DEFF";
name = Regular;
paths = (
{
closed = 1;
nodes = (
"342 695 LINE",
"259 840 LINE",
"153 829 LINE",
"278 685 LINE"
);
}
);
width = 607;
}
);
leftKerningGroup = A;
note = Agrave;
rightKerningGroup = A;
unicode = 00C0;
},
{
glyphname = Ahookabove;
lastChange = "2015-07-19 17:28:46 +0000";
layers = (
{
layerId = "E35F1BB4-987F-4EDF-94B4-0283FA17DEFF";
name = Regular;
paths = (
{
closed = 1;
nodes = (
"141 64 OFFCURVE",
"159 133 OFFCURVE",
"178 200 CURVE",
"428 200 LINE",
"447 133 OFFCURVE",
"465 64 OFFCURVE",
"481 0 CURVE",
"572 7 LINE",
"519 205 OFFCURVE",
"445 441 OFFCURVE",
"377 616 CURVE",
"230 616 LINE",
"162 441 OFFCURVE",
"88 205 OFFCURVE",
"35 7 CURVE",
"126 0 LINE"
);
},
{
closed = 1;
nodes = (
"230 376 OFFCURVE",
"260 470 OFFCURVE",
"283 535 CURVE",
"324 535 LINE",
"347 470 OFFCURVE",
"376 376 OFFCURVE",
"406 275 CURVE",
"200 275 LINE"
);
},
{
closed = 1;
nodes = (
"327 697 LINE",
"327 738 LINE",
"384 738 OFFCURVE",
"421 759 OFFCURVE",
"421 812 CURVE SMOOTH",
"421 858 OFFCURVE",
"393 891 OFFCURVE",
"327 891 CURVE SMOOTH",
"299 891 OFFCURVE",
"269 886 OFFCURVE",
"241 873 CURVE",
"257 828 LINE",
"275 835 OFFCURVE",
"298 839 OFFCURVE",
"316 839 CURVE SMOOTH",
"346 839 OFFCURVE",
"359 833 OFFCURVE",
"359 810 CURVE SMOOTH",
"359 781 OFFCURVE",
"331 781 OFFCURVE",
"269 781 CURVE",
"269 746 LINE",
"282 697 LINE"
);
}
);
width = 607;
}
);
leftKerningGroup = A;
note = Ahookabove;
rightKerningGroup = A;
unicode = 1EA2;
},
{
glyphname = Amacron;
lastChange = "2015-07-19 17:28:46 +0000";
layers = (
{
components = (
{
name = A;
}
);
layerId = "E35F1BB4-987F-4EDF-94B4-0283FA17DEFF";
name = Regular;
paths = (
{
closed = 1;
nodes = (
"456 696 LINE",
"456 766 LINE",
"150 766 LINE",
"150 696 LINE"
);
}
);
width = 607;
}
);
leftKerningGroup = A;
note = Amacron;
rightKerningGroup = A;
unicode = 0100;
},
{
glyphname = Aogonek;
lastChange = "2015-07-19 17:28:46 +0000";
layers = (
{
layerId = "E35F1BB4-987F-4EDF-94B4-0283FA17DEFF";
name = Regular;
paths = (
{
closed = 1;
nodes = (
"535 -161 OFFCURVE",
"555 -157 OFFCURVE",
"572 -150 CURVE",
"558 -96 LINE",
"544 -100 OFFCURVE",
"531 -101 OFFCURVE",
"517 -101 CURVE SMOOTH",
"503 -101 OFFCURVE",
"489 -100 OFFCURVE",
"479 -97 CURVE",
"477 -91 OFFCURVE",
"476 -83 OFFCURVE",
"476 -75 CURVE SMOOTH",
"476 -43 OFFCURVE",
"490 -22 OFFCURVE",
"537 4 CURVE",
"572 7 LINE",
"519 205 OFFCURVE",
"445 441 OFFCURVE",
"377 616 CURVE",
"230 616 LINE",
"162 441 OFFCURVE",
"88 205 OFFCURVE",
"35 7 CURVE",
"126 0 LINE",
"141 64 OFFCURVE",
"159 133 OFFCURVE",
"178 200 CURVE",
"428 200 LINE",
"444 137 OFFCURVE",
"461 73 OFFCURVE",
"478 12 CURVE",
"435 -8 OFFCURVE",
"403 -33 OFFCURVE",
"403 -81 CURVE SMOOTH",
"403 -134 OFFCURVE",
"445 -161 OFFCURVE",
"507 -161 CURVE SMOOTH"
);
},
{
closed = 1;
nodes = (
"230 376 OFFCURVE",
"260 470 OFFCURVE",
"283 535 CURVE",
"324 535 LINE",
"347 470 OFFCURVE",
"376 376 OFFCURVE",
"406 275 CURVE",
"200 275 LINE"
);
}
);
width = 607;
}
);
leftKerningGroup = A;
note = Aogonek;
rightKerningGroup = A;
unicode = 0104;
},
{
glyphname = Aring;
lastChange = "2015-07-19 17:28:46 +0000";
layers = (
{
components = (
{
name = A;
}
);
layerId = "E35F1BB4-987F-4EDF-94B4-0283FA17DEFF";
name = Regular;
paths = (
{
closed = 1;
nodes = (
"372 689 OFFCURVE",
"418 729 OFFCURVE",
"418 780 CURVE SMOOTH",
"418 840 OFFCURVE",
"376 877 OFFCURVE",
"309 877 CURVE SMOOTH",
"229 877 OFFCURVE",
"188 832 OFFCURVE",
"188 781 CURVE SMOOTH",
"188 721 OFFCURVE",
"230 689 OFFCURVE",
"297 689 CURVE SMOOTH"
);
},
{
closed = 1;
nodes = (
"265 738 OFFCURVE",
"245 756 OFFCURVE",
"245 782 CURVE SMOOTH",
"245 795 OFFCURVE",
"246 809 OFFCURVE",
"250 823 CURVE",
"265 827 OFFCURVE",
"284 828 OFFCURVE",
"308 828 CURVE SMOOTH",
"341 828 OFFCURVE",
"361 805 OFFCURVE",
"361 779 CURVE SMOOTH",
"361 766 OFFCURVE",
"359 754 OFFCURVE",
"356 743 CURVE",
"343 739 OFFCURVE",
"321 738 OFFCURVE",
"298 738 CURVE SMOOTH"
);
}
);
width = 607;
}
);
leftKerningGroup = A;
note = Aring;
rightKerningGroup = A;
unicode = 00C5;
},
{
glyphname = Aringacute;
lastChange = "2015-07-19 17:28:46 +0000";
layers = (
{
components = (
{
name = A;
}
);
layerId = "E35F1BB4-987F-4EDF-94B4-0283FA17DEFF";
name = Regular;
paths = (
{
closed = 1;
nodes = (
"369 677 OFFCURVE",
"415 717 OFFCURVE",
"415 768 CURVE SMOOTH",
"415 828 OFFCURVE",
"373 865 OFFCURVE",
"306 865 CURVE SMOOTH",
"226 865 OFFCURVE",
"185 820 OFFCURVE",
"185 769 CURVE SMOOTH",
"185 709 OFFCURVE",
"227 677 OFFCURVE",
"294 677 CURVE SMOOTH"
);
},
{
closed = 1;
nodes = (
"262 726 OFFCURVE",
"242 744 OFFCURVE",
"242 770 CURVE SMOOTH",
"242 783 OFFCURVE",
"243 797 OFFCURVE",
"247 811 CURVE",
"262 815 OFFCURVE",
"281 816 OFFCURVE",
"305 816 CURVE SMOOTH",
"338 816 OFFCURVE",
"358 793 OFFCURVE",
"358 767 CURVE SMOOTH",
"358 754 OFFCURVE",
"356 742 OFFCURVE",
"353 731 CURVE",
"340 727 OFFCURVE",
"318 726 OFFCURVE",
"295 726 CURVE SMOOTH"
);
},
{
closed = 1;
nodes = (
"433 1064 LINE",
"327 1075 LINE",
"244 930 LINE",
"308 920 LINE"
);
}
);
width = 607;
}
);
leftKerningGroup = A;
note = Aringacute;
rightKerningGroup = A;
unicode = 01FA;
},
{
glyphname = Atilde;
lastChange = "2015-07-19 17:28:46 +0000";
layers = (
{
components = (
{
name = A;
}
);
layerId = "E35F1BB4-987F-4EDF-94B4-0283FA17DEFF";
name = Regular;
paths = (
{
closed = 1;
nodes = (
"210 713 OFFCURVE",
"220 732 OFFCURVE",
"247 732 CURVE SMOOTH",
"282 732 OFFCURVE",
"309 691 OFFCURVE",
"356 691 CURVE SMOOTH",
"411 691 OFFCURVE",
"436 722 OFFCURVE",
"440 787 CURVE",
"385 805 LINE",
"382 779 OFFCURVE",
"372 760 OFFCURVE",
"345 760 CURVE SMOOTH",
"316 760 OFFCURVE",
"278 801 OFFCURVE",
"236 801 CURVE SMOOTH",
"181 801 OFFCURVE",
"156 770 OFFCURVE",
"152 705 CURVE",
"207 687 LINE"
);
}
);
width = 607;
}
);
leftKerningGroup = A;
note = Atilde;
rightKerningGroup = A;
unicode = 00C3;
},
{
glyphname = AE;
lastChange = "2015-07-19 17:28:57 +0000";
layers = (
{
layerId = "E35F1BB4-987F-4EDF-94B4-0283FA17DEFF";
name = Regular;
paths = (
{
closed = 1;
nodes = (
"747 -10 OFFCURVE",
"811 -4 OFFCURVE",
"862 11 CURVE",
"843 85 LINE",
"793 73 OFFCURVE",
"729 67 OFFCURVE",
"673 67 CURVE SMOOTH",
"625 67 OFFCURVE",
"584 70 OFFCURVE",
"542 77 CURVE",
"542 270 LINE",
"822 270 LINE",
"822 345 LINE",
"542 345 LINE",
"542 539 LINE",
"851 539 LINE",
"851 616 LINE",
"333 616 LINE",
"223 424 OFFCURVE",
"114 221 OFFCURVE",
"20 26 CURVE",
"100 0 LINE",
"132 65 OFFCURVE",
"166 133 OFFCURVE",
"201 200 CURVE",
"458 200 LINE",
"458 91 LINE SMOOTH",
"458 11 OFFCURVE",
"550 -10 OFFCURVE",
"670 -10 CURVE SMOOTH"
);
},
{
closed = 1;
nodes = (
"291 372 OFFCURVE",
"340 463 OFFCURVE",
"382 535 CURVE",
"458 535 LINE",
"458 275 LINE",
"240 275 LINE"
);
}
);
width = 922;
}
);
leftKerningGroup = A;
note = AE;
rightKerningGroup = E;
unicode = 00C6;
},
{
glyphname = AEacute;
lastChange = "2015-07-19 17:28:57 +0000";
layers = (
{
layerId = "E35F1BB4-987F-4EDF-94B4-0283FA17DEFF";
name = Regular;
paths = (
{
closed = 1;
nodes = (
"747 -10 OFFCURVE",
"811 -4 OFFCURVE",
"862 11 CURVE",
"843 85 LINE",
"793 73 OFFCURVE",
"729 67 OFFCURVE",
"673 67 CURVE SMOOTH",
"625 67 OFFCURVE",
"584 70 OFFCURVE",
"542 77 CURVE",
"542 270 LINE",
"822 270 LINE",
"822 345 LINE",
"542 345 LINE",
"542 539 LINE",
"851 539 LINE",
"851 616 LINE",
"333 616 LINE",
"223 424 OFFCURVE",
"114 221 OFFCURVE",
"20 26 CURVE",
"100 0 LINE",
"132 65 OFFCURVE",
"166 133 OFFCURVE",
"201 200 CURVE",
"458 200 LINE",
"458 91 LINE SMOOTH",
"458 11 OFFCURVE",
"550 -10 OFFCURVE",
"670 -10 CURVE SMOOTH"
);
},
{
closed = 1;
nodes = (
"291 372 OFFCURVE",
"340 463 OFFCURVE",
"382 535 CURVE",
"458 535 LINE",
"458 275 LINE",
"240 275 LINE"
);
},
{
closed = 1;
nodes = (
"675 829 LINE",
"569 840 LINE",
"486 695 LINE",
"550 685 LINE"
);
}
);
width = 922;
}
);
leftKerningGroup = A;
note = AEacute;
rightKerningGroup = E;
unicode = 01FC;
},
{
glyphname = B;
lastChange = "2015-07-19 15:35:22 +0000";
layers = (
{
layerId = "E35F1BB4-987F-4EDF-94B4-0283FA17DEFF";
name = Regular;
paths = (
{
closed = 1;
nodes = (
"245 0 LINE SMOOTH",
"443 0 OFFCURVE",
"500 61 OFFCURVE",
"500 174 CURVE SMOOTH",
"500 238 OFFCURVE",
"468 287 OFFCURVE",
"390 311 CURVE",
"390 317 LINE",
"446 348 OFFCURVE",
"470 392 OFFCURVE",
"470 451 CURVE SMOOTH",
"470 573 OFFCURVE",
"394 626 OFFCURVE",
"241 626 CURVE SMOOTH",
"182 626 OFFCURVE",
"127 617 OFFCURVE",
"75 602 CURVE",
"75 0 LINE"
);
},
{
closed = 1;
nodes = (
"159 270 LINE",
"293 270 LINE SMOOTH",
"381 270 OFFCURVE",
"416 231 OFFCURVE",
"416 171 CURVE SMOOTH",
"416 100 OFFCURVE",
"375 76 OFFCURVE",
"233 76 CURVE SMOOTH",
"159 76 LINE"
);
},
{
closed = 1;
nodes = (
"159 542 LINE",
"184 547 OFFCURVE",
"212 550 OFFCURVE",
"240 550 CURVE SMOOTH",
"340 550 OFFCURVE",
"386 526 OFFCURVE",
"386 450 CURVE SMOOTH",
"386 408 OFFCURVE",
"370 372 OFFCURVE",
"340 345 CURVE",
"159 345 LINE"
);
}
);
width = 545;
}
);
note = B;
unicode = 0042;
},
{
glyphname = C;
lastChange = "2015-07-19 17:30:02 +0000";
layers = (
{
layerId = "E35F1BB4-987F-4EDF-94B4-0283FA17DEFF";
name = Regular;
paths = (
{
closed = 1;
nodes = (
"404 -8 OFFCURVE",
"482 12 OFFCURVE",
"525 49 CURVE",
"486 113 LINE",
"450 86 OFFCURVE",
"383 70 OFFCURVE",
"322 70 CURVE SMOOTH",
"189 70 OFFCURVE",
"139 137 OFFCURVE",
"139 295 CURVE SMOOTH",
"139 385 OFFCURVE",
"158 473 OFFCURVE",
"192 535 CURVE",
"234 544 OFFCURVE",
"273 548 OFFCURVE",
"311 548 CURVE SMOOTH",
"352 548 OFFCURVE",
"396 544 OFFCURVE",
"421 539 CURVE",
"431 460 LINE",
"490 460 LINE",
"498 479 OFFCURVE",
"503 503 OFFCURVE",
"503 529 CURVE SMOOTH",
"503 585 LINE",
"470 607 OFFCURVE",
"385 626 OFFCURVE",
"312 626 CURVE SMOOTH",
"136 626 OFFCURVE",
"54 486 OFFCURVE",
"54 289 CURVE SMOOTH",
"54 95 OFFCURVE",
"137 -8 OFFCURVE",
"320 -8 CURVE SMOOTH"
);
}
);
width = 567;
}
);
leftKerningGroup = C;
note = C;
rightKerningGroup = C;
unicode = 0043;
},
{
glyphname = Cacute;
lastChange = "2015-07-19 17:30:02 +0000";
layers = (
{
layerId = "E35F1BB4-987F-4EDF-94B4-0283FA17DEFF";
name = Regular;
paths = (
{
closed = 1;
nodes = (
"404 -8 OFFCURVE",
"482 12 OFFCURVE",
"525 49 CURVE",
"486 113 LINE",
"450 86 OFFCURVE",
"383 70 OFFCURVE",
"322 70 CURVE SMOOTH",
"189 70 OFFCURVE",
"139 137 OFFCURVE",
"139 295 CURVE SMOOTH",
"139 385 OFFCURVE",
"158 473 OFFCURVE",
"192 535 CURVE",
"234 544 OFFCURVE",
"273 548 OFFCURVE",
"311 548 CURVE SMOOTH",
"352 548 OFFCURVE",
"396 544 OFFCURVE",
"421 539 CURVE",
"431 460 LINE",
"490 460 LINE",
"498 479 OFFCURVE",
"503 503 OFFCURVE",
"503 529 CURVE SMOOTH",
"503 585 LINE",
"470 607 OFFCURVE",
"385 626 OFFCURVE",
"312 626 CURVE SMOOTH",
"136 626 OFFCURVE",
"54 486 OFFCURVE",
"54 289 CURVE SMOOTH",
"54 95 OFFCURVE",
"137 -8 OFFCURVE",
"320 -8 CURVE SMOOTH"
);
},
{
closed = 1;
nodes = (
"471 830 LINE",
"365 841 LINE",
"282 696 LINE",
"346 686 LINE"
);
}
);
width = 567;
}
);
leftKerningGroup = C;
note = Cacute;
rightKerningGroup = C;
unicode = 0106;
},
{
glyphname = Ccaron;
lastChange = "2015-07-19 17:30:02 +0000";
layers = (
{
layerId = "E35F1BB4-987F-4EDF-94B4-0283FA17DEFF";
name = Regular;
paths = (
{
closed = 1;
nodes = (
"404 -8 OFFCURVE",
"482 12 OFFCURVE",
"525 49 CURVE",
"486 113 LINE",
"450 86 OFFCURVE",
"383 70 OFFCURVE",
"322 70 CURVE SMOOTH",
"189 70 OFFCURVE",
"139 137 OFFCURVE",
"139 295 CURVE SMOOTH",
"139 385 OFFCURVE",
"158 473 OFFCURVE",
"192 535 CURVE",
"234 544 OFFCURVE",
"273 548 OFFCURVE",
"311 548 CURVE SMOOTH",
"352 548 OFFCURVE",
"396 544 OFFCURVE",
"421 539 CURVE",
"431 460 LINE",
"490 460 LINE",
"498 479 OFFCURVE",
"503 503 OFFCURVE",
"503 529 CURVE SMOOTH",
"503 585 LINE",
"470 607 OFFCURVE",
"385 626 OFFCURVE",
"312 626 CURVE SMOOTH",
"136 626 OFFCURVE",
"54 486 OFFCURVE",
"54 289 CURVE SMOOTH",
"54 95 OFFCURVE",
"137 -8 OFFCURVE",
"320 -8 CURVE SMOOTH"
);
},
{
closed = 1;
nodes = (
"348 696 LINE",
"447 829 LINE",
"394 840 LINE",
"313 765 LINE",
"308 765 LINE",
"224 840 LINE",
"173 829 LINE",
"273 696 LINE"
);
}
);
width = 567;
}
);
leftKerningGroup = C;
note = Ccaron;
rightKerningGroup = C;
unicode = 010C;
},
{
glyphname = Ccedilla;
lastChange = "2015-07-19 17:30:02 +0000";
layers = (
{
layerId = "E35F1BB4-987F-4EDF-94B4-0283FA17DEFF";
name = Regular;
paths = (
{
closed = 1;
nodes = (
"383 -216 OFFCURVE",
"417 -186 OFFCURVE",
"417 -128 CURVE SMOOTH",
"417 -82 OFFCURVE",
"394 -52 OFFCURVE",
"338 -52 CURVE SMOOTH",
"323 -52 OFFCURVE",
"310 -54 OFFCURVE",
"299 -59 CURVE",
"335 -8 LINE",
"345 -8 OFFCURVE",
"355 -7 OFFCURVE",
"365 -6 CURVE SMOOTH",
"431 0 OFFCURVE",
"489 19 OFFCURVE",
"525 49 CURVE",
"486 113 LINE",
"450 86 OFFCURVE",
"383 70 OFFCURVE",
"322 70 CURVE SMOOTH",
"189 70 OFFCURVE",
"139 137 OFFCURVE",
"139 295 CURVE SMOOTH",
"139 385 OFFCURVE",
"158 473 OFFCURVE",
"192 535 CURVE",
"234 544 OFFCURVE",
"273 548 OFFCURVE",
"311 548 CURVE SMOOTH",
"352 548 OFFCURVE",
"396 544 OFFCURVE",
"421 539 CURVE",
"431 460 LINE",
"490 460 LINE",
"498 479 OFFCURVE",
"503 503 OFFCURVE",
"503 529 CURVE SMOOTH",
"503 585 LINE",
"470 607 OFFCURVE",
"385 626 OFFCURVE",
"312 626 CURVE SMOOTH",
"136 626 OFFCURVE",
"54 486 OFFCURVE",
"54 289 CURVE SMOOTH",
"54 113 OFFCURVE",
"122 12 OFFCURVE",
"271 -5 CURVE",
"221 -66 LINE",
"264 -109 LINE",
"274 -104 OFFCURVE",
"289 -101 OFFCURVE",
"304 -101 CURVE SMOOTH",
"331 -101 OFFCURVE",
"349 -109 OFFCURVE",
"349 -131 CURVE SMOOTH",
"349 -142 OFFCURVE",
"348 -148 OFFCURVE",
"345 -157 CURVE",
"330 -160 OFFCURVE",
"316 -161 OFFCURVE",
"298 -161 CURVE SMOOTH",
"280 -161 OFFCURVE",
"251 -157 OFFCURVE",
"233 -150 CURVE",
"216 -199 LINE",
"246 -213 OFFCURVE",
"277 -216 OFFCURVE",
"305 -216 CURVE SMOOTH"
);
}
);
width = 567;
}
);
leftKerningGroup = C;
note = Ccedilla;
rightKerningGroup = C;
unicode = 00C7;
},
{
glyphname = Ccircumflex;
lastChange = "2015-07-19 17:30:02 +0000";
layers = (
{
layerId = "E35F1BB4-987F-4EDF-94B4-0283FA17DEFF";
name = Regular;
paths = (
{
closed = 1;
nodes = (
"404 -8 OFFCURVE",
"482 12 OFFCURVE",
"525 49 CURVE",
"486 113 LINE",
"450 86 OFFCURVE",
"383 70 OFFCURVE",
"322 70 CURVE SMOOTH",
"189 70 OFFCURVE",
"139 137 OFFCURVE",
"139 295 CURVE SMOOTH",
"139 385 OFFCURVE",
"158 473 OFFCURVE",
"192 535 CURVE",
"234 544 OFFCURVE",
"273 548 OFFCURVE",
"311 548 CURVE SMOOTH",
"352 548 OFFCURVE",
"396 544 OFFCURVE",
"421 539 CURVE",
"431 460 LINE",
"490 460 LINE",
"498 479 OFFCURVE",
"503 503 OFFCURVE",
"503 529 CURVE SMOOTH",
"503 585 LINE",
"470 607 OFFCURVE",
"385 626 OFFCURVE",
"312 626 CURVE SMOOTH",
"136 626 OFFCURVE",
"54 486 OFFCURVE",
"54 289 CURVE SMOOTH",
"54 95 OFFCURVE",
"137 -8 OFFCURVE",
"320 -8 CURVE SMOOTH"
);
},
{
closed = 1;
nodes = (
"324 759 LINE",
"329 759 LINE",
"410 684 LINE",
"463 695 LINE",
"364 828 LINE",
"289 828 LINE",
"189 695 LINE",
"240 684 LINE"
);
}
);
width = 567;
}
);
leftKerningGroup = C;
note = Ccircumflex;
rightKerningGroup = C;
unicode = 0108;
},
{
glyphname = Cdotaccent;
lastChange = "2015-07-19 17:30:02 +0000";
layers = (
{
layerId = "E35F1BB4-987F-4EDF-94B4-0283FA17DEFF";
name = Regular;
paths = (
{
closed = 1;
nodes = (
"404 -8 OFFCURVE",
"482 12 OFFCURVE",
"525 49 CURVE",
"486 113 LINE",
"450 86 OFFCURVE",
"383 70 OFFCURVE",
"322 70 CURVE SMOOTH",
"189 70 OFFCURVE",
"139 137 OFFCURVE",
"139 295 CURVE SMOOTH",
"139 385 OFFCURVE",
"158 473 OFFCURVE",
"192 535 CURVE",
"234 544 OFFCURVE",
"273 548 OFFCURVE",
"311 548 CURVE SMOOTH",
"352 548 OFFCURVE",
"396 544 OFFCURVE",
"421 539 CURVE",
"431 460 LINE",
"490 460 LINE",
"498 479 OFFCURVE",
"503 503 OFFCURVE",
"503 529 CURVE SMOOTH",
"503 585 LINE",
"470 607 OFFCURVE",
"385 626 OFFCURVE",
"312 626 CURVE SMOOTH",
"136 626 OFFCURVE",
"54 486 OFFCURVE",
"54 289 CURVE SMOOTH",
"54 95 OFFCURVE",
"137 -8 OFFCURVE",
"320 -8 CURVE SMOOTH"
);
},
{
closed = 1;
nodes = (
"354 691 OFFCURVE",
"376 712 OFFCURVE",
"376 747 CURVE SMOOTH",
"376 784 OFFCURVE",
"354 805 OFFCURVE",
"316 805 CURVE SMOOTH",
"278 805 OFFCURVE",
"256 784 OFFCURVE",
"256 747 CURVE SMOOTH",
"256 712 OFFCURVE",
"278 691 OFFCURVE",
"316 691 CURVE SMOOTH"
);
}
);
width = 567;
}
);
leftKerningGroup = C;
note = Cdotaccent;
rightKerningGroup = C;
unicode = 010A;
},
{
glyphname = D;
lastChange = "2015-07-19 17:30:09 +0000";
layers = (
{
layerId = "E35F1BB4-987F-4EDF-94B4-0283FA17DEFF";
name = Regular;
paths = (
{
closed = 1;
nodes = (
"218 0 LINE SMOOTH",
"486 0 OFFCURVE",
"539 119 OFFCURVE",
"539 315 CURVE SMOOTH",
"539 505 OFFCURVE",
"468 626 OFFCURVE",
"252 626 CURVE SMOOTH",
"193 626 OFFCURVE",
"128 619 OFFCURVE",
"75 606 CURVE",
"75 0 LINE"
);
},
{
closed = 1;
nodes = (
"160 543 LINE",
"191 547 OFFCURVE",
"217 549 OFFCURVE",
"248 549 CURVE SMOOTH",
"412 549 OFFCURVE",
"454 468 OFFCURVE",
"454 306 CURVE SMOOTH",
"454 224 OFFCURVE",
"440 146 OFFCURVE",
"419 100 CURVE",
"363 84 OFFCURVE",
"300 78 OFFCURVE",
"219 78 CURVE SMOOTH",
"160 78 LINE"
);
}
);
width = 585;
}
);
note = D;
rightKerningGroup = D;
unicode = 0044;
},
{
glyphname = Eth;
lastChange = "2015-07-19 17:30:09 +0000";
layers = (
{
layerId = "E35F1BB4-987F-4EDF-94B4-0283FA17DEFF";
name = Regular;
paths = (
{
closed = 1;
nodes = (
"279 0 LINE SMOOTH",
"547 0 OFFCURVE",
"600 119 OFFCURVE",
"600 315 CURVE SMOOTH",
"600 505 OFFCURVE",
"529 626 OFFCURVE",
"313 626 CURVE SMOOTH",
"254 626 OFFCURVE",
"189 619 OFFCURVE",
"136 606 CURVE",
"136 354 LINE",
"45 354 LINE",
"45 290 LINE",
"136 290 LINE",
"136 0 LINE"
);
},
{
closed = 1;
nodes = (
"221 290 LINE",
"325 290 LINE",
"325 354 LINE",
"221 354 LINE",
"221 543 LINE",
"252 547 OFFCURVE",
"278 549 OFFCURVE",
"309 549 CURVE SMOOTH",
"473 549 OFFCURVE",
"515 468 OFFCURVE",
"515 306 CURVE SMOOTH",
"515 224 OFFCURVE",
"501 146 OFFCURVE",
"480 100 CURVE",
"424 84 OFFCURVE",
"361 78 OFFCURVE",
"280 78 CURVE SMOOTH",
"221 78 LINE"
);
}
);
width = 646;
}
);
note = Eth;
rightKerningGroup = D;
unicode = 00D0;
},
{
glyphname = Dcaron;
lastChange = "2015-07-19 17:30:09 +0000";
layers = (
{
layerId = "E35F1BB4-987F-4EDF-94B4-0283FA17DEFF";
name = Regular;
paths = (
{
closed = 1;
nodes = (
"218 0 LINE SMOOTH",
"486 0 OFFCURVE",
"539 119 OFFCURVE",
"539 315 CURVE SMOOTH",
"539 505 OFFCURVE",
"468 626 OFFCURVE",
"252 626 CURVE SMOOTH",
"193 626 OFFCURVE",
"128 619 OFFCURVE",
"75 606 CURVE",
"75 0 LINE"
);
},
{
closed = 1;
nodes = (
"160 543 LINE",
"191 547 OFFCURVE",
"217 549 OFFCURVE",
"248 549 CURVE SMOOTH",
"412 549 OFFCURVE",
"454 468 OFFCURVE",
"454 306 CURVE SMOOTH",
"454 224 OFFCURVE",
"440 146 OFFCURVE",
"419 100 CURVE",
"363 84 OFFCURVE",
"300 78 OFFCURVE",
"219 78 CURVE SMOOTH",
"160 78 LINE"
);
},
{
closed = 1;
nodes = (
"324 696 LINE",
"423 829 LINE",
"370 840 LINE",
"289 765 LINE",
"284 765 LINE",
"200 840 LINE",
"149 829 LINE",
"249 696 LINE"
);
}
);
width = 585;
}
);
note = Dcaron;
rightKerningGroup = D;
unicode = 010E;
},
{
glyphname = Dcroat;
lastChange = "2015-07-19 17:30:09 +0000";
layers = (
{
layerId = "E35F1BB4-987F-4EDF-94B4-0283FA17DEFF";
name = Regular;
paths = (
{
closed = 1;
nodes = (
"269 0 LINE SMOOTH",
"537 0 OFFCURVE",
"590 119 OFFCURVE",
"590 315 CURVE SMOOTH",
"590 505 OFFCURVE",
"519 626 OFFCURVE",
"303 626 CURVE SMOOTH",
"244 626 OFFCURVE",
"179 619 OFFCURVE",
"126 606 CURVE",
"126 342 LINE",
"45 342 LINE",
"45 268 LINE",
"126 268 LINE",
"126 0 LINE"
);
},
{
closed = 1;
nodes = (
"211 268 LINE",
"307 268 LINE",
"307 342 LINE",
"211 342 LINE",
"211 543 LINE",
"242 547 OFFCURVE",
"268 549 OFFCURVE",
"299 549 CURVE SMOOTH",
"463 549 OFFCURVE",
"505 468 OFFCURVE",
"505 306 CURVE SMOOTH",
"505 224 OFFCURVE",
"491 146 OFFCURVE",
"470 100 CURVE",
"414 84 OFFCURVE",
"351 78 OFFCURVE",
"270 78 CURVE SMOOTH",
"211 78 LINE"
);
}
);
width = 636;
}
);
note = Dcroat;
rightKerningGroup = D;
unicode = 0110;
},
{
glyphname = Ddotbelow;
lastChange = "2015-07-19 17:30:09 +0000";
layers = (
{
layerId = "E35F1BB4-987F-4EDF-94B4-0283FA17DEFF";
name = Regular;
paths = (
{
closed = 1;
nodes = (
"218 0 LINE SMOOTH",
"486 0 OFFCURVE",
"539 119 OFFCURVE",
"539 315 CURVE SMOOTH",
"539 505 OFFCURVE",
"468 626 OFFCURVE",
"252 626 CURVE SMOOTH",
"193 626 OFFCURVE",
"128 619 OFFCURVE",
"75 606 CURVE",
"75 0 LINE"
);
},
{
closed = 1;
nodes = (
"334 -179 OFFCURVE",
"356 -158 OFFCURVE",
"356 -123 CURVE SMOOTH",
"356 -86 OFFCURVE",
"334 -65 OFFCURVE",
"296 -65 CURVE SMOOTH",
"258 -65 OFFCURVE",
"236 -86 OFFCURVE",
"236 -123 CURVE SMOOTH",
"236 -158 OFFCURVE",
"258 -179 OFFCURVE",
"296 -179 CURVE SMOOTH"
);
},
{
closed = 1;
nodes = (
"160 543 LINE",
"191 547 OFFCURVE",
"217 549 OFFCURVE",
"248 549 CURVE SMOOTH",
"412 549 OFFCURVE",
"454 468 OFFCURVE",
"454 306 CURVE SMOOTH",
"454 224 OFFCURVE",
"440 146 OFFCURVE",
"419 100 CURVE",
"363 84 OFFCURVE",
"300 78 OFFCURVE",
"219 78 CURVE SMOOTH",
"160 78 LINE"
);
}
);
width = 585;
}
);
note = Ddotbelow;
rightKerningGroup = D;
unicode = 1E0C;
},
{
glyphname = Dlinebelow;
lastChange = "2015-07-19 17:30:09 +0000";
layers = (
{
layerId = "E35F1BB4-987F-4EDF-94B4-0283FA17DEFF";
name = Regular;
paths = (
{
closed = 1;
nodes = (
"219 0 LINE SMOOTH",
"487 0 OFFCURVE",
"540 119 OFFCURVE",
"540 315 CURVE SMOOTH",
"540 505 OFFCURVE",
"469 626 OFFCURVE",
"253 626 CURVE SMOOTH",
"194 626 OFFCURVE",
"129 619 OFFCURVE",
"76 606 CURVE",
"76 0 LINE"
);
},
{
closed = 1;
nodes = (
"380 -145 LINE",
"380 -70 LINE",
"75 -70 LINE",
"75 -145 LINE"
);
},
{
closed = 1;
nodes = (
"161 543 LINE",
"192 547 OFFCURVE",
"218 549 OFFCURVE",
"249 549 CURVE SMOOTH",
"413 549 OFFCURVE",
"455 468 OFFCURVE",
"455 306 CURVE SMOOTH",
"455 224 OFFCURVE",
"441 146 OFFCURVE",
"420 100 CURVE",
"364 84 OFFCURVE",
"301 78 OFFCURVE",
"220 78 CURVE SMOOTH",
"161 78 LINE"
);
}
);
width = 586;
}
);
note = Dlinebelow;
rightKerningGroup = D;
unicode = 1E0E;
},
{
glyphname = E;
lastChange = "2015-07-19 17:30:24 +0000";
layers = (
{
layerId = "E35F1BB4-987F-4EDF-94B4-0283FA17DEFF";
name = Regular;
paths = (
{
closed = 1;
nodes = (
"364 -8 OFFCURVE",
"428 -2 OFFCURVE",
"479 13 CURVE",
"460 87 LINE",
"410 75 OFFCURVE",
"346 69 OFFCURVE",
"290 69 CURVE SMOOTH",
"242 69 OFFCURVE",
"201 72 OFFCURVE",
"159 79 CURVE",
"159 270 LINE",
"439 270 LINE",
"439 345 LINE",
"159 345 LINE",
"159 539 LINE",
"468 539 LINE",
"468 616 LINE",
"75 616 LINE",
"75 93 LINE SMOOTH",
"75 13 OFFCURVE",
"167 -8 OFFCURVE",
"287 -8 CURVE SMOOTH"
);
}
);
width = 539;
}
);
note = E;
rightKerningGroup = E;
unicode = 0045;
},
{
glyphname = Eacute;
lastChange = "2015-07-19 17:30:24 +0000";
layers = (
{
layerId = "E35F1BB4-987F-4EDF-94B4-0283FA17DEFF";
name = Regular;
paths = (
{
closed = 1;
nodes = (
"364 -8 OFFCURVE",
"428 -2 OFFCURVE",
"479 13 CURVE",
"460 87 LINE",
"410 75 OFFCURVE",
"346 69 OFFCURVE",
"290 69 CURVE SMOOTH",
"242 69 OFFCURVE",
"201 72 OFFCURVE",
"159 79 CURVE",
"159 270 LINE",
"439 270 LINE",
"439 345 LINE",
"159 345 LINE",
"159 539 LINE",
"468 539 LINE",
"468 616 LINE",
"75 616 LINE",
"75 93 LINE SMOOTH",
"75 13 OFFCURVE",
"167 -8 OFFCURVE",
"287 -8 CURVE SMOOTH"
);
},
{
closed = 1;
nodes = (
"413 829 LINE",
"307 840 LINE",
"224 695 LINE",
"288 685 LINE"
);
}
);
width = 539;
}
);
note = Eacute;
rightKerningGroup = E;
unicode = 00C9;
},
{
glyphname = Ebreve;
lastChange = "2015-07-19 17:30:24 +0000";
layers = (
{
layerId = "E35F1BB4-987F-4EDF-94B4-0283FA17DEFF";
name = Regular;
paths = (
{
closed = 1;
nodes = (
"364 -8 OFFCURVE",
"428 -2 OFFCURVE",
"479 13 CURVE",
"460 87 LINE",
"410 75 OFFCURVE",
"346 69 OFFCURVE",
"290 69 CURVE SMOOTH",
"242 69 OFFCURVE",
"201 72 OFFCURVE",
"159 79 CURVE",
"159 270 LINE",
"439 270 LINE",
"439 345 LINE",
"159 345 LINE",
"159 539 LINE",
"468 539 LINE",
"468 616 LINE",
"75 616 LINE",
"75 93 LINE SMOOTH",
"75 13 OFFCURVE",
"167 -8 OFFCURVE",
"287 -8 CURVE SMOOTH"
);
},
{
closed = 1;
nodes = (
"374 691 OFFCURVE",
"416 735 OFFCURVE",
"424 804 CURVE",
"347 816 LINE",
"344 777 OFFCURVE",
"335 755 OFFCURVE",
"289 755 CURVE SMOOTH",
"243 755 OFFCURVE",
"234 777 OFFCURVE",
"231 816 CURVE",
"154 804 LINE",
"162 735 OFFCURVE",
"204 691 OFFCURVE",
"289 691 CURVE SMOOTH"
);
}
);
width = 539;
}
);
note = Ebreve;
rightKerningGroup = E;
unicode = 0114;
},
{
glyphname = Ecaron;
lastChange = "2015-07-19 17:30:24 +0000";
layers = (
{
layerId = "E35F1BB4-987F-4EDF-94B4-0283FA17DEFF";
name = Regular;
paths = (
{
closed = 1;
nodes = (
"364 -8 OFFCURVE",
"428 -2 OFFCURVE",
"479 13 CURVE",
"460 87 LINE",
"410 75 OFFCURVE",
"346 69 OFFCURVE",
"290 69 CURVE SMOOTH",
"242 69 OFFCURVE",
"201 72 OFFCURVE",
"159 79 CURVE",
"159 270 LINE",
"439 270 LINE",
"439 345 LINE",
"159 345 LINE",
"159 539 LINE",
"468 539 LINE",
"468 616 LINE",
"75 616 LINE",
"75 93 LINE SMOOTH",
"75 13 OFFCURVE",
"167 -8 OFFCURVE",
"287 -8 CURVE SMOOTH"
);
},
{
closed = 1;
nodes = (
"323 696 LINE",
"422 829 LINE",
"369 840 LINE",
"288 765 LINE",
"283 765 LINE",
"199 840 LINE",
"148 829 LINE",
"248 696 LINE"
);
}
);
width = 539;
}
);
note = Ecaron;
rightKerningGroup = E;
unicode = 011A;
},
{
glyphname = Ecircumflex;
lastChange = "2015-07-19 17:30:24 +0000";
layers = (
{
layerId = "E35F1BB4-987F-4EDF-94B4-0283FA17DEFF";
name = Regular;
paths = (
{
closed = 1;
nodes = (
"364 -8 OFFCURVE",
"428 -2 OFFCURVE",
"479 13 CURVE",
"460 87 LINE",
"410 75 OFFCURVE",
"346 69 OFFCURVE",
"290 69 CURVE SMOOTH",
"242 69 OFFCURVE",
"201 72 OFFCURVE",
"159 79 CURVE",
"159 270 LINE",
"439 270 LINE",
"439 345 LINE",
"159 345 LINE",
"159 539 LINE",
"468 539 LINE",
"468 616 LINE",
"75 616 LINE",
"75 93 LINE SMOOTH",
"75 13 OFFCURVE",
"167 -8 OFFCURVE",
"287 -8 CURVE SMOOTH"
);
},
{
closed = 1;
nodes = (
"272 759 LINE",
"277 759 LINE",
"358 684 LINE",
"411 695 LINE",
"312 828 LINE",
"237 828 LINE",
"137 695 LINE",
"188 684 LINE"
);
}
);
width = 539;
}
);
note = Ecircumflex;
rightKerningGroup = E;
unicode = 00CA;
},
{
glyphname = Ecircumflexacute;
lastChange = "2015-07-19 17:30:24 +0000";
layers = (
{
layerId = "E35F1BB4-987F-4EDF-94B4-0283FA17DEFF";
name = Regular;
paths = (
{
closed = 1;
nodes = (
"364 -8 OFFCURVE",
"428 -2 OFFCURVE",
"479 13 CURVE",
"460 87 LINE",
"410 75 OFFCURVE",
"346 69 OFFCURVE",
"290 69 CURVE SMOOTH",
"242 69 OFFCURVE",
"201 72 OFFCURVE",
"159 79 CURVE",
"159 270 LINE",
"439 270 LINE",
"439 345 LINE",
"159 345 LINE",
"159 539 LINE",
"468 539 LINE",
"468 616 LINE",
"75 616 LINE",
"75 93 LINE SMOOTH",
"75 13 OFFCURVE",
"167 -8 OFFCURVE",
"287 -8 CURVE SMOOTH"
);
},
{
closed = 1;
nodes = (
"273 760 LINE",
"278 760 LINE",
"359 685 LINE",
"412 696 LINE",
"313 829 LINE",
"238 829 LINE",
"138 696 LINE",
"189 685 LINE"
);
},
{
closed = 1;
nodes = (
"529 882 LINE",
"455 895 LINE",
"395 787 LINE",
"447 775 LINE"
);
}
);
width = 539;
}
);
note = Ecircumflexacute;
rightKerningGroup = E;
unicode = 1EBE;
},
{
glyphname = Ecircumflexdotbelow;
lastChange = "2015-07-19 17:30:24 +0000";
layers = (
{
layerId = "E35F1BB4-987F-4EDF-94B4-0283FA17DEFF";
name = Regular;
paths = (
{
closed = 1;
nodes = (
"364 -8 OFFCURVE",
"428 -2 OFFCURVE",
"479 13 CURVE",
"460 87 LINE",
"410 75 OFFCURVE",
"346 69 OFFCURVE",
"290 69 CURVE SMOOTH",
"242 69 OFFCURVE",
"201 72 OFFCURVE",
"159 79 CURVE",
"159 270 LINE",
"439 270 LINE",
"439 345 LINE",
"159 345 LINE",
"159 539 LINE",
"468 539 LINE",
"468 616 LINE",
"75 616 LINE",
"75 93 LINE SMOOTH",
"75 13 OFFCURVE",
"167 -8 OFFCURVE",
"287 -8 CURVE SMOOTH"
);
},
{
closed = 1;
nodes = (
"323 -179 OFFCURVE",
"345 -158 OFFCURVE",
"345 -123 CURVE SMOOTH",
"345 -86 OFFCURVE",
"323 -65 OFFCURVE",
"285 -65 CURVE SMOOTH",
"247 -65 OFFCURVE",
"225 -86 OFFCURVE",
"225 -123 CURVE SMOOTH",
"225 -158 OFFCURVE",
"247 -179 OFFCURVE",
"285 -179 CURVE SMOOTH"
);
},
{
closed = 1;
nodes = (
"289 760 LINE",
"294 760 LINE",
"375 685 LINE",
"428 696 LINE",
"329 829 LINE",
"254 829 LINE",
"154 696 LINE",
"205 685 LINE"
);
}
);
width = 539;
}
);
note = Ecircumflexdotbelow;
rightKerningGroup = E;
unicode = 1EC6;
},
{
glyphname = Ecircumflexgrave;
lastChange = "2015-07-19 17:30:24 +0000";
layers = (
{
layerId = "E35F1BB4-987F-4EDF-94B4-0283FA17DEFF";
name = Regular;
paths = (
{
closed = 1;
nodes = (
"364 -8 OFFCURVE",
"428 -2 OFFCURVE",
"479 13 CURVE",
"460 87 LINE",
"410 75 OFFCURVE",
"346 69 OFFCURVE",
"290 69 CURVE SMOOTH",
"242 69 OFFCURVE",
"201 72 OFFCURVE",
"159 79 CURVE",
"159 270 LINE",
"439 270 LINE",
"439 345 LINE",
"159 345 LINE",
"159 539 LINE",
"468 539 LINE",
"468 616 LINE",
"75 616 LINE",
"75 93 LINE SMOOTH",
"75 13 OFFCURVE",
"167 -8 OFFCURVE",
"287 -8 CURVE SMOOTH"
);
},
{
closed = 1;
nodes = (
"153 787 LINE",
"93 895 LINE",
"19 882 LINE",
"101 775 LINE"
);
},
{
closed = 1;
nodes = (
"270 760 LINE",
"275 760 LINE",
"359 685 LINE",
"410 696 LINE",
"310 829 LINE",
"235 829 LINE",
"136 696 LINE",
"189 685 LINE"
);
}
);
width = 539;
}
);
note = Ecircumflexgrave;
rightKerningGroup = E;
unicode = 1EC0;
},
{
glyphname = Ecircumflexhookabove;
lastChange = "2015-07-19 17:30:24 +0000";
layers = (
{
layerId = "E35F1BB4-987F-4EDF-94B4-0283FA17DEFF";
name = Regular;
paths = (
{
closed = 1;
nodes = (
"364 -8 OFFCURVE",
"428 -2 OFFCURVE",
"479 13 CURVE",
"460 87 LINE",
"410 75 OFFCURVE",
"346 69 OFFCURVE",
"290 69 CURVE SMOOTH",
"242 69 OFFCURVE",
"201 72 OFFCURVE",
"159 79 CURVE",
"159 270 LINE",
"439 270 LINE",
"439 345 LINE",
"159 345 LINE",
"159 539 LINE",
"468 539 LINE",
"468 616 LINE",
"75 616 LINE",
"75 93 LINE SMOOTH",
"75 13 OFFCURVE",
"167 -8 OFFCURVE",
"287 -8 CURVE SMOOTH"
);
},
{
closed = 1;
nodes = (
"273 759 LINE",
"278 759 LINE",
"359 684 LINE",
"412 695 LINE",
"313 828 LINE",
"238 828 LINE",
"138 695 LINE",
"189 684 LINE"
);
},
{
closed = 1;
nodes = (
"436 795 LINE",
"436 827 LINE",
"477 827 OFFCURVE",
"499 845 OFFCURVE",
"499 882 CURVE SMOOTH",
"499 921 OFFCURVE",
"479 941 OFFCURVE",
"431 941 CURVE SMOOTH",
"411 941 OFFCURVE",
"390 937 OFFCURVE",
"370 929 CURVE",
"381 890 LINE",
"394 896 OFFCURVE",
"411 899 OFFCURVE",
"424 899 CURVE SMOOTH",
"442 899 OFFCURVE",
"449 893 OFFCURVE",
"449 881 CURVE SMOOTH",
"449 866 OFFCURVE",
"433 861 OFFCURVE",
"390 861 CURVE",
"390 831 LINE",
"399 795 LINE"
);
}
);
width = 539;
}
);
note = Ecircumflexhookabove;
rightKerningGroup = E;
unicode = 1EC2;
},
{
glyphname = Ecircumflextilde;
lastChange = "2015-07-19 17:30:24 +0000";
layers = (
{
layerId = "E35F1BB4-987F-4EDF-94B4-0283FA17DEFF";
name = Regular;
paths = (
{
closed = 1;
nodes = (
"364 -8 OFFCURVE",
"428 -2 OFFCURVE",
"479 13 CURVE",
"460 87 LINE",
"410 75 OFFCURVE",
"346 69 OFFCURVE",
"290 69 CURVE SMOOTH",
"242 69 OFFCURVE",
"201 72 OFFCURVE",
"159 79 CURVE",
"159 270 LINE",
"439 270 LINE",
"439 345 LINE",
"159 345 LINE",
"159 539 LINE",
"468 539 LINE",
"468 616 LINE",
"75 616 LINE",
"75 93 LINE SMOOTH",
"75 13 OFFCURVE",
"167 -8 OFFCURVE",
"287 -8 CURVE SMOOTH"
);
},
{
closed = 1;
nodes = (
"270 759 LINE",
"275 759 LINE",
"356 684 LINE",
"409 695 LINE",
"310 828 LINE",
"235 828 LINE",
"135 695 LINE",
"186 684 LINE"
);
},
{
closed = 1;
nodes = (
"197 892 OFFCURVE",
"207 907 OFFCURVE",
"229 907 CURVE SMOOTH",
"257 907 OFFCURVE",
"285 874 OFFCURVE",
"323 874 CURVE SMOOTH",
"368 874 OFFCURVE",
"390 899 OFFCURVE",
"393 952 CURVE",
"349 967 LINE",
"346 945 OFFCURVE",
"336 930 OFFCURVE",
"314 930 CURVE SMOOTH",
"291 930 OFFCURVE",
"254 963 OFFCURVE",
"220 963 CURVE SMOOTH",
"175 963 OFFCURVE",
"153 938 OFFCURVE",
"150 885 CURVE",
"194 871 LINE"
);
}
);
width = 539;
}
);
note = Ecircumflextilde;
rightKerningGroup = E;
unicode = 1EC4;
},
{
glyphname = Edieresis;
lastChange = "2015-07-19 17:30:24 +0000";
layers = (
{
layerId = "E35F1BB4-987F-4EDF-94B4-0283FA17DEFF";
name = Regular;
paths = (
{
closed = 1;
nodes = (
"364 -8 OFFCURVE",
"428 -2 OFFCURVE",
"479 13 CURVE",
"460 87 LINE",
"410 75 OFFCURVE",
"346 69 OFFCURVE",
"290 69 CURVE SMOOTH",
"242 69 OFFCURVE",
"201 72 OFFCURVE",
"159 79 CURVE",
"159 270 LINE",
"439 270 LINE",
"439 345 LINE",
"159 345 LINE",
"159 539 LINE",
"468 539 LINE",
"468 616 LINE",
"75 616 LINE",
"75 93 LINE SMOOTH",
"75 13 OFFCURVE",
"167 -8 OFFCURVE",
"287 -8 CURVE SMOOTH"
);
},
{
closed = 1;
nodes = (
"234 691 OFFCURVE",
"251 707 OFFCURVE",
"251 734 CURVE SMOOTH",
"251 762 OFFCURVE",
"234 778 OFFCURVE",
"205 778 CURVE SMOOTH",
"177 778 OFFCURVE",
"159 762 OFFCURVE",
"159 734 CURVE SMOOTH",
"159 707 OFFCURVE",
"177 691 OFFCURVE",
"205 691 CURVE SMOOTH"
);
},
{
closed = 1;
nodes = (
"392 691 OFFCURVE",
"409 707 OFFCURVE",
"409 734 CURVE SMOOTH",
"409 762 OFFCURVE",
"392 778 OFFCURVE",
"363 778 CURVE SMOOTH",
"334 778 OFFCURVE",
"316 762 OFFCURVE",
"316 734 CURVE SMOOTH",
"316 707 OFFCURVE",
"334 691 OFFCURVE",
"363 691 CURVE SMOOTH"
);
}
);
width = 539;
}
);
note = Edieresis;
rightKerningGroup = E;
unicode = 00CB;
},
{
glyphname = Edotaccent;
lastChange = "2015-07-19 17:30:24 +0000";
layers = (
{
layerId = "E35F1BB4-987F-4EDF-94B4-0283FA17DEFF";
name = Regular;
paths = (
{
closed = 1;
nodes = (
"364 -8 OFFCURVE",
"428 -2 OFFCURVE",
"479 13 CURVE",
"460 87 LINE",
"410 75 OFFCURVE",
"346 69 OFFCURVE",
"290 69 CURVE SMOOTH",
"242 69 OFFCURVE",
"201 72 OFFCURVE",
"159 79 CURVE",
"159 270 LINE",
"439 270 LINE",
"439 345 LINE",
"159 345 LINE",
"159 539 LINE",
"468 539 LINE",
"468 616 LINE",
"75 616 LINE",
"75 93 LINE SMOOTH",
"75 13 OFFCURVE",
"167 -8 OFFCURVE",
"287 -8 CURVE SMOOTH"
);
},
{
closed = 1;
nodes = (
"322 691 OFFCURVE",
"344 712 OFFCURVE",
"344 747 CURVE SMOOTH",
"344 784 OFFCURVE",
"322 805 OFFCURVE",
"284 805 CURVE SMOOTH",
"246 805 OFFCURVE",
"224 784 OFFCURVE",
"224 747 CURVE SMOOTH",
"224 712 OFFCURVE",
"246 691 OFFCURVE",
"284 691 CURVE SMOOTH"
);
}
);
width = 539;
}
);
note = Edotaccent;
rightKerningGroup = E;
unicode = 0116;
},
{
glyphname = Edotbelow;
lastChange = "2015-07-19 17:30:24 +0000";
layers = (
{
layerId = "E35F1BB4-987F-4EDF-94B4-0283FA17DEFF";
name = Regular;
paths = (
{
closed = 1;
nodes = (
"364 -8 OFFCURVE",
"428 -2 OFFCURVE",
"479 13 CURVE",
"460 87 LINE",
"410 75 OFFCURVE",
"346 69 OFFCURVE",
"290 69 CURVE SMOOTH",
"242 69 OFFCURVE",
"201 72 OFFCURVE",
"159 79 CURVE",
"159 270 LINE",
"439 270 LINE",
"439 345 LINE",
"159 345 LINE",
"159 539 LINE",
"468 539 LINE",
"468 616 LINE",
"75 616 LINE",
"75 93 LINE SMOOTH",
"75 13 OFFCURVE",
"167 -8 OFFCURVE",
"287 -8 CURVE SMOOTH"
);
},
{
closed = 1;
nodes = (
"325 -179 OFFCURVE",
"347 -158 OFFCURVE",
"347 -123 CURVE SMOOTH",
"347 -86 OFFCURVE",
"325 -65 OFFCURVE",
"287 -65 CURVE SMOOTH",
"249 -65 OFFCURVE",
"227 -86 OFFCURVE",
"227 -123 CURVE SMOOTH",
"227 -158 OFFCURVE",
"249 -179 OFFCURVE",
"287 -179 CURVE SMOOTH"
);
}
);
width = 539;
}
);
note = Edotbelow;
rightKerningGroup = E;
unicode = 1EB8;
},
{
glyphname = Egrave;
lastChange = "2015-07-19 17:30:24 +0000";
layers = (
{
layerId = "E35F1BB4-987F-4EDF-94B4-0283FA17DEFF";
name = Regular;
paths = (
{
closed = 1;
nodes = (
"364 -8 OFFCURVE",
"428 -2 OFFCURVE",
"479 13 CURVE",
"460 87 LINE",
"410 75 OFFCURVE",
"346 69 OFFCURVE",
"290 69 CURVE SMOOTH",
"242 69 OFFCURVE",
"201 72 OFFCURVE",
"159 79 CURVE",
"159 270 LINE",
"439 270 LINE",
"439 345 LINE",
"159 345 LINE",
"159 539 LINE",
"468 539 LINE",
"468 616 LINE",
"75 616 LINE",
"75 93 LINE SMOOTH",
"75 13 OFFCURVE",
"167 -8 OFFCURVE",
"287 -8 CURVE SMOOTH"
);
},
{
closed = 1;
nodes = (
"341 696 LINE",
"258 841 LINE",
"152 830 LINE",
"277 686 LINE"
);
}
);
width = 539;
}
);
note = Egrave;
rightKerningGroup = E;
unicode = 00C8;
},
{
glyphname = Ehookabove;
lastChange = "2015-07-19 17:30:24 +0000";
layers = (
{
layerId = "E35F1BB4-987F-4EDF-94B4-0283FA17DEFF";
name = Regular;
paths = (
{
closed = 1;
nodes = (
"364 -8 OFFCURVE",
"428 -2 OFFCURVE",
"479 13 CURVE",
"460 87 LINE",
"410 75 OFFCURVE",
"346 69 OFFCURVE",
"290 69 CURVE SMOOTH",
"242 69 OFFCURVE",
"201 72 OFFCURVE",
"159 79 CURVE",
"159 270 LINE",
"439 270 LINE",
"439 345 LINE",
"159 345 LINE",
"159 539 LINE",
"468 539 LINE",
"468 616 LINE",
"75 616 LINE",
"75 93 LINE SMOOTH",
"75 13 OFFCURVE",
"167 -8 OFFCURVE",
"287 -8 CURVE SMOOTH"
);
},
{
closed = 1;
nodes = (
"297 696 LINE",
"297 737 LINE",
"354 737 OFFCURVE",
"391 758 OFFCURVE",
"391 811 CURVE SMOOTH",
"391 857 OFFCURVE",
"363 890 OFFCURVE",
"297 890 CURVE SMOOTH",
"269 890 OFFCURVE",
"239 885 OFFCURVE",
"211 872 CURVE",
"227 827 LINE",
"245 834 OFFCURVE",
"268 838 OFFCURVE",
"286 838 CURVE SMOOTH",
"316 838 OFFCURVE",
"329 832 OFFCURVE",
"329 809 CURVE SMOOTH",
"329 780 OFFCURVE",
"301 780 OFFCURVE",
"239 780 CURVE",
"239 745 LINE",
"252 696 LINE"
);
}
);
width = 539;
}
);
note = Ehookabove;
rightKerningGroup = E;
unicode = 1EBA;
},
{
glyphname = Emacron;
lastChange = "2015-07-19 17:30:24 +0000";
layers = (
{
layerId = "E35F1BB4-987F-4EDF-94B4-0283FA17DEFF";
name = Regular;
paths = (
{
closed = 1;
nodes = (
"364 -8 OFFCURVE",
"428 -2 OFFCURVE",
"479 13 CURVE",
"460 87 LINE",
"410 75 OFFCURVE",
"346 69 OFFCURVE",
"290 69 CURVE SMOOTH",
"242 69 OFFCURVE",
"201 72 OFFCURVE",
"159 79 CURVE",
"159 270 LINE",
"439 270 LINE",
"439 345 LINE",
"159 345 LINE",
"159 539 LINE",
"468 539 LINE",
"468 616 LINE",
"75 616 LINE",
"75 93 LINE SMOOTH",
"75 13 OFFCURVE",
"167 -8 OFFCURVE",
"287 -8 CURVE SMOOTH"
);
},
{
closed = 1;
nodes = (
"427 697 LINE",
"427 767 LINE",
"121 767 LINE",
"121 697 LINE"
);
}
);
width = 539;
}
);
note = Emacron;
rightKerningGroup = E;
unicode = 0112;
},
{
glyphname = Eogonek;
lastChange = "2015-07-19 17:30:24 +0000";
layers = (
{
layerId = "E35F1BB4-987F-4EDF-94B4-0283FA17DEFF";
name = Regular;
paths = (
{
closed = 1;
nodes = (
"475 -156 OFFCURVE",
"495 -152 OFFCURVE",
"512 -145 CURVE",
"498 -91 LINE",
"484 -95 OFFCURVE",
"471 -96 OFFCURVE",
"457 -96 CURVE SMOOTH",
"443 -96 OFFCURVE",
"429 -95 OFFCURVE",
"419 -92 CURVE",
"417 -86 OFFCURVE",
"416 -78 OFFCURVE",
"416 -70 CURVE SMOOTH",
"416 -43 OFFCURVE",
"423 -23 OFFCURVE",
"456 0 CURVE",
"465 4 OFFCURVE",
"476 9 OFFCURVE",
"480 11 CURVE",
"460 87 LINE",
"410 75 OFFCURVE",
"346 69 OFFCURVE",
"290 69 CURVE SMOOTH",
"242 69 OFFCURVE",
"201 72 OFFCURVE",
"159 79 CURVE",
"159 270 LINE",
"439 270 LINE",
"439 345 LINE",
"159 345 LINE",
"159 539 LINE",
"468 539 LINE",
"468 616 LINE",
"75 616 LINE",
"75 93 LINE SMOOTH",
"75 13 OFFCURVE",
"167 -8 OFFCURVE",
"287 -8 CURVE SMOOTH",
"321 -8 OFFCURVE",
"352 -6 OFFCURVE",
"381 -4 CURVE",
"358 -21 OFFCURVE",
"343 -43 OFFCURVE",
"343 -76 CURVE SMOOTH",
"343 -129 OFFCURVE",
"385 -156 OFFCURVE",
"447 -156 CURVE SMOOTH"
);
}
);
width = 539;
}
);
note = Eogonek;
rightKerningGroup = E;
unicode = 0118;
},
{
glyphname = Etilde;
lastChange = "2015-07-19 17:30:24 +0000";
layers = (
{
layerId = "E35F1BB4-987F-4EDF-94B4-0283FA17DEFF";
name = Regular;
paths = (
{
closed = 1;
nodes = (
"364 -8 OFFCURVE",
"428 -2 OFFCURVE",
"479 13 CURVE",
"460 87 LINE",
"410 75 OFFCURVE",
"346 69 OFFCURVE",
"290 69 CURVE SMOOTH",
"242 69 OFFCURVE",
"201 72 OFFCURVE",
"159 79 CURVE",
"159 270 LINE",
"439 270 LINE",
"439 345 LINE",
"159 345 LINE",
"159 539 LINE",
"468 539 LINE",
"468 616 LINE",
"75 616 LINE",
"75 93 LINE SMOOTH",
"75 13 OFFCURVE",
"167 -8 OFFCURVE",
"287 -8 CURVE SMOOTH"
);
},
{
closed = 1;
nodes = (
"189 708 OFFCURVE",
"199 727 OFFCURVE",
"226 727 CURVE SMOOTH",
"261 727 OFFCURVE",
"288 686 OFFCURVE",
"335 686 CURVE SMOOTH",
"390 686 OFFCURVE",
"415 717 OFFCURVE",
"419 782 CURVE",
"364 800 LINE",
"361 774 OFFCURVE",
"351 755 OFFCURVE",
"324 755 CURVE SMOOTH",
"295 755 OFFCURVE",
"257 796 OFFCURVE",
"215 796 CURVE SMOOTH",
"160 796 OFFCURVE",
"135 765 OFFCURVE",
"131 700 CURVE",
"186 682 LINE"
);
}
);
width = 539;
}
);
note = Etilde;
rightKerningGroup = E;
unicode = 1EBC;
},
{
glyphname = F;
lastChange = "2015-07-19 15:35:20 +0000";
layers = (
{
layerId = "E35F1BB4-987F-4EDF-94B4-0283FA17DEFF";
name = Regular;
paths = (
{
closed = 1;
nodes = (
"160 0 LINE",
"160 270 LINE",
"425 270 LINE",
"425 345 LINE",
"160 345 LINE",
"160 539 LINE",
"476 539 LINE",
"476 616 LINE",
"75 616 LINE",
"75 0 LINE"
);
}
);
width = 516;
}
);
note = F;
unicode = 0046;
},
{
glyphname = G;
lastChange = "2015-07-19 17:49:50 +0000";
layers = (
{
layerId = "E35F1BB4-987F-4EDF-94B4-0283FA17DEFF";
name = Regular;
paths = (
{
closed = 1;
nodes = (
"448 -8 OFFCURVE",
"540 50 OFFCURVE",
"540 134 CURVE SMOOTH",
"540 298 LINE",
"499 332 LINE",
"312 332 LINE",
"312 257 LINE",
"456 257 LINE",
"456 82 LINE",
"424 74 OFFCURVE",
"387 70 OFFCURVE",
"337 70 CURVE SMOOTH",
"204 70 OFFCURVE",
"139 137 OFFCURVE",
"139 295 CURVE SMOOTH",
"139 385 OFFCURVE",
"164 474 OFFCURVE",
"199 536 CURVE",
"241 545 OFFCURVE",
"292 548 OFFCURVE",
"330 548 CURVE SMOOTH",
"375 548 OFFCURVE",
"425 544 OFFCURVE",
"447 539 CURVE",
"457 460 LINE",
"516 460 LINE",
"524 479 OFFCURVE",
"529 503 OFFCURVE",
"529 529 CURVE SMOOTH",
"529 585 LINE",
"496 607 OFFCURVE",
"414 626 OFFCURVE",
"331 626 CURVE SMOOTH",
"140 626 OFFCURVE",
"54 495 OFFCURVE",
"54 289 CURVE SMOOTH",
"54 95 OFFCURVE",
"151 -8 OFFCURVE",
"324 -8 CURVE SMOOTH"
);
}
);
width = 598;
}
);
leftKerningGroup = G;
note = G;
rightKerningGroup = G;
unicode = 0047;
},
{
glyphname = Gbreve;
lastChange = "2015-07-19 17:32:05 +0000";
layers = (
{
layerId = "E35F1BB4-987F-4EDF-94B4-0283FA17DEFF";
name = Regular;
paths = (
{
closed = 1;
nodes = (
"448 -8 OFFCURVE",
"540 50 OFFCURVE",
"540 134 CURVE SMOOTH",
"540 298 LINE",
"499 332 LINE",
"312 332 LINE",
"312 257 LINE",
"456 257 LINE",
"456 82 LINE",
"424 74 OFFCURVE",
"387 70 OFFCURVE",
"337 70 CURVE SMOOTH",
"204 70 OFFCURVE",
"139 137 OFFCURVE",
"139 295 CURVE SMOOTH",
"139 385 OFFCURVE",
"164 474 OFFCURVE",
"199 536 CURVE",
"241 545 OFFCURVE",
"292 548 OFFCURVE",
"330 548 CURVE SMOOTH",
"375 548 OFFCURVE",
"425 544 OFFCURVE",
"447 539 CURVE",
"457 460 LINE",
"516 460 LINE",
"524 479 OFFCURVE",
"529 503 OFFCURVE",
"529 529 CURVE SMOOTH",
"529 585 LINE",
"496 607 OFFCURVE",
"414 626 OFFCURVE",
"331 626 CURVE SMOOTH",
"140 626 OFFCURVE",
"54 495 OFFCURVE",
"54 289 CURVE SMOOTH",
"54 95 OFFCURVE",
"151 -8 OFFCURVE",
"324 -8 CURVE SMOOTH"
);
},
{
closed = 1;
nodes = (
"404 691 OFFCURVE",
"446 735 OFFCURVE",
"454 804 CURVE",
"377 816 LINE",
"374 777 OFFCURVE",
"365 755 OFFCURVE",
"319 755 CURVE SMOOTH",
"273 755 OFFCURVE",
"264 777 OFFCURVE",
"261 816 CURVE",
"184 804 LINE",
"192 735 OFFCURVE",
"234 691 OFFCURVE",
"319 691 CURVE SMOOTH"
);
}
);
width = 598;
}
);
leftKerningGroup = G;
note = Gbreve;
rightKerningGroup = G;
unicode = 011E;
},
{
glyphname = Gcaron;
lastChange = "2015-07-19 17:32:05 +0000";
layers = (
{
layerId = "E35F1BB4-987F-4EDF-94B4-0283FA17DEFF";
name = Regular;
paths = (
{
closed = 1;
nodes = (
"448 -8 OFFCURVE",
"540 50 OFFCURVE",
"540 134 CURVE SMOOTH",
"540 298 LINE",
"499 332 LINE",
"312 332 LINE",
"312 257 LINE",
"456 257 LINE",
"456 82 LINE",
"424 74 OFFCURVE",
"387 70 OFFCURVE",
"337 70 CURVE SMOOTH",
"204 70 OFFCURVE",
"139 137 OFFCURVE",
"139 295 CURVE SMOOTH",
"139 385 OFFCURVE",
"164 474 OFFCURVE",
"199 536 CURVE",
"241 545 OFFCURVE",
"292 548 OFFCURVE",
"330 548 CURVE SMOOTH",
"375 548 OFFCURVE",
"425 544 OFFCURVE",
"447 539 CURVE",
"457 460 LINE",
"516 460 LINE",
"524 479 OFFCURVE",
"529 503 OFFCURVE",
"529 529 CURVE SMOOTH",
"529 585 LINE",
"496 607 OFFCURVE",
"414 626 OFFCURVE",
"331 626 CURVE SMOOTH",
"140 626 OFFCURVE",
"54 495 OFFCURVE",
"54 289 CURVE SMOOTH",
"54 95 OFFCURVE",
"151 -8 OFFCURVE",
"324 -8 CURVE SMOOTH"
);
},
{
closed = 1;
nodes = (
"340 696 LINE",
"439 829 LINE",
"386 840 LINE",
"305 765 LINE",
"300 765 LINE",
"216 840 LINE",
"165 829 LINE",
"265 696 LINE"
);
}
);
width = 598;
}
);
leftKerningGroup = G;
note = Gcaron;
rightKerningGroup = G;
unicode = 01E6;
},
{
glyphname = Gcircumflex;
lastChange = "2015-07-19 17:32:05 +0000";
layers = (
{
layerId = "E35F1BB4-987F-4EDF-94B4-0283FA17DEFF";
name = Regular;
paths = (
{
closed = 1;
nodes = (
"448 -8 OFFCURVE",
"540 50 OFFCURVE",
"540 134 CURVE SMOOTH",
"540 298 LINE",
"499 332 LINE",
"312 332 LINE",
"312 257 LINE",
"456 257 LINE",
"456 82 LINE",
"424 74 OFFCURVE",
"387 70 OFFCURVE",
"337 70 CURVE SMOOTH",
"204 70 OFFCURVE",
"139 137 OFFCURVE",
"139 295 CURVE SMOOTH",
"139 385 OFFCURVE",
"164 474 OFFCURVE",
"199 536 CURVE",
"241 545 OFFCURVE",
"292 548 OFFCURVE",
"330 548 CURVE SMOOTH",
"375 548 OFFCURVE",
"425 544 OFFCURVE",
"447 539 CURVE",
"457 460 LINE",
"516 460 LINE",
"524 479 OFFCURVE",
"529 503 OFFCURVE",
"529 529 CURVE SMOOTH",
"529 585 LINE",
"496 607 OFFCURVE",
"414 626 OFFCURVE",
"331 626 CURVE SMOOTH",
"140 626 OFFCURVE",
"54 495 OFFCURVE",
"54 289 CURVE SMOOTH",
"54 95 OFFCURVE",
"151 -8 OFFCURVE",
"324 -8 CURVE SMOOTH"
);
},
{
closed = 1;
nodes = (
"310 759 LINE",
"315 759 LINE",
"396 684 LINE",
"449 695 LINE",
"350 828 LINE",
"275 828 LINE",
"175 695 LINE",
"226 684 LINE"
);
}
);
width = 598;
}
);
leftKerningGroup = G;
note = Gcircumflex;
rightKerningGroup = G;
unicode = 011C;
},
{
glyphname = Gcommaaccent;
lastChange = "2015-07-19 17:32:05 +0000";
layers = (
{
layerId = "E35F1BB4-987F-4EDF-94B4-0283FA17DEFF";
name = Regular;
paths = (
{
closed = 1;
nodes = (
"448 -8 OFFCURVE",
"540 50 OFFCURVE",
"540 134 CURVE SMOOTH",
"540 298 LINE",
"499 332 LINE",
"312 332 LINE",
"312 257 LINE",
"456 257 LINE",
"456 82 LINE",
"424 74 OFFCURVE",
"387 70 OFFCURVE",
"337 70 CURVE SMOOTH",
"204 70 OFFCURVE",
"139 137 OFFCURVE",
"139 295 CURVE SMOOTH",
"139 385 OFFCURVE",
"164 474 OFFCURVE",
"199 536 CURVE",
"241 545 OFFCURVE",
"292 548 OFFCURVE",
"330 548 CURVE SMOOTH",
"375 548 OFFCURVE",
"425 544 OFFCURVE",
"447 539 CURVE",
"457 460 LINE",
"516 460 LINE",
"524 479 OFFCURVE",
"529 503 OFFCURVE",
"529 529 CURVE SMOOTH",
"529 585 LINE",
"496 607 OFFCURVE",
"414 626 OFFCURVE",
"331 626 CURVE SMOOTH",
"140 626 OFFCURVE",
"54 495 OFFCURVE",
"54 289 CURVE SMOOTH",
"54 95 OFFCURVE",
"151 -8 OFFCURVE",
"324 -8 CURVE SMOOTH"
);
},
{
closed = 1;
nodes = (
"370 -229 OFFCURVE",
"389 -183 OFFCURVE",
"389 -142 CURVE SMOOTH",
"389 -94 OFFCURVE",
"369 -70 OFFCURVE",
"323 -70 CURVE SMOOTH",
"307 -70 OFFCURVE",
"289 -73 OFFCURVE",
"273 -79 CURVE",
"273 -135 LINE",
"326 -135 LINE",
"326 -175 OFFCURVE",
"313 -213 OFFCURVE",
"292 -252 CURVE",
"341 -263 LINE"
);
}
);
width = 598;
}
);
leftKerningGroup = G;
note = Gcommaaccent;
rightKerningGroup = G;
unicode = 0122;
},
{
glyphname = Gdotaccent;
lastChange = "2015-07-19 17:32:05 +0000";
layers = (
{
layerId = "E35F1BB4-987F-4EDF-94B4-0283FA17DEFF";
name = Regular;
paths = (
{
closed = 1;
nodes = (
"448 -8 OFFCURVE",
"540 50 OFFCURVE",
"540 134 CURVE SMOOTH",
"540 298 LINE",
"499 332 LINE",
"312 332 LINE",
"312 257 LINE",
"456 257 LINE",
"456 82 LINE",
"424 74 OFFCURVE",
"387 70 OFFCURVE",
"337 70 CURVE SMOOTH",
"204 70 OFFCURVE",
"139 137 OFFCURVE",
"139 295 CURVE SMOOTH",
"139 385 OFFCURVE",
"164 474 OFFCURVE",
"199 536 CURVE",
"241 545 OFFCURVE",
"292 548 OFFCURVE",
"330 548 CURVE SMOOTH",
"375 548 OFFCURVE",
"425 544 OFFCURVE",
"447 539 CURVE",
"457 460 LINE",
"516 460 LINE",
"524 479 OFFCURVE",
"529 503 OFFCURVE",
"529 529 CURVE SMOOTH",
"529 585 LINE",
"496 607 OFFCURVE",
"414 626 OFFCURVE",
"331 626 CURVE SMOOTH",
"140 626 OFFCURVE",
"54 495 OFFCURVE",
"54 289 CURVE SMOOTH",
"54 95 OFFCURVE",
"151 -8 OFFCURVE",
"324 -8 CURVE SMOOTH"
);
},
{
closed = 1;
nodes = (
"360 691 OFFCURVE",
"382 712 OFFCURVE",
"382 747 CURVE SMOOTH",
"382 784 OFFCURVE",
"360 805 OFFCURVE",
"322 805 CURVE SMOOTH",
"284 805 OFFCURVE",
"262 784 OFFCURVE",
"262 747 CURVE SMOOTH",
"262 712 OFFCURVE",
"284 691 OFFCURVE",
"322 691 CURVE SMOOTH"
);
}
);
width = 598;
}
);
leftKerningGroup = G;
note = Gdotaccent;
rightKerningGroup = G;
unicode = 0120;
},
{
glyphname = Gmacron;
lastChange = "2015-07-19 17:32:05 +0000";
layers = (
{
layerId = "E35F1BB4-987F-4EDF-94B4-0283FA17DEFF";
name = Regular;
paths = (
{
closed = 1;
nodes = (
"448 -8 OFFCURVE",
"540 50 OFFCURVE",
"540 134 CURVE SMOOTH",
"540 298 LINE",
"499 332 LINE",
"312 332 LINE",
"312 257 LINE",
"456 257 LINE",
"456 82 LINE",
"424 74 OFFCURVE",
"387 70 OFFCURVE",
"337 70 CURVE SMOOTH",
"204 70 OFFCURVE",
"139 137 OFFCURVE",
"139 295 CURVE SMOOTH",
"139 385 OFFCURVE",
"164 474 OFFCURVE",
"199 536 CURVE",
"241 545 OFFCURVE",
"292 548 OFFCURVE",
"330 548 CURVE SMOOTH",
"375 548 OFFCURVE",
"425 544 OFFCURVE",
"447 539 CURVE",
"457 460 LINE",
"516 460 LINE",
"524 479 OFFCURVE",
"529 503 OFFCURVE",
"529 529 CURVE SMOOTH",
"529 585 LINE",
"496 607 OFFCURVE",
"414 626 OFFCURVE",
"331 626 CURVE SMOOTH",
"140 626 OFFCURVE",
"54 495 OFFCURVE",
"54 289 CURVE SMOOTH",
"54 95 OFFCURVE",
"151 -8 OFFCURVE",
"324 -8 CURVE SMOOTH"
);
},
{
closed = 1;
nodes = (
"463 696 LINE",
"463 766 LINE",
"157 766 LINE",
"157 696 LINE"
);
}
);
width = 598;
}
);
leftKerningGroup = G;
note = Gmacron;
rightKerningGroup = G;
unicode = 1E20;
},
{
glyphname = H;
lastChange = "2015-07-19 15:35:20 +0000";
layers = (
{
layerId = "E35F1BB4-987F-4EDF-94B4-0283FA17DEFF";
name = Regular;
paths = (
{
closed = 1;
nodes = (
"160 0 LINE",
"160 260 LINE",
"440 260 LINE",
"440 0 LINE",
"525 0 LINE",
"525 616 LINE",
"440 616 LINE",
"440 338 LINE",
"160 338 LINE",
"160 616 LINE",
"75 616 LINE",
"75 0 LINE"
);
}
);
width = 600;
}
);
note = H;
unicode = 0048;
},
{
glyphname = Hbar;
lastChange = "2015-07-19 15:35:22 +0000";
layers = (
{
layerId = "E35F1BB4-987F-4EDF-94B4-0283FA17DEFF";
name = Regular;
paths = (
{
closed = 1;
nodes = (
"199 0 LINE",
"199 260 LINE",
"479 260 LINE",
"479 0 LINE",
"564 0 LINE",
"564 436 LINE",
"629 436 LINE",
"629 502 LINE",
"564 502 LINE",
"564 616 LINE",
"479 616 LINE",
"479 502 LINE",
"199 502 LINE",
"199 616 LINE",
"114 616 LINE",
"114 502 LINE",
"50 502 LINE",
"50 436 LINE",
"114 436 LINE",
"114 0 LINE"
);
},
{
closed = 1;
nodes = (
"199 436 LINE",
"479 436 LINE",
"479 338 LINE",
"199 338 LINE"
);
}
);
width = 679;
}
);
note = Hbar;
unicode = 0126;
},
{
glyphname = Hbrevebelow;
lastChange = "2015-07-19 15:35:22 +0000";
layers = (
{
layerId = "E35F1BB4-987F-4EDF-94B4-0283FA17DEFF";
name = Regular;
paths = (
{
closed = 1;
nodes = (
"160 0 LINE",
"160 260 LINE",
"440 260 LINE",
"440 0 LINE",
"525 0 LINE",
"525 616 LINE",
"440 616 LINE",
"440 338 LINE",
"160 338 LINE",
"160 616 LINE",
"75 616 LINE",
"75 0 LINE"
);
},
{
closed = 1;
nodes = (
"385 -195 OFFCURVE",
"427 -151 OFFCURVE",
"435 -82 CURVE",
"358 -70 LINE",
"355 -109 OFFCURVE",
"346 -131 OFFCURVE",
"300 -131 CURVE SMOOTH",
"254 -131 OFFCURVE",
"245 -109 OFFCURVE",
"242 -70 CURVE",
"165 -82 LINE",
"173 -151 OFFCURVE",
"215 -195 OFFCURVE",
"300 -195 CURVE SMOOTH"
);
}
);
width = 600;
}
);
note = Hbrevebelow;
unicode = 1E2A;
},
{
glyphname = Hcircumflex;
lastChange = "2015-07-19 15:35:22 +0000";
layers = (
{
layerId = "E35F1BB4-987F-4EDF-94B4-0283FA17DEFF";
name = Regular;
paths = (
{
closed = 1;
nodes = (
"160 0 LINE",
"160 260 LINE",
"440 260 LINE",
"440 0 LINE",
"525 0 LINE",
"525 616 LINE",
"440 616 LINE",
"440 338 LINE",
"160 338 LINE",
"160 616 LINE",
"75 616 LINE",
"75 0 LINE"
);
},
{
closed = 1;
nodes = (
"298 759 LINE",
"303 759 LINE",
"384 684 LINE",
"437 695 LINE",
"338 828 LINE",
"263 828 LINE",
"163 695 LINE",
"214 684 LINE"
);
}
);
width = 600;
}
);
note = Hcircumflex;
unicode = 0124;
},
{
glyphname = Hdotbelow;
lastChange = "2015-07-19 15:35:22 +0000";
layers = (
{
layerId = "E35F1BB4-987F-4EDF-94B4-0283FA17DEFF";
name = Regular;
paths = (
{
closed = 1;
nodes = (
"160 0 LINE",
"160 260 LINE",
"440 260 LINE",
"440 0 LINE",
"525 0 LINE",
"525 616 LINE",
"440 616 LINE",
"440 338 LINE",
"160 338 LINE",
"160 616 LINE",
"75 616 LINE",
"75 0 LINE"
);
},
{
closed = 1;
nodes = (
"338 -179 OFFCURVE",
"360 -158 OFFCURVE",
"360 -123 CURVE SMOOTH",
"360 -86 OFFCURVE",
"338 -65 OFFCURVE",
"300 -65 CURVE SMOOTH",
"262 -65 OFFCURVE",
"240 -86 OFFCURVE",
"240 -123 CURVE SMOOTH",
"240 -158 OFFCURVE",
"262 -179 OFFCURVE",
"300 -179 CURVE SMOOTH"
);
}
);
width = 600;
}
);
note = Hdotbelow;
unicode = 1E24;
},
{
glyphname = I;
lastChange = "2015-07-19 15:35:20 +0000";
layers = (
{
layerId = "E35F1BB4-987F-4EDF-94B4-0283FA17DEFF";
name = Regular;
paths = (
{
closed = 1;
nodes = (
"163 0 LINE",
"163 616 LINE",
"78 616 LINE",
"78 0 LINE"
);
}
);
width = 241;
}
);
note = I;
unicode = 0049;
},
{
glyphname = IJ;
lastChange = "2015-07-19 15:35:22 +0000";
layers = (
{
layerId = "E35F1BB4-987F-4EDF-94B4-0283FA17DEFF";
name = Regular;
paths = (
{
closed = 1;
nodes = (
"526 -8 OFFCURVE",
"600 42 OFFCURVE",
"600 137 CURVE SMOOTH",
"600 616 LINE",
"516 616 LINE",
"516 141 LINE SMOOTH",
"516 119 OFFCURVE",
"514 101 OFFCURVE",
"509 86 CURVE",
"491 76 OFFCURVE",
"462 68 OFFCURVE",
"422 68 CURVE SMOOTH",
"375 68 OFFCURVE",
"331 79 OFFCURVE",
"299 91 CURVE",
"280 18 LINE",
"317 2 OFFCURVE",
"372 -8 OFFCURVE",
"421 -8 CURVE SMOOTH"
);
},
{
closed = 1;
nodes = (
"163 0 LINE",
"163 616 LINE",
"78 616 LINE",
"78 0 LINE"
);
}
);
width = 673;
}
);
note = IJ;
unicode = 0132;
},
{
glyphname = Iacute;
lastChange = "2015-07-19 15:35:22 +0000";
layers = (
{
layerId = "E35F1BB4-987F-4EDF-94B4-0283FA17DEFF";
name = Regular;
paths = (
{
closed = 1;
nodes = (
"163 0 LINE",
"163 616 LINE",
"78 616 LINE",
"78 0 LINE"
);
},
{
closed = 1;
nodes = (
"270 830 LINE",
"164 841 LINE",
"81 696 LINE",
"145 686 LINE"
);
}
);
width = 242;
}
);
note = Iacute;
unicode = 00CD;
},
{
glyphname = Ibreve;
lastChange = "2015-07-19 15:35:22 +0000";
layers = (
{
layerId = "E35F1BB4-987F-4EDF-94B4-0283FA17DEFF";
name = Regular;
paths = (
{
closed = 1;
nodes = (
"163 0 LINE",
"163 616 LINE",
"78 616 LINE",
"78 0 LINE"
);
},
{
closed = 1;
nodes = (
"206 691 OFFCURVE",
"248 735 OFFCURVE",
"256 804 CURVE",
"179 816 LINE",
"176 777 OFFCURVE",
"167 755 OFFCURVE",
"121 755 CURVE SMOOTH",
"75 755 OFFCURVE",
"66 777 OFFCURVE",
"63 816 CURVE",
"-14 804 LINE",
"-6 735 OFFCURVE",
"36 691 OFFCURVE",
"121 691 CURVE SMOOTH"
);
}
);
width = 242;
}
);
note = Ibreve;
unicode = 012C;
},
{
glyphname = Icaron;
lastChange = "2015-07-19 15:35:22 +0000";
layers = (
{
layerId = "E35F1BB4-987F-4EDF-94B4-0283FA17DEFF";
name = Regular;
paths = (
{
closed = 1;
nodes = (
"163 0 LINE",
"163 616 LINE",
"78 616 LINE",
"78 0 LINE"
);
},
{
closed = 1;
nodes = (
"159 696 LINE",
"258 829 LINE",
"205 840 LINE",
"124 765 LINE",
"119 765 LINE",
"35 840 LINE",
"-16 829 LINE",
"84 696 LINE"
);
}
);
width = 242;
}
);
note = Icaron;
unicode = 01CF;
},
{
glyphname = Icircumflex;
lastChange = "2015-07-19 15:35:22 +0000";
layers = (
{
layerId = "E35F1BB4-987F-4EDF-94B4-0283FA17DEFF";
name = Regular;
paths = (
{
closed = 1;
nodes = (
"163 0 LINE",
"163 616 LINE",
"78 616 LINE",
"78 0 LINE"
);
},
{
closed = 1;
nodes = (
"119 760 LINE",
"124 760 LINE",
"205 685 LINE",
"258 696 LINE",
"159 829 LINE",
"84 829 LINE",
"-16 696 LINE",
"35 685 LINE"
);
}
);
width = 242;
}
);
note = Icircumflex;
unicode = 00CE;
},
{
glyphname = Idieresis;
lastChange = "2015-07-19 15:35:22 +0000";
layers = (
{
layerId = "E35F1BB4-987F-4EDF-94B4-0283FA17DEFF";
name = Regular;
paths = (
{
closed = 1;
nodes = (
"163 0 LINE",
"163 616 LINE",
"78 616 LINE",
"78 0 LINE"
);
},
{
closed = 1;
nodes = (
"71 691 OFFCURVE",
"88 707 OFFCURVE",
"88 734 CURVE SMOOTH",
"88 762 OFFCURVE",
"71 778 OFFCURVE",
"42 778 CURVE SMOOTH",
"14 778 OFFCURVE",
"-4 762 OFFCURVE",
"-4 734 CURVE SMOOTH",
"-4 707 OFFCURVE",
"14 691 OFFCURVE",
"42 691 CURVE SMOOTH"
);
},
{
closed = 1;
nodes = (
"229 691 OFFCURVE",
"246 707 OFFCURVE",
"246 734 CURVE SMOOTH",
"246 762 OFFCURVE",
"229 778 OFFCURVE",
"200 778 CURVE SMOOTH",
"171 778 OFFCURVE",
"153 762 OFFCURVE",
"153 734 CURVE SMOOTH",
"153 707 OFFCURVE",
"171 691 OFFCURVE",
"200 691 CURVE SMOOTH"
);
}
);
width = 242;
}
);
note = Idieresis;
unicode = 00CF;
},
{
glyphname = Idotaccent;
lastChange = "2015-07-19 15:35:21 +0000";
layers = (
{
layerId = "E35F1BB4-987F-4EDF-94B4-0283FA17DEFF";
name = Regular;
paths = (
{
closed = 1;
nodes = (
"163 0 LINE",
"163 616 LINE",
"78 616 LINE",
"78 0 LINE"
);
},
{
closed = 1;
nodes = (
"159 670 OFFCURVE",
"181 691 OFFCURVE",
"181 726 CURVE SMOOTH",
"181 763 OFFCURVE",
"159 784 OFFCURVE",
"121 784 CURVE SMOOTH",
"83 784 OFFCURVE",
"61 763 OFFCURVE",
"61 726 CURVE SMOOTH",
"61 691 OFFCURVE",
"83 670 OFFCURVE",
"121 670 CURVE SMOOTH"
);
}
);
width = 242;
}
);
note = Idotaccent;
unicode = 0130;
},
{
glyphname = Idotbelow;
lastChange = "2015-07-19 16:19:48 +0000";
layers = (
{
layerId = "E35F1BB4-987F-4EDF-94B4-0283FA17DEFF";
name = Regular;
paths = (
{
closed = 1;
nodes = (
"163 0 LINE",
"163 616 LINE",
"78 616 LINE",
"78 0 LINE"
);
},
{
closed = 1;
nodes = (
"159 -179 OFFCURVE",
"181 -158 OFFCURVE",
"181 -123 CURVE SMOOTH",
"181 -86 OFFCURVE",
"159 -65 OFFCURVE",
"121 -65 CURVE SMOOTH",
"83 -65 OFFCURVE",
"61 -86 OFFCURVE",
"61 -123 CURVE SMOOTH",
"61 -158 OFFCURVE",
"83 -179 OFFCURVE",
"121 -179 CURVE SMOOTH"
);
}
);
width = 242;
}
);
note = Idotbelow;
unicode = 1ECA;
},
{
glyphname = Igrave;
lastChange = "2015-07-19 15:35:22 +0000";
layers = (
{
layerId = "E35F1BB4-987F-4EDF-94B4-0283FA17DEFF";
name = Regular;
paths = (
{
closed = 1;
nodes = (
"163 0 LINE",
"163 616 LINE",
"78 616 LINE",
"78 0 LINE"
);
},
{
closed = 1;
nodes = (
"164 696 LINE",
"81 841 LINE",
"-25 830 LINE",
"100 686 LINE"
);
}
);
width = 242;
}
);
note = Igrave;
unicode = 00CC;
},
{
glyphname = Ihookabove;
lastChange = "2015-07-19 16:20:16 +0000";
layers = (
{
layerId = "E35F1BB4-987F-4EDF-94B4-0283FA17DEFF";
name = Regular;
paths = (
{
closed = 1;
nodes = (
"163 0 LINE",
"163 616 LINE",
"78 616 LINE",
"78 0 LINE"
);
},
{
closed = 1;
nodes = (
"140 691 LINE",
"140 732 LINE",
"197 732 OFFCURVE",
"234 753 OFFCURVE",
"234 806 CURVE SMOOTH",
"234 852 OFFCURVE",
"206 885 OFFCURVE",
"140 885 CURVE SMOOTH",
"112 885 OFFCURVE",
"82 880 OFFCURVE",
"54 867 CURVE",
"70 822 LINE",
"88 829 OFFCURVE",
"111 833 OFFCURVE",
"129 833 CURVE SMOOTH",
"159 833 OFFCURVE",
"172 827 OFFCURVE",
"172 804 CURVE SMOOTH",
"172 775 OFFCURVE",
"144 775 OFFCURVE",
"82 775 CURVE",
"82 740 LINE",
"95 691 LINE"
);
}
);
width = 242;
}
);
note = Ihookabove;
unicode = 1EC8;
},
{
glyphname = Imacron;
lastChange = "2015-07-19 15:35:22 +0000";
layers = (
{
layerId = "E35F1BB4-987F-4EDF-94B4-0283FA17DEFF";
name = Regular;
paths = (
{
closed = 1;
nodes = (
"163 0 LINE",
"163 616 LINE",
"78 616 LINE",
"78 0 LINE"
);
},
{
closed = 1;
nodes = (
"274 696 LINE",
"274 766 LINE",
"-32 766 LINE",
"-32 696 LINE"
);
}
);
width = 242;
}
);
note = Imacron;
unicode = 012A;
},
{
glyphname = Iogonek;
lastChange = "2015-07-19 15:35:22 +0000";
layers = (
{
layerId = "E35F1BB4-987F-4EDF-94B4-0283FA17DEFF";
name = Regular;
paths = (
{
closed = 1;
nodes = (
"163 5 LINE",
"163 616 LINE",
"78 616 LINE",
"78 5 LINE"
);
},
{
closed = 1;
nodes = (
"158 -167 OFFCURVE",
"178 -163 OFFCURVE",
"195 -156 CURVE",
"181 -102 LINE",
"167 -106 OFFCURVE",
"154 -107 OFFCURVE",
"140 -107 CURVE SMOOTH",
"126 -107 OFFCURVE",
"112 -106 OFFCURVE",
"102 -103 CURVE",
"100 -97 OFFCURVE",
"99 -89 OFFCURVE",
"99 -81 CURVE SMOOTH",
"99 -44 OFFCURVE",
"119 -22 OFFCURVE",
"163 5 CURVE",
"96 21 LINE",
"65 -8 OFFCURVE",
"26 -33 OFFCURVE",
"26 -87 CURVE SMOOTH",
"26 -140 OFFCURVE",
"68 -167 OFFCURVE",
"130 -167 CURVE SMOOTH"
);
}
);
width = 242;
}
);
note = Iogonek;
unicode = 012E;
},
{
glyphname = Itilde;
lastChange = "2015-07-19 15:35:22 +0000";
layers = (
{
layerId = "E35F1BB4-987F-4EDF-94B4-0283FA17DEFF";
name = Regular;
paths = (
{
closed = 1;
nodes = (
"163 0 LINE",
"163 616 LINE",
"78 616 LINE",
"78 0 LINE"
);
},
{
closed = 1;
nodes = (
"35 709 OFFCURVE",
"45 728 OFFCURVE",
"72 728 CURVE SMOOTH",
"107 728 OFFCURVE",
"134 687 OFFCURVE",
"181 687 CURVE SMOOTH",
"236 687 OFFCURVE",
"261 718 OFFCURVE",
"265 783 CURVE",
"210 801 LINE",
"207 775 OFFCURVE",
"197 756 OFFCURVE",
"170 756 CURVE SMOOTH",
"141 756 OFFCURVE",
"103 797 OFFCURVE",
"61 797 CURVE SMOOTH",
"6 797 OFFCURVE",
"-19 766 OFFCURVE",
"-23 701 CURVE",
"32 683 LINE"
);
}
);
width = 242;
}
);
note = Itilde;
unicode = 0128;
},
{
glyphname = J;
lastChange = "2015-07-19 17:53:49 +0000";
layers = (
{
layerId = "E35F1BB4-987F-4EDF-94B4-0283FA17DEFF";
name = Regular;
paths = (
{
closed = 1;
nodes = (
"276 -8 OFFCURVE",
"350 42 OFFCURVE",
"350 137 CURVE SMOOTH",
"350 616 LINE",
"266 616 LINE",
"266 141 LINE SMOOTH",
"266 119 OFFCURVE",
"264 101 OFFCURVE",
"259 86 CURVE",
"241 76 OFFCURVE",
"212 68 OFFCURVE",
"172 68 CURVE SMOOTH",
"125 68 OFFCURVE",
"81 79 OFFCURVE",
"49 91 CURVE",
"30 18 LINE",
"67 2 OFFCURVE",
"122 -8 OFFCURVE",
"171 -8 CURVE SMOOTH"
);
}
);
width = 423;
}
);
leftKerningGroup = J;
note = J;
unicode = 004A;
},
{
glyphname = Jcircumflex;
lastChange = "2015-07-19 17:52:16 +0000";
layers = (
{
layerId = "E35F1BB4-987F-4EDF-94B4-0283FA17DEFF";
name = Regular;
paths = (
{
closed = 1;
nodes = (
"276 -8 OFFCURVE",
"350 42 OFFCURVE",
"350 137 CURVE SMOOTH",
"350 616 LINE",
"266 616 LINE",
"266 141 LINE SMOOTH",
"266 119 OFFCURVE",
"264 101 OFFCURVE",
"259 86 CURVE",
"241 76 OFFCURVE",
"212 68 OFFCURVE",
"172 68 CURVE SMOOTH",
"125 68 OFFCURVE",
"81 79 OFFCURVE",
"49 91 CURVE",
"30 18 LINE",
"67 2 OFFCURVE",
"122 -8 OFFCURVE",
"171 -8 CURVE SMOOTH"
);
},
{
closed = 1;
nodes = (
"289 759 LINE",
"294 759 LINE",
"375 684 LINE",
"428 695 LINE",
"329 828 LINE",
"254 828 LINE",
"154 695 LINE",
"205 684 LINE"
);
}
);
width = 423;
}
);
leftKerningGroup = J;
note = Jcircumflex;
unicode = 0134;
},
{
glyphname = K;
lastChange = "2015-07-19 15:35:20 +0000";
layers = (
{
layerId = "E35F1BB4-987F-4EDF-94B4-0283FA17DEFF";
name = Regular;
paths = (
{
closed = 1;
nodes = (
"532 -8 OFFCURVE",
"548 -5 OFFCURVE",
"567 1 CURVE",
"567 49 LINE",
"517 58 LINE",
"433 239 LINE SMOOTH",
"414 282 OFFCURVE",
"396 303 OFFCURVE",
"347 317 CURVE",
"347 323 LINE",
"396 339 OFFCURVE",
"415 367 OFFCURVE",
"432 405 CURVE SMOOTH",
"460 467 OFFCURVE",
"487 528 OFFCURVE",
"515 590 CURVE",
"433 622 LINE",
"405 557 OFFCURVE",
"378 493 OFFCURVE",
"350 428 CURVE SMOOTH",
"333 388 OFFCURVE",
"305 359 OFFCURVE",
"235 359 CURVE SMOOTH",
"160 359 LINE",
"160 616 LINE",
"75 616 LINE",
"75 0 LINE",
"160 0 LINE",
"160 282 LINE",
"240 282 LINE SMOOTH",
"310 282 OFFCURVE",
"334 254 OFFCURVE",
"356 204 CURVE SMOOTH",
"430 35 LINE SMOOTH",
"444 4 OFFCURVE",
"466 -8 OFFCURVE",
"501 -8 CURVE SMOOTH"
);
}
);
width = 600;
}
);
note = K;
unicode = 004B;
},
{
glyphname = Kcommaaccent;
lastChange = "2015-07-19 15:35:22 +0000";
layers = (
{
layerId = "E35F1BB4-987F-4EDF-94B4-0283FA17DEFF";
name = Regular;
paths = (
{
closed = 1;
nodes = (
"532 -8 OFFCURVE",
"548 -5 OFFCURVE",
"567 1 CURVE",
"567 49 LINE",
"517 58 LINE",
"433 239 LINE SMOOTH",
"414 282 OFFCURVE",
"396 303 OFFCURVE",
"347 317 CURVE",
"347 323 LINE",
"396 339 OFFCURVE",
"415 367 OFFCURVE",
"432 405 CURVE SMOOTH",
"460 467 OFFCURVE",
"487 528 OFFCURVE",
"515 590 CURVE",
"433 622 LINE",
"405 557 OFFCURVE",
"378 493 OFFCURVE",
"350 428 CURVE SMOOTH",
"333 388 OFFCURVE",
"305 359 OFFCURVE",
"235 359 CURVE SMOOTH",
"160 359 LINE",
"160 616 LINE",
"75 616 LINE",
"75 0 LINE",
"160 0 LINE",
"160 282 LINE",
"240 282 LINE SMOOTH",
"310 282 OFFCURVE",
"334 254 OFFCURVE",
"356 204 CURVE SMOOTH",
"430 35 LINE SMOOTH",
"444 4 OFFCURVE",
"466 -8 OFFCURVE",
"501 -8 CURVE SMOOTH"
);
},
{
closed = 1;
nodes = (
"352 -229 OFFCURVE",
"371 -183 OFFCURVE",
"371 -142 CURVE SMOOTH",
"371 -94 OFFCURVE",
"351 -70 OFFCURVE",
"305 -70 CURVE SMOOTH",
"289 -70 OFFCURVE",
"271 -73 OFFCURVE",
"255 -79 CURVE",
"255 -135 LINE",
"308 -135 LINE",
"308 -175 OFFCURVE",
"295 -213 OFFCURVE",
"274 -252 CURVE",
"323 -263 LINE"
);
}
);
width = 600;
}
);
note = Kcommaaccent;
unicode = 0136;
},
{
glyphname = L;
lastChange = "2015-07-19 17:32:14 +0000";
layers = (
{
layerId = "E35F1BB4-987F-4EDF-94B4-0283FA17DEFF";
name = Regular;
paths = (
{
closed = 1;
nodes = (
"433 0 LINE",
"433 78 LINE",
"160 78 LINE",
"160 616 LINE",
"75 616 LINE",
"75 0 LINE"
);
}
);
width = 457;
}
);
note = L;
rightKerningGroup = L;
unicode = 004C;
},
{
glyphname = Lacute;
lastChange = "2015-07-19 17:32:14 +0000";
layers = (
{
layerId = "E35F1BB4-987F-4EDF-94B4-0283FA17DEFF";
name = Regular;
paths = (
{
closed = 1;
nodes = (
"433 0 LINE",
"433 78 LINE",
"160 78 LINE",
"160 616 LINE",
"75 616 LINE",
"75 0 LINE"
);
},
{
closed = 1;
nodes = (
"266 828 LINE",
"160 839 LINE",
"77 694 LINE",
"141 684 LINE"
);
}
);
width = 457;
}
);
note = Lacute;
rightKerningGroup = L;
unicode = 0139;
},
{
glyphname = Lcaron;
lastChange = "2015-07-19 17:32:14 +0000";
layers = (
{
layerId = "E35F1BB4-987F-4EDF-94B4-0283FA17DEFF";
name = Regular;
paths = (
{
closed = 1;
nodes = (
"433 0 LINE",
"433 78 LINE",
"160 78 LINE",
"160 616 LINE",
"75 616 LINE",
"75 0 LINE"
);
},
{
closed = 1;
nodes = (
"351 462 OFFCURVE",
"370 508 OFFCURVE",
"370 549 CURVE SMOOTH",
"370 597 OFFCURVE",
"350 621 OFFCURVE",
"304 621 CURVE SMOOTH",
"288 621 OFFCURVE",
"270 618 OFFCURVE",
"254 612 CURVE",
"254 556 LINE",
"307 556 LINE",
"307 516 OFFCURVE",
"294 478 OFFCURVE",
"273 439 CURVE",
"322 428 LINE"
);
}
);
width = 457;
}
);
note = Lcaron;
rightKerningGroup = L;
unicode = 013D;
},
{
glyphname = Lcommaaccent;
lastChange = "2015-07-19 17:32:14 +0000";
layers = (
{
layerId = "E35F1BB4-987F-4EDF-94B4-0283FA17DEFF";
name = Regular;
paths = (
{
closed = 1;
nodes = (
"433 0 LINE",
"433 78 LINE",
"160 78 LINE",
"160 616 LINE",
"75 616 LINE",
"75 0 LINE"
);
},
{
closed = 1;
nodes = (
"314 -229 OFFCURVE",
"333 -183 OFFCURVE",
"333 -142 CURVE SMOOTH",
"333 -94 OFFCURVE",
"313 -70 OFFCURVE",
"267 -70 CURVE SMOOTH",
"251 -70 OFFCURVE",
"233 -73 OFFCURVE",
"217 -79 CURVE",
"217 -135 LINE",
"270 -135 LINE",
"270 -175 OFFCURVE",
"257 -213 OFFCURVE",
"236 -252 CURVE",
"285 -263 LINE"
);
}
);
width = 457;
}
);
note = Lcommaaccent;
rightKerningGroup = L;
unicode = 013B;
},
{
glyphname = Ldot;
lastChange = "2015-07-19 17:32:14 +0000";
layers = (
{
layerId = "E35F1BB4-987F-4EDF-94B4-0283FA17DEFF";
name = Regular;
paths = (
{
closed = 1;
nodes = (
"433 0 LINE",
"433 78 LINE",
"160 78 LINE",
"160 616 LINE",
"75 616 LINE",
"75 0 LINE"
);
},
{
closed = 1;
nodes = (
"338 218 OFFCURVE",
"364 243 OFFCURVE",
"364 276 CURVE SMOOTH",
"364 308 OFFCURVE",
"337 334 OFFCURVE",
"305 334 CURVE SMOOTH",
"273 334 OFFCURVE",
"246 308 OFFCURVE",
"246 276 CURVE SMOOTH",
"246 243 OFFCURVE",
"272 218 OFFCURVE",
"305 218 CURVE SMOOTH"
);
}
);
width = 457;
}
);
note = Ldot;
rightKerningGroup = L;
unicode = 013F;
},
{
glyphname = Ldotbelow;
lastChange = "2015-07-19 17:32:14 +0000";
layers = (
{
layerId = "E35F1BB4-987F-4EDF-94B4-0283FA17DEFF";
name = Regular;
paths = (
{
closed = 1;
nodes = (
"433 0 LINE",
"433 78 LINE",
"160 78 LINE",
"160 616 LINE",
"75 616 LINE",
"75 0 LINE"
);
},
{
closed = 1;
nodes = (
"301 -179 OFFCURVE",
"323 -158 OFFCURVE",
"323 -123 CURVE SMOOTH",
"323 -86 OFFCURVE",
"301 -65 OFFCURVE",
"263 -65 CURVE SMOOTH",
"225 -65 OFFCURVE",
"203 -86 OFFCURVE",
"203 -123 CURVE SMOOTH",
"203 -158 OFFCURVE",
"225 -179 OFFCURVE",
"263 -179 CURVE SMOOTH"
);
}
);
width = 457;
}
);
note = Ldotbelow;
rightKerningGroup = L;
unicode = 1E36;
},
{
glyphname = Ldotbelowmacron;
lastChange = "2015-07-19 17:32:14 +0000";
layers = (
{
layerId = "E35F1BB4-987F-4EDF-94B4-0283FA17DEFF";
name = Regular;
paths = (
{
closed = 1;
nodes = (
"433 0 LINE",
"433 78 LINE",
"160 78 LINE",
"160 616 LINE",
"75 616 LINE",
"75 0 LINE"
);
},
{
closed = 1;
nodes = (
"297 -179 OFFCURVE",
"319 -158 OFFCURVE",
"319 -123 CURVE SMOOTH",
"319 -86 OFFCURVE",
"297 -65 OFFCURVE",
"259 -65 CURVE SMOOTH",
"221 -65 OFFCURVE",
"199 -86 OFFCURVE",
"199 -123 CURVE SMOOTH",
"199 -158 OFFCURVE",
"221 -179 OFFCURVE",
"259 -179 CURVE SMOOTH"
);
},
{
closed = 1;
nodes = (
"271 696 LINE",
"271 766 LINE",
"-35 766 LINE",
"-35 696 LINE"
);
}
);
width = 457;
}
);
note = Ldotbelowmacron;
rightKerningGroup = L;
unicode = 1E38;
},
{
glyphname = Llinebelow;
lastChange = "2015-07-19 17:32:14 +0000";
layers = (
{
layerId = "E35F1BB4-987F-4EDF-94B4-0283FA17DEFF";
name = Regular;
paths = (
{
closed = 1;
nodes = (
"433 0 LINE",
"433 78 LINE",
"160 78 LINE",
"160 616 LINE",
"75 616 LINE",
"75 0 LINE"
);
},
{
closed = 1;
nodes = (
"385 -145 LINE",
"385 -70 LINE",
"75 -70 LINE",
"75 -145 LINE"
);
}
);
width = 457;
}
);
note = Llinebelow;
rightKerningGroup = L;
unicode = 1E3A;
},
{
glyphname = Lslash;
lastChange = "2015-07-19 17:32:14 +0000";
layers = (
{
layerId = "E35F1BB4-987F-4EDF-94B4-0283FA17DEFF";
name = Regular;
paths = (
{
closed = 1;
nodes = (
"465 0 LINE",
"465 78 LINE",
"192 78 LINE",
"192 278 LINE",
"323 319 LINE",
"304 380 LINE",
"192 345 LINE",
"192 616 LINE",
"107 616 LINE",
"107 318 LINE",
"0 284 LINE",
"19 223 LINE",
"107 251 LINE",
"107 0 LINE"
);
}
);
width = 489;
}
);
note = Lslash;
rightKerningGroup = L;
unicode = 0141;
},
{
glyphname = M;
lastChange = "2015-07-19 15:35:20 +0000";
layers = (
{
layerId = "E35F1BB4-987F-4EDF-94B4-0283FA17DEFF";
name = Regular;
paths = (
{
closed = 1;
nodes = (
"154 0 LINE",
"166 318 LINE",
"166 467 LINE",
"174 469 LINE",
"313 181 LINE",
"381 181 LINE",
"520 469 LINE",
"528 467 LINE",
"528 318 LINE",
"540 0 LINE",
"626 0 LINE",
"602 616 LINE",
"507 616 LINE",
"351 268 LINE",
"343 268 LINE",
"187 616 LINE",
"92 616 LINE",
"68 0 LINE"
);
}
);
width = 694;
}
);
note = M;
unicode = 004D;
},
{
glyphname = Mdotbelow;
lastChange = "2015-07-19 15:35:22 +0000";
layers = (
{
layerId = "E35F1BB4-987F-4EDF-94B4-0283FA17DEFF";
name = Regular;
paths = (
{
closed = 1;
nodes = (
"154 0 LINE",
"166 318 LINE",
"166 467 LINE",
"174 469 LINE",
"313 181 LINE",
"381 181 LINE",
"520 469 LINE",
"528 467 LINE",
"528 318 LINE",
"540 0 LINE",
"626 0 LINE",
"602 616 LINE",
"507 616 LINE",
"351 268 LINE",
"343 268 LINE",
"187 616 LINE",
"92 616 LINE",
"68 0 LINE"
);
},
{
closed = 1;
nodes = (
"385 -179 OFFCURVE",
"407 -158 OFFCURVE",
"407 -123 CURVE SMOOTH",
"407 -86 OFFCURVE",
"385 -65 OFFCURVE",
"347 -65 CURVE SMOOTH",
"309 -65 OFFCURVE",
"287 -86 OFFCURVE",
"287 -123 CURVE SMOOTH",
"287 -158 OFFCURVE",
"309 -179 OFFCURVE",
"347 -179 CURVE SMOOTH"
);
}
);
width = 694;
}
);
note = Mdotbelow;
unicode = 1E42;
},
{
glyphname = N;
lastChange = "2015-07-19 15:35:20 +0000";
layers = (
{
layerId = "E35F1BB4-987F-4EDF-94B4-0283FA17DEFF";
name = Regular;
paths = (
{
closed = 1;
nodes = (
"161 0 LINE",
"161 328 LINE",
"151 485 LINE",
"159 487 LINE",
"454 0 LINE",
"550 0 LINE",
"550 616 LINE",
"464 616 LINE",
"464 288 LINE",
"474 131 LINE",
"466 129 LINE",
"171 616 LINE",
"75 616 LINE",
"75 0 LINE"
);
}
);
width = 625;
}
);
note = N;
unicode = 004E;
},
{
glyphname = Nacute;
lastChange = "2015-07-19 15:35:22 +0000";
layers = (
{
layerId = "E35F1BB4-987F-4EDF-94B4-0283FA17DEFF";
name = Regular;
paths = (
{
closed = 1;
nodes = (
"161 0 LINE",
"161 328 LINE",
"151 485 LINE",
"159 487 LINE",
"454 0 LINE",
"550 0 LINE",
"550 616 LINE",
"464 616 LINE",
"464 288 LINE",
"474 131 LINE",
"466 129 LINE",
"171 616 LINE",
"75 616 LINE",
"75 0 LINE"
);
},
{
closed = 1;
nodes = (
"454 828 LINE",
"348 839 LINE",
"265 694 LINE",
"329 684 LINE"
);
}
);
width = 625;
}
);
note = Nacute;
unicode = 0143;
},
{
glyphname = Ncaron;
lastChange = "2015-07-19 15:35:22 +0000";
layers = (
{
layerId = "E35F1BB4-987F-4EDF-94B4-0283FA17DEFF";
name = Regular;
paths = (
{
closed = 1;
nodes = (
"161 0 LINE",
"161 328 LINE",
"151 485 LINE",
"159 487 LINE",
"454 0 LINE",
"550 0 LINE",
"550 616 LINE",
"464 616 LINE",
"464 288 LINE",
"474 131 LINE",
"466 129 LINE",
"171 616 LINE",
"75 616 LINE",
"75 0 LINE"
);
},
{
closed = 1;
nodes = (
"359 696 LINE",
"458 829 LINE",
"405 840 LINE",
"324 765 LINE",
"319 765 LINE",
"235 840 LINE",
"184 829 LINE",
"284 696 LINE"
);
}
);
width = 625;
}
);
note = Ncaron;
unicode = 0147;
},
{
glyphname = Ncommaaccent;
lastChange = "2015-07-19 15:35:22 +0000";
layers = (
{
layerId = "E35F1BB4-987F-4EDF-94B4-0283FA17DEFF";
name = Regular;
paths = (
{
closed = 1;
nodes = (
"161 0 LINE",
"161 328 LINE",
"151 485 LINE",
"159 487 LINE",
"454 0 LINE",
"550 0 LINE",
"550 616 LINE",
"464 616 LINE",
"464 288 LINE",
"474 131 LINE",
"466 129 LINE",
"171 616 LINE",
"75 616 LINE",
"75 0 LINE"
);
},
{
closed = 1;
nodes = (
"370 -229 OFFCURVE",
"389 -183 OFFCURVE",
"389 -142 CURVE SMOOTH",
"389 -94 OFFCURVE",
"369 -70 OFFCURVE",
"323 -70 CURVE SMOOTH",
"307 -70 OFFCURVE",
"289 -73 OFFCURVE",
"273 -79 CURVE",
"273 -135 LINE",
"326 -135 LINE",
"326 -175 OFFCURVE",
"313 -213 OFFCURVE",
"292 -252 CURVE",
"341 -263 LINE"
);
}
);
width = 625;
}
);
note = Ncommaaccent;
unicode = 0145;
},
{
glyphname = Ndotaccent;
lastChange = "2015-07-19 15:35:22 +0000";
layers = (
{
layerId = "E35F1BB4-987F-4EDF-94B4-0283FA17DEFF";
name = Regular;
paths = (
{
closed = 1;
nodes = (
"161 0 LINE",
"161 328 LINE",
"151 485 LINE",
"159 487 LINE",
"454 0 LINE",
"550 0 LINE",
"550 616 LINE",
"464 616 LINE",
"464 288 LINE",
"474 131 LINE",
"466 129 LINE",
"171 616 LINE",
"75 616 LINE",
"75 0 LINE"
);
},
{
closed = 1;
nodes = (
"362 691 OFFCURVE",
"384 712 OFFCURVE",
"384 747 CURVE SMOOTH",
"384 784 OFFCURVE",
"362 805 OFFCURVE",
"324 805 CURVE SMOOTH",
"286 805 OFFCURVE",
"264 784 OFFCURVE",
"264 747 CURVE SMOOTH",
"264 712 OFFCURVE",
"286 691 OFFCURVE",
"324 691 CURVE SMOOTH"
);
}
);
width = 625;
}
);
note = Ndotaccent;
unicode = 1E44;
},
{
glyphname = Ndotbelow;
lastChange = "2015-07-19 15:35:22 +0000";
layers = (
{
layerId = "E35F1BB4-987F-4EDF-94B4-0283FA17DEFF";
name = Regular;
paths = (
{
closed = 1;
nodes = (
"161 0 LINE",
"161 328 LINE",
"151 485 LINE",
"159 487 LINE",
"454 0 LINE",
"550 0 LINE",
"550 616 LINE",
"464 616 LINE",
"464 288 LINE",
"474 131 LINE",
"466 129 LINE",
"171 616 LINE",
"75 616 LINE",
"75 0 LINE"
);
},
{
closed = 1;
nodes = (
"367 -179 OFFCURVE",
"389 -158 OFFCURVE",
"389 -123 CURVE SMOOTH",
"389 -86 OFFCURVE",
"367 -65 OFFCURVE",
"329 -65 CURVE SMOOTH",
"291 -65 OFFCURVE",
"269 -86 OFFCURVE",
"269 -123 CURVE SMOOTH",
"269 -158 OFFCURVE",
"291 -179 OFFCURVE",
"329 -179 CURVE SMOOTH"
);
}
);
width = 625;
}
);
note = Ndotbelow;
unicode = 1E46;
},
{
glyphname = Eng;
lastChange = "2015-07-19 15:35:21 +0000";
layers = (
{
layerId = "E35F1BB4-987F-4EDF-94B4-0283FA17DEFF";
name = Regular;
paths = (
{
closed = 1;
nodes = (
"505 -192 OFFCURVE",
"550 -136 OFFCURVE",
"550 -26 CURVE SMOOTH",
"550 616 LINE",
"464 616 LINE",
"464 288 LINE",
"474 131 LINE",
"466 129 LINE",
"171 616 LINE",
"75 616 LINE",
"75 0 LINE",
"161 0 LINE",
"161 328 LINE",
"151 485 LINE",
"159 487 LINE",
"458 0 LINE",
"458 -34 LINE SMOOTH",
"458 -64 OFFCURVE",
"456 -91 OFFCURVE",
"452 -112 CURVE",
"422 -130 OFFCURVE",
"384 -142 OFFCURVE",
"339 -154 CURVE",
"377 -237 LINE"
);
}
);
width = 625;
}
);
note = Eng;
unicode = 014A;
},
{
glyphname = Nlinebelow;
lastChange = "2015-07-19 15:35:22 +0000";
layers = (
{
layerId = "E35F1BB4-987F-4EDF-94B4-0283FA17DEFF";
name = Regular;
paths = (
{
closed = 1;
nodes = (
"161 0 LINE",
"161 328 LINE",
"151 485 LINE",
"159 487 LINE",
"454 0 LINE",
"550 0 LINE",
"550 616 LINE",
"464 616 LINE",
"464 288 LINE",
"474 131 LINE",
"466 129 LINE",
"171 616 LINE",
"75 616 LINE",
"75 0 LINE"
);
},
{
closed = 1;
nodes = (
"488 -145 LINE",
"488 -70 LINE",
"178 -70 LINE",
"178 -145 LINE"
);
}
);
width = 625;
}
);
note = Nlinebelow;
unicode = 1E48;
},
{
glyphname = Ntilde;
lastChange = "2015-07-19 15:35:22 +0000";
layers = (
{
layerId = "E35F1BB4-987F-4EDF-94B4-0283FA17DEFF";
name = Regular;
paths = (
{
closed = 1;
nodes = (
"161 0 LINE",
"161 328 LINE",
"151 485 LINE",
"159 487 LINE",
"454 0 LINE",
"550 0 LINE",
"550 616 LINE",
"464 616 LINE",
"464 288 LINE",
"474 131 LINE",
"466 129 LINE",
"171 616 LINE",
"75 616 LINE",
"75 0 LINE"
);
},
{
closed = 1;
nodes = (
"226 704 OFFCURVE",
"236 723 OFFCURVE",
"263 723 CURVE SMOOTH",
"298 723 OFFCURVE",
"325 682 OFFCURVE",
"372 682 CURVE SMOOTH",
"427 682 OFFCURVE",
"452 713 OFFCURVE",
"456 778 CURVE",
"401 796 LINE",
"398 770 OFFCURVE",
"388 751 OFFCURVE",
"361 751 CURVE SMOOTH",
"332 751 OFFCURVE",
"294 792 OFFCURVE",
"252 792 CURVE SMOOTH",
"197 792 OFFCURVE",
"172 761 OFFCURVE",
"168 696 CURVE",
"223 678 LINE"
);
}
);
width = 625;
}
);
note = Ntilde;
unicode = 00D1;
},
{
glyphname = O;
lastChange = "2015-07-19 17:32:40 +0000";
layers = (
{
layerId = "E35F1BB4-987F-4EDF-94B4-0283FA17DEFF";
name = Regular;
paths = (
{
closed = 1;
nodes = (
"498 -8 OFFCURVE",
"569 101 OFFCURVE",
"569 321 CURVE SMOOTH",
"569 522 OFFCURVE",
"490 626 OFFCURVE",
"318 626 CURVE SMOOTH",
"123 626 OFFCURVE",
"52 516 OFFCURVE",
"52 296 CURVE SMOOTH",
"52 95 OFFCURVE",
"139 -8 OFFCURVE",
"303 -8 CURVE SMOOTH"
);
},
{
closed = 1;
nodes = (
"184 70 OFFCURVE",
"137 146 OFFCURVE",
"137 315 CURVE SMOOTH",
"137 403 OFFCURVE",
"155 476 OFFCURVE",
"180 530 CURVE",
"205 540 OFFCURVE",
"257 548 OFFCURVE",
"304 548 CURVE SMOOTH",
"438 548 OFFCURVE",
"484 471 OFFCURVE",
"484 302 CURVE SMOOTH",
"484 214 OFFCURVE",
"459 139 OFFCURVE",
"436 88 CURVE",
"411 78 OFFCURVE",
"364 70 OFFCURVE",
"317 70 CURVE SMOOTH"
);
}
);
width = 621;
}
);
leftKerningGroup = O;
note = O;
rightKerningGroup = O;
unicode = 004F;
},
{
glyphname = Oacute;
lastChange = "2015-07-19 17:32:40 +0000";
layers = (
{
layerId = "E35F1BB4-987F-4EDF-94B4-0283FA17DEFF";
name = Regular;
paths = (
{
closed = 1;
nodes = (
"498 -8 OFFCURVE",
"569 101 OFFCURVE",
"569 321 CURVE SMOOTH",
"569 522 OFFCURVE",
"490 626 OFFCURVE",
"318 626 CURVE SMOOTH",
"123 626 OFFCURVE",
"52 516 OFFCURVE",
"52 296 CURVE SMOOTH",
"52 95 OFFCURVE",
"139 -8 OFFCURVE",
"303 -8 CURVE SMOOTH"
);
},
{
closed = 1;
nodes = (
"184 70 OFFCURVE",
"137 146 OFFCURVE",
"137 315 CURVE SMOOTH",
"137 403 OFFCURVE",
"155 476 OFFCURVE",
"180 530 CURVE",
"205 540 OFFCURVE",
"257 548 OFFCURVE",
"304 548 CURVE SMOOTH",
"438 548 OFFCURVE",
"484 471 OFFCURVE",
"484 302 CURVE SMOOTH",
"484 214 OFFCURVE",
"459 139 OFFCURVE",
"436 88 CURVE",
"411 78 OFFCURVE",
"364 70 OFFCURVE",
"317 70 CURVE SMOOTH"
);
},
{
closed = 1;
nodes = (
"461 829 LINE",
"355 840 LINE",
"272 695 LINE",
"336 685 LINE"
);
}
);
width = 621;
}
);
leftKerningGroup = O;
note = Oacute;
rightKerningGroup = O;
unicode = 00D3;
},
{
glyphname = Obreve;
lastChange = "2015-07-19 17:32:40 +0000";
layers = (
{
layerId = "E35F1BB4-987F-4EDF-94B4-0283FA17DEFF";
name = Regular;
paths = (
{
closed = 1;
nodes = (
"498 -8 OFFCURVE",
"569 101 OFFCURVE",
"569 321 CURVE SMOOTH",
"569 522 OFFCURVE",
"490 626 OFFCURVE",
"318 626 CURVE SMOOTH",
"123 626 OFFCURVE",
"52 516 OFFCURVE",
"52 296 CURVE SMOOTH",
"52 95 OFFCURVE",
"139 -8 OFFCURVE",
"303 -8 CURVE SMOOTH"
);
},
{
closed = 1;
nodes = (
"184 70 OFFCURVE",
"137 146 OFFCURVE",
"137 315 CURVE SMOOTH",
"137 403 OFFCURVE",
"155 476 OFFCURVE",
"180 530 CURVE",
"205 540 OFFCURVE",
"257 548 OFFCURVE",
"304 548 CURVE SMOOTH",
"438 548 OFFCURVE",
"484 471 OFFCURVE",
"484 302 CURVE SMOOTH",
"484 214 OFFCURVE",
"459 139 OFFCURVE",
"436 88 CURVE",
"411 78 OFFCURVE",
"364 70 OFFCURVE",
"317 70 CURVE SMOOTH"
);
},
{
closed = 1;
nodes = (
"395 691 OFFCURVE",
"437 735 OFFCURVE",
"445 804 CURVE",
"368 816 LINE",
"365 777 OFFCURVE",
"356 755 OFFCURVE",
"310 755 CURVE SMOOTH",
"264 755 OFFCURVE",
"255 777 OFFCURVE",
"252 816 CURVE",
"175 804 LINE",
"183 735 OFFCURVE",
"225 691 OFFCURVE",
"310 691 CURVE SMOOTH"
);
}
);
width = 621;
}
);
leftKerningGroup = O;
note = Obreve;
rightKerningGroup = O;
unicode = 014E;
},
{
glyphname = Ocaron;
lastChange = "2015-07-19 17:32:40 +0000";
layers = (
{
layerId = "E35F1BB4-987F-4EDF-94B4-0283FA17DEFF";
name = Regular;
paths = (
{
closed = 1;
nodes = (
"498 -8 OFFCURVE",
"569 101 OFFCURVE",
"569 321 CURVE SMOOTH",
"569 522 OFFCURVE",
"490 626 OFFCURVE",
"318 626 CURVE SMOOTH",
"123 626 OFFCURVE",
"52 516 OFFCURVE",
"52 296 CURVE SMOOTH",
"52 95 OFFCURVE",
"139 -8 OFFCURVE",
"303 -8 CURVE SMOOTH"
);
},
{
closed = 1;
nodes = (
"184 70 OFFCURVE",
"137 146 OFFCURVE",
"137 315 CURVE SMOOTH",
"137 403 OFFCURVE",
"155 476 OFFCURVE",
"180 530 CURVE",
"205 540 OFFCURVE",
"257 548 OFFCURVE",
"304 548 CURVE SMOOTH",
"438 548 OFFCURVE",
"484 471 OFFCURVE",
"484 302 CURVE SMOOTH",
"484 214 OFFCURVE",
"459 139 OFFCURVE",
"436 88 CURVE",
"411 78 OFFCURVE",
"364 70 OFFCURVE",
"317 70 CURVE SMOOTH"
);
},
{
closed = 1;
nodes = (
"348 696 LINE",
"447 829 LINE",
"394 840 LINE",
"313 765 LINE",
"308 765 LINE",
"224 840 LINE",
"173 829 LINE",
"273 696 LINE"
);
}
);
width = 621;
}
);
leftKerningGroup = O;
note = Ocaron;
rightKerningGroup = O;
unicode = 01D1;
},
{
glyphname = Ocircumflex;
lastChange = "2015-07-19 17:32:40 +0000";
layers = (
{
layerId = "E35F1BB4-987F-4EDF-94B4-0283FA17DEFF";
name = Regular;
paths = (
{
closed = 1;
nodes = (
"498 -8 OFFCURVE",
"569 101 OFFCURVE",
"569 321 CURVE SMOOTH",
"569 522 OFFCURVE",
"490 626 OFFCURVE",
"318 626 CURVE SMOOTH",
"123 626 OFFCURVE",
"52 516 OFFCURVE",
"52 296 CURVE SMOOTH",
"52 95 OFFCURVE",
"139 -8 OFFCURVE",
"303 -8 CURVE SMOOTH"
);
},
{
closed = 1;
nodes = (
"184 70 OFFCURVE",
"137 146 OFFCURVE",
"137 315 CURVE SMOOTH",
"137 403 OFFCURVE",
"155 476 OFFCURVE",
"180 530 CURVE",
"205 540 OFFCURVE",
"257 548 OFFCURVE",
"304 548 CURVE SMOOTH",
"438 548 OFFCURVE",
"484 471 OFFCURVE",
"484 302 CURVE SMOOTH",
"484 214 OFFCURVE",
"459 139 OFFCURVE",
"436 88 CURVE",
"411 78 OFFCURVE",
"364 70 OFFCURVE",
"317 70 CURVE SMOOTH"
);
},
{
closed = 1;
nodes = (
"313 759 LINE",
"318 759 LINE",
"399 684 LINE",
"452 695 LINE",
"353 828 LINE",
"278 828 LINE",
"178 695 LINE",
"229 684 LINE"
);
}
);
width = 621;
}
);
leftKerningGroup = O;
note = Ocircumflex;
rightKerningGroup = O;
unicode = 00D4;
},
{
glyphname = Ocircumflexacute;
lastChange = "2015-07-19 17:32:40 +0000";
layers = (
{
layerId = "E35F1BB4-987F-4EDF-94B4-0283FA17DEFF";
name = Regular;
paths = (
{
closed = 1;
nodes = (
"498 -8 OFFCURVE",
"569 101 OFFCURVE",
"569 321 CURVE SMOOTH",
"569 522 OFFCURVE",
"490 626 OFFCURVE",
"318 626 CURVE SMOOTH",
"123 626 OFFCURVE",
"52 516 OFFCURVE",
"52 296 CURVE SMOOTH",
"52 95 OFFCURVE",
"139 -8 OFFCURVE",
"303 -8 CURVE SMOOTH"
);
},
{
closed = 1;
nodes = (
"184 70 OFFCURVE",
"137 146 OFFCURVE",
"137 315 CURVE SMOOTH",
"137 403 OFFCURVE",
"155 476 OFFCURVE",
"180 530 CURVE",
"205 540 OFFCURVE",
"257 548 OFFCURVE",
"304 548 CURVE SMOOTH",
"438 548 OFFCURVE",
"484 471 OFFCURVE",
"484 302 CURVE SMOOTH",
"484 214 OFFCURVE",
"459 139 OFFCURVE",
"436 88 CURVE",
"411 78 OFFCURVE",
"364 70 OFFCURVE",
"317 70 CURVE SMOOTH"
);
},
{
closed = 1;
nodes = (
"318 760 LINE",
"323 760 LINE",
"404 685 LINE",
"457 696 LINE",
"358 829 LINE",
"283 829 LINE",
"183 696 LINE",
"234 685 LINE"
);
},
{
closed = 1;
nodes = (
"574 882 LINE",
"500 895 LINE",
"440 787 LINE",
"492 775 LINE"
);
}
);
width = 621;
}
);
leftKerningGroup = O;
note = Ocircumflexacute;
rightKerningGroup = O;
unicode = 1ED0;
},
{
glyphname = Ocircumflexdotbelow;
lastChange = "2015-07-19 17:32:40 +0000";
layers = (
{
layerId = "E35F1BB4-987F-4EDF-94B4-0283FA17DEFF";
name = Regular;
paths = (
{
closed = 1;
nodes = (
"498 -8 OFFCURVE",
"569 101 OFFCURVE",
"569 321 CURVE SMOOTH",
"569 522 OFFCURVE",
"490 626 OFFCURVE",
"318 626 CURVE SMOOTH",
"123 626 OFFCURVE",
"52 516 OFFCURVE",
"52 296 CURVE SMOOTH",
"52 95 OFFCURVE",
"139 -8 OFFCURVE",
"303 -8 CURVE SMOOTH"
);
},
{
closed = 1;
nodes = (
"359 -179 OFFCURVE",
"381 -158 OFFCURVE",
"381 -123 CURVE SMOOTH",
"381 -86 OFFCURVE",
"359 -65 OFFCURVE",
"321 -65 CURVE SMOOTH",
"283 -65 OFFCURVE",
"261 -86 OFFCURVE",
"261 -123 CURVE SMOOTH",
"261 -158 OFFCURVE",
"283 -179 OFFCURVE",
"321 -179 CURVE SMOOTH"
);
},
{
closed = 1;
nodes = (
"184 70 OFFCURVE",
"137 146 OFFCURVE",
"137 315 CURVE SMOOTH",
"137 403 OFFCURVE",
"155 476 OFFCURVE",
"180 530 CURVE",
"205 540 OFFCURVE",
"257 548 OFFCURVE",
"304 548 CURVE SMOOTH",
"438 548 OFFCURVE",
"484 471 OFFCURVE",
"484 302 CURVE SMOOTH",
"484 214 OFFCURVE",
"459 139 OFFCURVE",
"436 88 CURVE",
"411 78 OFFCURVE",
"364 70 OFFCURVE",
"317 70 CURVE SMOOTH"
);
},
{
closed = 1;
nodes = (
"319 760 LINE",
"324 760 LINE",
"405 685 LINE",
"458 696 LINE",
"359 829 LINE",
"284 829 LINE",
"184 696 LINE",
"235 685 LINE"
);
}
);
width = 621;
}
);
leftKerningGroup = O;
note = Ocircumflexdotbelow;
rightKerningGroup = O;
unicode = 1ED8;
},
{
glyphname = Ocircumflexgrave;
lastChange = "2015-07-19 17:32:40 +0000";
layers = (
{
layerId = "E35F1BB4-987F-4EDF-94B4-0283FA17DEFF";
name = Regular;
paths = (
{
closed = 1;
nodes = (
"498 -8 OFFCURVE",
"569 101 OFFCURVE",
"569 321 CURVE SMOOTH",
"569 522 OFFCURVE",
"490 626 OFFCURVE",
"318 626 CURVE SMOOTH",
"123 626 OFFCURVE",
"52 516 OFFCURVE",
"52 296 CURVE SMOOTH",
"52 95 OFFCURVE",
"139 -8 OFFCURVE",
"303 -8 CURVE SMOOTH"
);
},
{
closed = 1;
nodes = (
"184 70 OFFCURVE",
"137 146 OFFCURVE",
"137 315 CURVE SMOOTH",
"137 403 OFFCURVE",
"155 476 OFFCURVE",
"180 530 CURVE",
"205 540 OFFCURVE",
"257 548 OFFCURVE",
"304 548 CURVE SMOOTH",
"438 548 OFFCURVE",
"484 471 OFFCURVE",
"484 302 CURVE SMOOTH",
"484 214 OFFCURVE",
"459 139 OFFCURVE",
"436 88 CURVE",
"411 78 OFFCURVE",
"364 70 OFFCURVE",
"317 70 CURVE SMOOTH"
);
},
{
closed = 1;
nodes = (
"189 786 LINE",
"129 894 LINE",
"55 881 LINE",
"137 774 LINE"
);
},
{
closed = 1;
nodes = (
"306 759 LINE",
"311 759 LINE",
"395 684 LINE",
"446 695 LINE",
"346 828 LINE",
"271 828 LINE",
"172 695 LINE",
"225 684 LINE"
);
}
);
width = 621;
}
);
leftKerningGroup = O;
note = Ocircumflexgrave;
rightKerningGroup = O;
unicode = 1ED2;
},
{
glyphname = Ocircumflexhookabove;
lastChange = "2015-07-19 17:32:40 +0000";
layers = (
{
layerId = "E35F1BB4-987F-4EDF-94B4-0283FA17DEFF";
name = Regular;
paths = (
{
closed = 1;
nodes = (
"498 -8 OFFCURVE",
"569 101 OFFCURVE",
"569 321 CURVE SMOOTH",
"569 522 OFFCURVE",
"490 626 OFFCURVE",
"318 626 CURVE SMOOTH",
"123 626 OFFCURVE",
"52 516 OFFCURVE",
"52 296 CURVE SMOOTH",
"52 95 OFFCURVE",
"139 -8 OFFCURVE",
"303 -8 CURVE SMOOTH"
);
},
{
closed = 1;
nodes = (
"184 70 OFFCURVE",
"137 146 OFFCURVE",
"137 315 CURVE SMOOTH",
"137 403 OFFCURVE",
"155 476 OFFCURVE",
"180 530 CURVE",
"205 540 OFFCURVE",
"257 548 OFFCURVE",
"304 548 CURVE SMOOTH",
"438 548 OFFCURVE",
"484 471 OFFCURVE",
"484 302 CURVE SMOOTH",
"484 214 OFFCURVE",
"459 139 OFFCURVE",
"436 88 CURVE",
"411 78 OFFCURVE",
"364 70 OFFCURVE",
"317 70 CURVE SMOOTH"
);
},
{
closed = 1;
nodes = (
"311 760 LINE",
"316 760 LINE",
"397 685 LINE",
"450 696 LINE",
"351 829 LINE",
"276 829 LINE",
"176 696 LINE",
"227 685 LINE"
);
},
{
closed = 1;
nodes = (
"474 796 LINE",
"474 828 LINE",
"515 828 OFFCURVE",
"537 846 OFFCURVE",
"537 883 CURVE SMOOTH",
"537 922 OFFCURVE",
"517 942 OFFCURVE",
"469 942 CURVE SMOOTH",
"449 942 OFFCURVE",
"428 938 OFFCURVE",
"408 930 CURVE",
"419 891 LINE",
"432 897 OFFCURVE",
"449 900 OFFCURVE",
"462 900 CURVE SMOOTH",
"480 900 OFFCURVE",
"487 894 OFFCURVE",
"487 882 CURVE SMOOTH",
"487 867 OFFCURVE",
"471 862 OFFCURVE",
"428 862 CURVE",
"428 832 LINE",
"437 796 LINE"
);
}
);
width = 621;
}
);
leftKerningGroup = O;
note = Ocircumflexhookabove;
rightKerningGroup = O;
unicode = 1ED4;
},
{
glyphname = Ocircumflextilde;
lastChange = "2015-07-19 17:32:40 +0000";
layers = (
{
layerId = "E35F1BB4-987F-4EDF-94B4-0283FA17DEFF";
name = Regular;
paths = (
{
closed = 1;
nodes = (
"498 -8 OFFCURVE",
"569 101 OFFCURVE",
"569 321 CURVE SMOOTH",
"569 522 OFFCURVE",
"490 626 OFFCURVE",
"318 626 CURVE SMOOTH",
"123 626 OFFCURVE",
"52 516 OFFCURVE",
"52 296 CURVE SMOOTH",
"52 95 OFFCURVE",
"139 -8 OFFCURVE",
"303 -8 CURVE SMOOTH"
);
},
{
closed = 1;
nodes = (
"184 70 OFFCURVE",
"137 146 OFFCURVE",
"137 315 CURVE SMOOTH",
"137 403 OFFCURVE",
"155 476 OFFCURVE",
"180 530 CURVE",
"205 540 OFFCURVE",
"257 548 OFFCURVE",
"304 548 CURVE SMOOTH",
"438 548 OFFCURVE",
"484 471 OFFCURVE",
"484 302 CURVE SMOOTH",
"484 214 OFFCURVE",
"459 139 OFFCURVE",
"436 88 CURVE",
"411 78 OFFCURVE",
"364 70 OFFCURVE",
"317 70 CURVE SMOOTH"
);
},
{
closed = 1;
nodes = (
"312 760 LINE",
"317 760 LINE",
"398 685 LINE",
"451 696 LINE",
"352 829 LINE",
"277 829 LINE",
"177 696 LINE",
"228 685 LINE"
);
},
{
closed = 1;
nodes = (
"239 893 OFFCURVE",
"249 908 OFFCURVE",
"271 908 CURVE SMOOTH",
"299 908 OFFCURVE",
"327 875 OFFCURVE",
"365 875 CURVE SMOOTH",
"410 875 OFFCURVE",
"432 900 OFFCURVE",
"435 953 CURVE",
"391 968 LINE",
"388 946 OFFCURVE",
"378 931 OFFCURVE",
"356 931 CURVE SMOOTH",
"333 931 OFFCURVE",
"296 964 OFFCURVE",
"262 964 CURVE SMOOTH",
"217 964 OFFCURVE",
"195 939 OFFCURVE",
"192 886 CURVE",
"236 872 LINE"
);
}
);
width = 621;
}
);
leftKerningGroup = O;
note = Ocircumflextilde;
rightKerningGroup = O;
unicode = 1ED6;
},
{
glyphname = Odieresis;
lastChange = "2015-07-19 17:32:40 +0000";
layers = (
{
layerId = "E35F1BB4-987F-4EDF-94B4-0283FA17DEFF";
name = Regular;
paths = (
{
closed = 1;
nodes = (
"498 -8 OFFCURVE",
"569 101 OFFCURVE",
"569 321 CURVE SMOOTH",
"569 522 OFFCURVE",
"490 626 OFFCURVE",
"318 626 CURVE SMOOTH",
"123 626 OFFCURVE",
"52 516 OFFCURVE",
"52 296 CURVE SMOOTH",
"52 95 OFFCURVE",
"139 -8 OFFCURVE",
"303 -8 CURVE SMOOTH"
);
},
{
closed = 1;
nodes = (
"184 70 OFFCURVE",
"137 146 OFFCURVE",
"137 315 CURVE SMOOTH",
"137 403 OFFCURVE",
"155 476 OFFCURVE",
"180 530 CURVE",
"205 540 OFFCURVE",
"257 548 OFFCURVE",
"304 548 CURVE SMOOTH",
"438 548 OFFCURVE",
"484 471 OFFCURVE",
"484 302 CURVE SMOOTH",
"484 214 OFFCURVE",
"459 139 OFFCURVE",
"436 88 CURVE",
"411 78 OFFCURVE",
"364 70 OFFCURVE",
"317 70 CURVE SMOOTH"
);
},
{
closed = 1;
nodes = (
"266 691 OFFCURVE",
"283 707 OFFCURVE",
"283 734 CURVE SMOOTH",
"283 762 OFFCURVE",
"266 778 OFFCURVE",
"237 778 CURVE SMOOTH",
"209 778 OFFCURVE",
"191 762 OFFCURVE",
"191 734 CURVE SMOOTH",
"191 707 OFFCURVE",
"209 691 OFFCURVE",
"237 691 CURVE SMOOTH"
);
},
{
closed = 1;
nodes = (
"424 691 OFFCURVE",
"441 707 OFFCURVE",
"441 734 CURVE SMOOTH",
"441 762 OFFCURVE",
"424 778 OFFCURVE",
"395 778 CURVE SMOOTH",
"366 778 OFFCURVE",
"348 762 OFFCURVE",
"348 734 CURVE SMOOTH",
"348 707 OFFCURVE",
"366 691 OFFCURVE",
"395 691 CURVE SMOOTH"
);
}
);
width = 621;
}
);
leftKerningGroup = O;
note = Odieresis;
rightKerningGroup = O;
unicode = 00D6;
},
{
glyphname = Odotbelow;
lastChange = "2015-07-19 17:32:40 +0000";
layers = (
{
layerId = "E35F1BB4-987F-4EDF-94B4-0283FA17DEFF";
name = Regular;
paths = (
{
closed = 1;
nodes = (
"498 -8 OFFCURVE",
"569 101 OFFCURVE",
"569 321 CURVE SMOOTH",
"569 522 OFFCURVE",
"490 626 OFFCURVE",
"318 626 CURVE SMOOTH",
"123 626 OFFCURVE",
"52 516 OFFCURVE",
"52 296 CURVE SMOOTH",
"52 95 OFFCURVE",
"139 -8 OFFCURVE",
"303 -8 CURVE SMOOTH"
);
},
{
closed = 1;
nodes = (
"348 -179 OFFCURVE",
"370 -158 OFFCURVE",
"370 -123 CURVE SMOOTH",
"370 -86 OFFCURVE",
"348 -65 OFFCURVE",
"310 -65 CURVE SMOOTH",
"272 -65 OFFCURVE",
"250 -86 OFFCURVE",
"250 -123 CURVE SMOOTH",
"250 -158 OFFCURVE",
"272 -179 OFFCURVE",
"310 -179 CURVE SMOOTH"
);
},
{
closed = 1;
nodes = (
"184 70 OFFCURVE",
"137 146 OFFCURVE",
"137 315 CURVE SMOOTH",
"137 403 OFFCURVE",
"155 476 OFFCURVE",
"180 530 CURVE",
"205 540 OFFCURVE",
"257 548 OFFCURVE",
"304 548 CURVE SMOOTH",
"438 548 OFFCURVE",
"484 471 OFFCURVE",
"484 302 CURVE SMOOTH",
"484 214 OFFCURVE",
"459 139 OFFCURVE",
"436 88 CURVE",
"411 78 OFFCURVE",
"364 70 OFFCURVE",
"317 70 CURVE SMOOTH"
);
}
);
width = 621;
}
);
leftKerningGroup = O;
note = Odotbelow;
rightKerningGroup = O;
unicode = 1ECC;
},
{
glyphname = Ograve;
lastChange = "2015-07-19 17:32:40 +0000";
layers = (
{
layerId = "E35F1BB4-987F-4EDF-94B4-0283FA17DEFF";
name = Regular;
paths = (
{
closed = 1;
nodes = (
"498 -8 OFFCURVE",
"569 101 OFFCURVE",
"569 321 CURVE SMOOTH",
"569 522 OFFCURVE",
"490 626 OFFCURVE",
"318 626 CURVE SMOOTH",
"123 626 OFFCURVE",
"52 516 OFFCURVE",
"52 296 CURVE SMOOTH",
"52 95 OFFCURVE",
"139 -8 OFFCURVE",
"303 -8 CURVE SMOOTH"
);
},
{
closed = 1;
nodes = (
"184 70 OFFCURVE",
"137 146 OFFCURVE",
"137 315 CURVE SMOOTH",
"137 403 OFFCURVE",
"155 476 OFFCURVE",
"180 530 CURVE",
"205 540 OFFCURVE",
"257 548 OFFCURVE",
"304 548 CURVE SMOOTH",
"438 548 OFFCURVE",
"484 471 OFFCURVE",
"484 302 CURVE SMOOTH",
"484 214 OFFCURVE",
"459 139 OFFCURVE",
"436 88 CURVE",
"411 78 OFFCURVE",
"364 70 OFFCURVE",
"317 70 CURVE SMOOTH"
);
},
{
closed = 1;
nodes = (
"367 696 LINE",
"284 841 LINE",
"178 830 LINE",
"303 686 LINE"
);
}
);
width = 621;
}
);
leftKerningGroup = O;
note = Ograve;
rightKerningGroup = O;
unicode = 00D2;
},
{
glyphname = Ohookabove;
lastChange = "2015-07-19 17:32:40 +0000";
layers = (
{
layerId = "E35F1BB4-987F-4EDF-94B4-0283FA17DEFF";
name = Regular;
paths = (
{
closed = 1;
nodes = (
"498 -8 OFFCURVE",
"569 101 OFFCURVE",
"569 321 CURVE SMOOTH",
"569 522 OFFCURVE",
"490 626 OFFCURVE",
"318 626 CURVE SMOOTH",
"123 626 OFFCURVE",
"52 516 OFFCURVE",
"52 296 CURVE SMOOTH",
"52 95 OFFCURVE",
"139 -8 OFFCURVE",
"303 -8 CURVE SMOOTH"
);
},
{
closed = 1;
nodes = (
"184 70 OFFCURVE",
"137 146 OFFCURVE",
"137 315 CURVE SMOOTH",
"137 403 OFFCURVE",
"155 476 OFFCURVE",
"180 530 CURVE",
"205 540 OFFCURVE",
"257 548 OFFCURVE",
"304 548 CURVE SMOOTH",
"438 548 OFFCURVE",
"484 471 OFFCURVE",
"484 302 CURVE SMOOTH",
"484 214 OFFCURVE",
"459 139 OFFCURVE",
"436 88 CURVE",
"411 78 OFFCURVE",
"364 70 OFFCURVE",
"317 70 CURVE SMOOTH"
);
},
{
closed = 1;
nodes = (
"337 696 LINE",
"337 737 LINE",
"394 737 OFFCURVE",
"431 758 OFFCURVE",
"431 811 CURVE SMOOTH",
"431 857 OFFCURVE",
"403 890 OFFCURVE",
"337 890 CURVE SMOOTH",
"309 890 OFFCURVE",
"279 885 OFFCURVE",
"251 872 CURVE",
"267 827 LINE",
"285 834 OFFCURVE",
"308 838 OFFCURVE",
"326 838 CURVE SMOOTH",
"356 838 OFFCURVE",
"369 832 OFFCURVE",
"369 809 CURVE SMOOTH",
"369 780 OFFCURVE",
"341 780 OFFCURVE",
"279 780 CURVE",
"279 745 LINE",
"292 696 LINE"
);
}
);
width = 621;
}
);
leftKerningGroup = O;
note = Ohookabove;
rightKerningGroup = O;
unicode = 1ECE;
},
{
glyphname = Ohorn;
lastChange = "2015-07-19 17:32:27 +0000";
layers = (
{
layerId = "E35F1BB4-987F-4EDF-94B4-0283FA17DEFF";
name = Regular;
paths = (
{
closed = 1;
nodes = (
"498 -9 OFFCURVE",
"569 101 OFFCURVE",
"569 321 CURVE SMOOTH",
"569 399 OFFCURVE",
"558 447 OFFCURVE",
"538 491 CURVE",
"609 539 OFFCURVE",
"636 603 OFFCURVE",
"636 716 CURVE",
"556 716 LINE",
"555 645 OFFCURVE",
"541 599 OFFCURVE",
"515 551 CURVE",
"505 551 LINE",
"464 604 OFFCURVE",
"406 626 OFFCURVE",
"318 626 CURVE SMOOTH",
"123 626 OFFCURVE",
"52 516 OFFCURVE",
"52 296 CURVE SMOOTH",
"52 95 OFFCURVE",
"139 -9 OFFCURVE",
"303 -9 CURVE SMOOTH"
);
},
{
closed = 1;
nodes = (
"184 69 OFFCURVE",
"137 146 OFFCURVE",
"137 315 CURVE SMOOTH",
"137 403 OFFCURVE",
"155 476 OFFCURVE",
"180 530 CURVE",
"205 540 OFFCURVE",
"257 548 OFFCURVE",
"304 548 CURVE SMOOTH",
"438 548 OFFCURVE",
"484 471 OFFCURVE",
"484 302 CURVE SMOOTH",
"484 214 OFFCURVE",
"459 138 OFFCURVE",
"436 87 CURVE",
"411 77 OFFCURVE",
"364 69 OFFCURVE",
"317 69 CURVE SMOOTH"
);
}
);
width = 656;
}
);
leftKerningGroup = O;
note = Ohorn;
unicode = 01A0;
},
{
glyphname = Ohornacute;
lastChange = "2015-07-19 17:32:27 +0000";
layers = (
{
layerId = "E35F1BB4-987F-4EDF-94B4-0283FA17DEFF";
name = Regular;
paths = (
{
closed = 1;
nodes = (
"498 -9 OFFCURVE",
"569 101 OFFCURVE",
"569 321 CURVE SMOOTH",
"569 399 OFFCURVE",
"558 447 OFFCURVE",
"538 491 CURVE",
"609 539 OFFCURVE",
"636 603 OFFCURVE",
"636 716 CURVE",
"556 716 LINE",
"555 645 OFFCURVE",
"541 599 OFFCURVE",
"515 551 CURVE",
"505 551 LINE",
"464 604 OFFCURVE",
"406 626 OFFCURVE",
"318 626 CURVE SMOOTH",
"123 626 OFFCURVE",
"52 516 OFFCURVE",
"52 296 CURVE SMOOTH",
"52 95 OFFCURVE",
"139 -9 OFFCURVE",
"303 -9 CURVE SMOOTH"
);
},
{
closed = 1;
nodes = (
"184 69 OFFCURVE",
"137 146 OFFCURVE",
"137 315 CURVE SMOOTH",
"137 403 OFFCURVE",
"155 476 OFFCURVE",
"180 530 CURVE",
"205 540 OFFCURVE",
"257 548 OFFCURVE",
"304 548 CURVE SMOOTH",
"438 548 OFFCURVE",
"484 471 OFFCURVE",
"484 302 CURVE SMOOTH",
"484 214 OFFCURVE",
"459 138 OFFCURVE",
"436 87 CURVE",
"411 77 OFFCURVE",
"364 69 OFFCURVE",
"317 69 CURVE SMOOTH"
);
},
{
closed = 1;
nodes = (
"451 830 LINE",
"345 841 LINE",
"262 696 LINE",
"326 686 LINE"
);
}
);
width = 656;
}
);
leftKerningGroup = O;
note = Ohornacute;
unicode = 1EDA;
},
{
glyphname = Ohorndotbelow;
lastChange = "2015-07-19 17:32:27 +0000";
layers = (
{
layerId = "E35F1BB4-987F-4EDF-94B4-0283FA17DEFF";
name = Regular;
paths = (
{
closed = 1;
nodes = (
"498 -9 OFFCURVE",
"569 101 OFFCURVE",
"569 321 CURVE SMOOTH",
"569 399 OFFCURVE",
"558 447 OFFCURVE",
"538 491 CURVE",
"609 539 OFFCURVE",
"636 603 OFFCURVE",
"636 716 CURVE",
"556 716 LINE",
"555 645 OFFCURVE",
"541 599 OFFCURVE",
"515 551 CURVE",
"505 551 LINE",
"464 604 OFFCURVE",
"406 626 OFFCURVE",
"318 626 CURVE SMOOTH",
"123 626 OFFCURVE",
"52 516 OFFCURVE",
"52 296 CURVE SMOOTH",
"52 95 OFFCURVE",
"139 -9 OFFCURVE",
"303 -9 CURVE SMOOTH"
);
},
{
closed = 1;
nodes = (
"355 -179 OFFCURVE",
"377 -158 OFFCURVE",
"377 -123 CURVE SMOOTH",
"377 -86 OFFCURVE",
"355 -65 OFFCURVE",
"317 -65 CURVE SMOOTH",
"279 -65 OFFCURVE",
"257 -86 OFFCURVE",
"257 -123 CURVE SMOOTH",
"257 -158 OFFCURVE",
"279 -179 OFFCURVE",
"317 -179 CURVE SMOOTH"
);
},
{
closed = 1;
nodes = (
"184 69 OFFCURVE",
"137 146 OFFCURVE",
"137 315 CURVE SMOOTH",
"137 403 OFFCURVE",
"155 476 OFFCURVE",
"180 530 CURVE",
"205 540 OFFCURVE",
"257 548 OFFCURVE",
"304 548 CURVE SMOOTH",
"438 548 OFFCURVE",
"484 471 OFFCURVE",
"484 302 CURVE SMOOTH",
"484 214 OFFCURVE",
"459 138 OFFCURVE",
"436 87 CURVE",
"411 77 OFFCURVE",
"364 69 OFFCURVE",
"317 69 CURVE SMOOTH"
);
}
);
width = 656;
}
);
leftKerningGroup = O;
note = Ohorndotbelow;
unicode = 1EE2;
},
{
glyphname = Ohorngrave;
lastChange = "2015-07-19 17:32:27 +0000";
layers = (
{
layerId = "E35F1BB4-987F-4EDF-94B4-0283FA17DEFF";
name = Regular;
paths = (
{
closed = 1;
nodes = (
"498 -9 OFFCURVE",
"569 101 OFFCURVE",
"569 321 CURVE SMOOTH",
"569 399 OFFCURVE",
"558 447 OFFCURVE",
"538 491 CURVE",
"609 539 OFFCURVE",
"636 603 OFFCURVE",
"636 716 CURVE",
"556 716 LINE",
"555 645 OFFCURVE",
"541 599 OFFCURVE",
"515 551 CURVE",
"505 551 LINE",
"464 604 OFFCURVE",
"406 626 OFFCURVE",
"318 626 CURVE SMOOTH",
"123 626 OFFCURVE",
"52 516 OFFCURVE",
"52 296 CURVE SMOOTH",
"52 95 OFFCURVE",
"139 -9 OFFCURVE",
"303 -9 CURVE SMOOTH"
);
},
{
closed = 1;
nodes = (
"184 69 OFFCURVE",
"137 146 OFFCURVE",
"137 315 CURVE SMOOTH",
"137 403 OFFCURVE",
"155 476 OFFCURVE",
"180 530 CURVE",
"205 540 OFFCURVE",
"257 548 OFFCURVE",
"304 548 CURVE SMOOTH",
"438 548 OFFCURVE",
"484 471 OFFCURVE",
"484 302 CURVE SMOOTH",
"484 214 OFFCURVE",
"459 138 OFFCURVE",
"436 87 CURVE",
"411 77 OFFCURVE",
"364 69 OFFCURVE",
"317 69 CURVE SMOOTH"
);
},
{
closed = 1;
nodes = (
"364 696 LINE",
"281 841 LINE",
"175 830 LINE",
"300 686 LINE"
);
}
);
width = 656;
}
);
leftKerningGroup = O;
note = Ohorngrave;
unicode = 1EDC;
},
{
glyphname = Ohornhookabove;
lastChange = "2015-07-19 17:32:27 +0000";
layers = (
{
layerId = "E35F1BB4-987F-4EDF-94B4-0283FA17DEFF";
name = Regular;
paths = (
{
closed = 1;
nodes = (
"498 -9 OFFCURVE",
"569 101 OFFCURVE",
"569 321 CURVE SMOOTH",
"569 399 OFFCURVE",
"558 447 OFFCURVE",
"538 491 CURVE",
"609 539 OFFCURVE",
"636 603 OFFCURVE",
"636 716 CURVE",
"556 716 LINE",
"555 645 OFFCURVE",
"541 599 OFFCURVE",
"515 551 CURVE",
"505 551 LINE",
"464 604 OFFCURVE",
"406 626 OFFCURVE",
"318 626 CURVE SMOOTH",
"123 626 OFFCURVE",
"52 516 OFFCURVE",
"52 296 CURVE SMOOTH",
"52 95 OFFCURVE",
"139 -9 OFFCURVE",
"303 -9 CURVE SMOOTH"
);
},
{
closed = 1;
nodes = (
"184 69 OFFCURVE",
"137 146 OFFCURVE",
"137 315 CURVE SMOOTH",
"137 403 OFFCURVE",
"155 476 OFFCURVE",
"180 530 CURVE",
"205 540 OFFCURVE",
"257 548 OFFCURVE",
"304 548 CURVE SMOOTH",
"438 548 OFFCURVE",
"484 471 OFFCURVE",
"484 302 CURVE SMOOTH",
"484 214 OFFCURVE",
"459 138 OFFCURVE",
"436 87 CURVE",
"411 77 OFFCURVE",
"364 69 OFFCURVE",
"317 69 CURVE SMOOTH"
);
},
{
closed = 1;
nodes = (
"334 696 LINE",
"334 737 LINE",
"391 737 OFFCURVE",
"428 758 OFFCURVE",
"428 811 CURVE SMOOTH",
"428 857 OFFCURVE",
"400 890 OFFCURVE",
"334 890 CURVE SMOOTH",
"306 890 OFFCURVE",
"276 885 OFFCURVE",
"248 872 CURVE",
"264 827 LINE",
"282 834 OFFCURVE",
"305 838 OFFCURVE",
"323 838 CURVE SMOOTH",
"353 838 OFFCURVE",
"366 832 OFFCURVE",
"366 809 CURVE SMOOTH",
"366 780 OFFCURVE",
"338 780 OFFCURVE",
"276 780 CURVE",
"276 745 LINE",
"289 696 LINE"
);
}
);
width = 656;
}
);
leftKerningGroup = O;
note = Ohornhookabove;
unicode = 1EDE;
},
{
glyphname = Ohorntilde;
lastChange = "2015-07-19 17:32:27 +0000";
layers = (
{
layerId = "E35F1BB4-987F-4EDF-94B4-0283FA17DEFF";
name = Regular;
paths = (
{
closed = 1;
nodes = (
"498 -9 OFFCURVE",
"569 101 OFFCURVE",
"569 321 CURVE SMOOTH",
"569 399 OFFCURVE",
"558 447 OFFCURVE",
"538 491 CURVE",
"609 539 OFFCURVE",
"636 603 OFFCURVE",
"636 716 CURVE",
"556 716 LINE",
"555 645 OFFCURVE",
"541 599 OFFCURVE",
"515 551 CURVE",
"505 551 LINE",
"464 604 OFFCURVE",
"406 626 OFFCURVE",
"318 626 CURVE SMOOTH",
"123 626 OFFCURVE",
"52 516 OFFCURVE",
"52 296 CURVE SMOOTH",
"52 95 OFFCURVE",
"139 -9 OFFCURVE",
"303 -9 CURVE SMOOTH"
);
},
{
closed = 1;
nodes = (
"184 69 OFFCURVE",
"137 146 OFFCURVE",
"137 315 CURVE SMOOTH",
"137 403 OFFCURVE",
"155 476 OFFCURVE",
"180 530 CURVE",
"205 540 OFFCURVE",
"257 548 OFFCURVE",
"304 548 CURVE SMOOTH",
"438 548 OFFCURVE",
"484 471 OFFCURVE",
"484 302 CURVE SMOOTH",
"484 214 OFFCURVE",
"459 138 OFFCURVE",
"436 87 CURVE",
"411 77 OFFCURVE",
"364 69 OFFCURVE",
"317 69 CURVE SMOOTH"
);
},
{
closed = 1;
nodes = (
"236 708 OFFCURVE",
"246 727 OFFCURVE",
"273 727 CURVE SMOOTH",
"308 727 OFFCURVE",
"335 686 OFFCURVE",
"382 686 CURVE SMOOTH",
"437 686 OFFCURVE",
"462 717 OFFCURVE",
"466 782 CURVE",
"411 800 LINE",
"408 774 OFFCURVE",
"398 755 OFFCURVE",
"371 755 CURVE SMOOTH",
"342 755 OFFCURVE",
"304 796 OFFCURVE",
"262 796 CURVE SMOOTH",
"207 796 OFFCURVE",
"182 765 OFFCURVE",
"178 700 CURVE",
"233 682 LINE"
);
}
);
width = 656;
}
);
leftKerningGroup = O;
note = Ohorntilde;
unicode = 1EE0;
},
{
glyphname = Ohungarumlaut;
lastChange = "2015-07-19 17:32:40 +0000";
layers = (
{
layerId = "E35F1BB4-987F-4EDF-94B4-0283FA17DEFF";
name = Regular;
paths = (
{
closed = 1;
nodes = (
"498 -8 OFFCURVE",
"569 101 OFFCURVE",
"569 321 CURVE SMOOTH",
"569 522 OFFCURVE",
"490 626 OFFCURVE",
"318 626 CURVE SMOOTH",
"123 626 OFFCURVE",
"52 516 OFFCURVE",
"52 296 CURVE SMOOTH",
"52 95 OFFCURVE",
"139 -8 OFFCURVE",
"303 -8 CURVE SMOOTH"
);
},
{
closed = 1;
nodes = (
"184 70 OFFCURVE",
"137 146 OFFCURVE",
"137 315 CURVE SMOOTH",
"137 403 OFFCURVE",
"155 476 OFFCURVE",
"180 530 CURVE",
"205 540 OFFCURVE",
"257 548 OFFCURVE",
"304 548 CURVE SMOOTH",
"438 548 OFFCURVE",
"484 471 OFFCURVE",
"484 302 CURVE SMOOTH",
"484 214 OFFCURVE",
"459 139 OFFCURVE",
"436 88 CURVE",
"411 78 OFFCURVE",
"364 70 OFFCURVE",
"317 70 CURVE SMOOTH"
);
},
{
closed = 1;
nodes = (
"266 719 OFFCURVE",
"285 765 OFFCURVE",
"285 806 CURVE SMOOTH",
"285 854 OFFCURVE",
"265 878 OFFCURVE",
"219 878 CURVE SMOOTH",
"203 878 OFFCURVE",
"187 875 OFFCURVE",
"171 869 CURVE",
"171 813 LINE",
"224 813 LINE",
"224 773 OFFCURVE",
"211 735 OFFCURVE",
"190 696 CURVE",
"237 685 LINE"
);
},
{
closed = 1;
nodes = (
"431 719 OFFCURVE",
"450 765 OFFCURVE",
"450 806 CURVE SMOOTH",
"450 854 OFFCURVE",
"432 878 OFFCURVE",
"386 878 CURVE SMOOTH",
"370 878 OFFCURVE",
"352 875 OFFCURVE",
"336 869 CURVE",
"336 813 LINE",
"389 813 LINE",
"389 773 OFFCURVE",
"376 735 OFFCURVE",
"355 696 CURVE",
"402 685 LINE"
);
}
);
width = 621;
}
);
leftKerningGroup = O;
note = Ohungarumlaut;
rightKerningGroup = O;
unicode = 0150;
},
{
glyphname = Omacron;
lastChange = "2015-07-19 17:32:40 +0000";
layers = (
{
layerId = "E35F1BB4-987F-4EDF-94B4-0283FA17DEFF";
name = Regular;
paths = (
{
closed = 1;
nodes = (
"498 -8 OFFCURVE",
"569 101 OFFCURVE",
"569 321 CURVE SMOOTH",
"569 522 OFFCURVE",
"490 626 OFFCURVE",
"318 626 CURVE SMOOTH",
"123 626 OFFCURVE",
"52 516 OFFCURVE",
"52 296 CURVE SMOOTH",
"52 95 OFFCURVE",
"139 -8 OFFCURVE",
"303 -8 CURVE SMOOTH"
);
},
{
closed = 1;
nodes = (
"184 70 OFFCURVE",
"137 146 OFFCURVE",
"137 315 CURVE SMOOTH",
"137 403 OFFCURVE",
"155 476 OFFCURVE",
"180 530 CURVE",
"205 540 OFFCURVE",
"257 548 OFFCURVE",
"304 548 CURVE SMOOTH",
"438 548 OFFCURVE",
"484 471 OFFCURVE",
"484 302 CURVE SMOOTH",
"484 214 OFFCURVE",
"459 139 OFFCURVE",
"436 88 CURVE",
"411 78 OFFCURVE",
"364 70 OFFCURVE",
"317 70 CURVE SMOOTH"
);
},
{
closed = 1;
nodes = (
"463 696 LINE",
"463 766 LINE",
"157 766 LINE",
"157 696 LINE"
);
}
);
width = 621;
}
);
leftKerningGroup = O;
note = Omacron;
rightKerningGroup = O;
unicode = 014C;
},
{
glyphname = Oslash;
lastChange = "2015-07-19 17:32:40 +0000";
layers = (
{
layerId = "E35F1BB4-987F-4EDF-94B4-0283FA17DEFF";
name = Regular;
paths = (
{
closed = 1;
nodes = (
"206 6 LINE",
"234 -4 OFFCURVE",
"267 -9 OFFCURVE",
"303 -9 CURVE SMOOTH",
"498 -9 OFFCURVE",
"569 101 OFFCURVE",
"569 321 CURVE SMOOTH",
"569 447 OFFCURVE",
"538 535 OFFCURVE",
"472 583 CURVE",
"510 666 LINE",
"440 683 LINE",
"408 614 LINE",
"382 622 OFFCURVE",
"351 626 OFFCURVE",
"318 626 CURVE SMOOTH",
"123 626 OFFCURVE",
"52 516 OFFCURVE",
"52 296 CURVE SMOOTH",
"52 175 OFFCURVE",
"83 89 OFFCURVE",
"144 40 CURVE",
"99 -57 LINE",
"169 -75 LINE"
);
},
{
closed = 1;
nodes = (
"150 162 OFFCURVE",
"137 226 OFFCURVE",
"137 315 CURVE SMOOTH",
"137 403 OFFCURVE",
"155 476 OFFCURVE",
"180 530 CURVE",
"205 540 OFFCURVE",
"257 548 OFFCURVE",
"304 548 CURVE SMOOTH",
"330 548 OFFCURVE",
"353 544 OFFCURVE",
"373 538 CURVE",
"181 122 LINE"
);
},
{
closed = 1;
nodes = (
"287 69 OFFCURVE",
"262 73 OFFCURVE",
"240 81 CURVE",
"434 501 LINE",
"470 462 OFFCURVE",
"484 396 OFFCURVE",
"484 302 CURVE SMOOTH",
"484 214 OFFCURVE",
"459 138 OFFCURVE",
"436 87 CURVE",
"411 77 OFFCURVE",
"364 69 OFFCURVE",
"317 69 CURVE SMOOTH"
);
}
);
width = 621;
}
);
leftKerningGroup = O;
note = Oslash;
rightKerningGroup = O;
unicode = 00D8;
},
{
glyphname = Oslashacute;
lastChange = "2015-07-19 17:32:40 +0000";
layers = (
{
layerId = "E35F1BB4-987F-4EDF-94B4-0283FA17DEFF";
name = Regular;
paths = (
{
closed = 1;
nodes = (
"206 6 LINE",
"234 -4 OFFCURVE",
"267 -9 OFFCURVE",
"303 -9 CURVE SMOOTH",
"498 -9 OFFCURVE",
"569 101 OFFCURVE",
"569 321 CURVE SMOOTH",
"569 447 OFFCURVE",
"538 535 OFFCURVE",
"472 583 CURVE",
"510 666 LINE",
"440 683 LINE",
"408 614 LINE",
"382 622 OFFCURVE",
"351 626 OFFCURVE",
"318 626 CURVE SMOOTH",
"123 626 OFFCURVE",
"52 516 OFFCURVE",
"52 296 CURVE SMOOTH",
"52 175 OFFCURVE",
"83 89 OFFCURVE",
"144 40 CURVE",
"99 -57 LINE",
"169 -75 LINE"
);
},
{
closed = 1;
nodes = (
"150 162 OFFCURVE",
"137 226 OFFCURVE",
"137 315 CURVE SMOOTH",
"137 403 OFFCURVE",
"155 476 OFFCURVE",
"180 530 CURVE",
"205 540 OFFCURVE",
"257 548 OFFCURVE",
"304 548 CURVE SMOOTH",
"330 548 OFFCURVE",
"353 544 OFFCURVE",
"373 538 CURVE",
"181 122 LINE"
);
},
{
closed = 1;
nodes = (
"287 69 OFFCURVE",
"262 73 OFFCURVE",
"240 81 CURVE",
"434 501 LINE",
"470 462 OFFCURVE",
"484 396 OFFCURVE",
"484 302 CURVE SMOOTH",
"484 214 OFFCURVE",
"459 138 OFFCURVE",
"436 87 CURVE",
"411 77 OFFCURVE",
"364 69 OFFCURVE",
"317 69 CURVE SMOOTH"
);
},
{
closed = 1;
nodes = (
"458 830 LINE",
"352 841 LINE",
"269 696 LINE",
"333 686 LINE"
);
}
);
width = 621;
}
);
leftKerningGroup = O;
note = Oslashacute;
rightKerningGroup = O;
unicode = 01FE;
},
{
glyphname = Otilde;
lastChange = "2015-07-19 17:32:40 +0000";
layers = (
{
layerId = "E35F1BB4-987F-4EDF-94B4-0283FA17DEFF";
name = Regular;
paths = (
{
closed = 1;
nodes = (
"498 -8 OFFCURVE",
"569 101 OFFCURVE",
"569 321 CURVE SMOOTH",
"569 522 OFFCURVE",
"490 626 OFFCURVE",
"318 626 CURVE SMOOTH",
"123 626 OFFCURVE",
"52 516 OFFCURVE",
"52 296 CURVE SMOOTH",
"52 95 OFFCURVE",
"139 -8 OFFCURVE",
"303 -8 CURVE SMOOTH"
);
},
{
closed = 1;
nodes = (
"184 70 OFFCURVE",
"137 146 OFFCURVE",
"137 315 CURVE SMOOTH",
"137 403 OFFCURVE",
"155 476 OFFCURVE",
"180 530 CURVE",
"205 540 OFFCURVE",
"257 548 OFFCURVE",
"304 548 CURVE SMOOTH",
"438 548 OFFCURVE",
"484 471 OFFCURVE",
"484 302 CURVE SMOOTH",
"484 214 OFFCURVE",
"459 139 OFFCURVE",
"436 88 CURVE",
"411 78 OFFCURVE",
"364 70 OFFCURVE",
"317 70 CURVE SMOOTH"
);
},
{
closed = 1;
nodes = (
"229 704 OFFCURVE",
"239 723 OFFCURVE",
"266 723 CURVE SMOOTH",
"301 723 OFFCURVE",
"328 682 OFFCURVE",
"375 682 CURVE SMOOTH",
"430 682 OFFCURVE",
"455 713 OFFCURVE",
"459 778 CURVE",
"404 796 LINE",
"401 770 OFFCURVE",
"391 751 OFFCURVE",
"364 751 CURVE SMOOTH",
"335 751 OFFCURVE",
"297 792 OFFCURVE",
"255 792 CURVE SMOOTH",
"200 792 OFFCURVE",
"175 761 OFFCURVE",
"171 696 CURVE",
"226 678 LINE"
);
}
);
width = 621;
}
);
leftKerningGroup = O;
note = Otilde;
rightKerningGroup = O;
unicode = 00D5;
},
{
glyphname = OE;
lastChange = "2015-07-19 17:32:27 +0000";
layers = (
{
layerId = "E35F1BB4-987F-4EDF-94B4-0283FA17DEFF";
name = Regular;
paths = (
{
closed = 1;
nodes = (
"725 -10 OFFCURVE",
"789 -4 OFFCURVE",
"840 11 CURVE",
"821 85 LINE",
"771 73 OFFCURVE",
"711 67 OFFCURVE",
"655 67 CURVE SMOOTH",
"607 67 OFFCURVE",
"562 73 OFFCURVE",
"520 86 CURVE",
"520 270 LINE",
"800 270 LINE",
"800 345 LINE",
"520 345 LINE",
"520 539 LINE",
"829 539 LINE",
"829 616 LINE",
"436 616 LINE",
"402 622 OFFCURVE",
"363 626 OFFCURVE",
"318 626 CURVE SMOOTH",
"123 626 OFFCURVE",
"52 516 OFFCURVE",
"52 296 CURVE SMOOTH",
"52 95 OFFCURVE",
"139 -9 OFFCURVE",
"303 -9 CURVE SMOOTH",
"366 -9 OFFCURVE",
"423 4 OFFCURVE",
"467 30 CURVE",
"473 30 LINE",
"514 3 OFFCURVE",
"575 -10 OFFCURVE",
"648 -10 CURVE SMOOTH"
);
},
{
closed = 1;
nodes = (
"184 69 OFFCURVE",
"137 146 OFFCURVE",
"137 315 CURVE SMOOTH",
"137 403 OFFCURVE",
"155 476 OFFCURVE",
"180 530 CURVE",
"205 540 OFFCURVE",
"257 548 OFFCURVE",
"304 548 CURVE SMOOTH",
"360 548 OFFCURVE",
"386 547 OFFCURVE",
"436 539 CURVE",
"436 87 LINE",
"411 77 OFFCURVE",
"364 69 OFFCURVE",
"317 69 CURVE SMOOTH"
);
}
);
width = 900;
}
);
leftKerningGroup = O;
note = OE;
unicode = 0152;
},
{
glyphname = P;
lastChange = "2015-07-19 15:35:22 +0000";
layers = (
{
layerId = "E35F1BB4-987F-4EDF-94B4-0283FA17DEFF";
name = Regular;
paths = (
{
closed = 1;
nodes = (
"160 0 LINE",
"160 197 LINE",
"232 197 LINE SMOOTH",
"414 197 OFFCURVE",
"495 268 OFFCURVE",
"495 418 CURVE SMOOTH",
"495 559 OFFCURVE",
"403 626 OFFCURVE",
"248 626 CURVE SMOOTH",
"189 626 OFFCURVE",
"127 615 OFFCURVE",
"75 600 CURVE",
"75 0 LINE"
);
},
{
closed = 1;
nodes = (
"160 541 LINE",
"184 547 OFFCURVE",
"216 549 OFFCURVE",
"247 549 CURVE SMOOTH",
"342 549 OFFCURVE",
"409 516 OFFCURVE",
"409 415 CURVE SMOOTH",
"409 362 OFFCURVE",
"398 316 OFFCURVE",
"376 286 CURVE",
"338 276 OFFCURVE",
"292 273 OFFCURVE",
"222 273 CURVE SMOOTH",
"160 273 LINE"
);
}
);
width = 527;
}
);
note = P;
unicode = 0050;
},
{
glyphname = Thorn;
lastChange = "2015-07-19 15:35:22 +0000";
layers = (
{
layerId = "E35F1BB4-987F-4EDF-94B4-0283FA17DEFF";
name = Regular;
paths = (
{
closed = 1;
nodes = (
"160 0 LINE",
"160 143 LINE",
"250 143 LINE SMOOTH",
"368 143 OFFCURVE",
"449 200 OFFCURVE",
"449 325 CURVE SMOOTH",
"449 444 OFFCURVE",
"369 502 OFFCURVE",
"250 502 CURVE SMOOTH",
"160 502 LINE",
"160 616 LINE",
"75 616 LINE",
"75 0 LINE"
);
},
{
closed = 1;
nodes = (
"160 428 LINE",
"246 428 LINE SMOOTH",
"329 428 OFFCURVE",
"364 402 OFFCURVE",
"364 325 CURVE SMOOTH",
"364 252 OFFCURVE",
"334 217 OFFCURVE",
"246 217 CURVE SMOOTH",
"160 217 LINE"
);
}
);
width = 489;
}
);
note = Thorn;
unicode = 00DE;
},
{
glyphname = Q;
lastChange = "2015-07-19 17:56:46 +0000";
layers = (
{
layerId = "E35F1BB4-987F-4EDF-94B4-0283FA17DEFF";
name = Regular;
paths = (
{
closed = 1;
nodes = (
"437 -137 OFFCURVE",
"495 -134 OFFCURVE",
"540 -121 CURVE",
"525 -58 LINE",
"480 -68 OFFCURVE",
"424 -71 OFFCURVE",
"380 -71 CURVE SMOOTH",
"354 -71 OFFCURVE",
"323 -69 OFFCURVE",
"304 -65 CURVE",
"304 1 LINE",
"307 1 OFFCURVE",
"310 1 OFFCURVE",
"313 1 CURVE SMOOTH",
"500 4 OFFCURVE",
"569 109 OFFCURVE",
"569 326 CURVE SMOOTH",
"569 527 OFFCURVE",
"490 626 OFFCURVE",
"318 626 CURVE SMOOTH",
"123 626 OFFCURVE",
"52 521 OFFCURVE",
"52 301 CURVE SMOOTH",
"52 127 OFFCURVE",
"117 29 OFFCURVE",
"241 6 CURVE",
"221 -62 LINE",
"221 -113 LINE",
"249 -126 OFFCURVE",
"329 -137 OFFCURVE",
"381 -137 CURVE SMOOTH"
);
},
{
closed = 1;
nodes = (
"184 79 OFFCURVE",
"137 151 OFFCURVE",
"137 320 CURVE SMOOTH",
"137 402 OFFCURVE",
"155 476 OFFCURVE",
"180 530 CURVE",
"205 540 OFFCURVE",
"257 548 OFFCURVE",
"304 548 CURVE SMOOTH",
"438 548 OFFCURVE",
"484 476 OFFCURVE",
"484 307 CURVE SMOOTH",
"484 223 OFFCURVE",
"459 148 OFFCURVE",
"436 97 CURVE",
"411 87 OFFCURVE",
"364 79 OFFCURVE",
"317 79 CURVE SMOOTH"
);
}
);
width = 623;
}
);
note = Q;
unicode = 0051;
},
{
glyphname = R;
lastChange = "2015-07-19 15:35:22 +0000";
layers = (
{
layerId = "E35F1BB4-987F-4EDF-94B4-0283FA17DEFF";
name = Regular;
paths = (
{
closed = 1;
nodes = (
"522 -8 OFFCURVE",
"538 -5 OFFCURVE",
"557 1 CURVE",
"557 49 LINE",
"507 58 LINE",
"439 205 LINE SMOOTH",
"425 235 OFFCURVE",
"408 254 OFFCURVE",
"380 268 CURVE",
"380 277 LINE",
"446 309 OFFCURVE",
"479 364 OFFCURVE",
"479 443 CURVE SMOOTH",
"479 572 OFFCURVE",
"400 626 OFFCURVE",
"248 626 CURVE SMOOTH",
"189 626 OFFCURVE",
"127 615 OFFCURVE",
"75 600 CURVE",
"75 0 LINE",
"160 0 LINE",
"160 247 LINE",
"256 247 LINE SMOOTH",
"326 247 OFFCURVE",
"340 220 OFFCURVE",
"362 170 CURVE SMOOTH",
"420 35 LINE SMOOTH",
"434 4 OFFCURVE",
"456 -8 OFFCURVE",
"491 -8 CURVE SMOOTH"
);
},
{
closed = 1;
nodes = (
"160 541 LINE",
"184 547 OFFCURVE",
"216 549 OFFCURVE",
"247 549 CURVE SMOOTH",
"347 549 OFFCURVE",
"393 523 OFFCURVE",
"393 440 CURVE SMOOTH",
"393 379 OFFCURVE",
"372 347 OFFCURVE",
"329 323 CURVE",
"160 323 LINE"
);
}
);
width = 586;
}
);
note = R;
unicode = 0052;
},
{
glyphname = Racute;
lastChange = "2015-07-19 15:35:22 +0000";
layers = (
{
layerId = "E35F1BB4-987F-4EDF-94B4-0283FA17DEFF";
name = Regular;
paths = (
{
closed = 1;
nodes = (
"522 -8 OFFCURVE",
"538 -5 OFFCURVE",
"557 1 CURVE",
"557 49 LINE",
"507 58 LINE",
"439 205 LINE SMOOTH",
"425 235 OFFCURVE",
"408 254 OFFCURVE",
"380 268 CURVE",
"380 277 LINE",
"446 309 OFFCURVE",
"479 364 OFFCURVE",
"479 443 CURVE SMOOTH",
"479 572 OFFCURVE",
"400 626 OFFCURVE",
"248 626 CURVE SMOOTH",
"189 626 OFFCURVE",
"127 615 OFFCURVE",
"75 600 CURVE",
"75 0 LINE",
"160 0 LINE",
"160 247 LINE",
"256 247 LINE SMOOTH",
"326 247 OFFCURVE",
"340 220 OFFCURVE",
"362 170 CURVE SMOOTH",
"420 35 LINE SMOOTH",
"434 4 OFFCURVE",
"456 -8 OFFCURVE",
"491 -8 CURVE SMOOTH"
);
},
{
closed = 1;
nodes = (
"160 541 LINE",
"184 547 OFFCURVE",
"216 549 OFFCURVE",
"247 549 CURVE SMOOTH",
"347 549 OFFCURVE",
"393 523 OFFCURVE",
"393 440 CURVE SMOOTH",
"393 379 OFFCURVE",
"372 347 OFFCURVE",
"329 323 CURVE",
"160 323 LINE"
);
},
{
closed = 1;
nodes = (
"406 830 LINE",
"300 841 LINE",
"217 696 LINE",
"281 686 LINE"
);
}
);
width = 586;
}
);
note = Racute;
unicode = 0154;
},
{
glyphname = Rcaron;
lastChange = "2015-07-19 15:35:22 +0000";
layers = (
{
layerId = "E35F1BB4-987F-4EDF-94B4-0283FA17DEFF";
name = Regular;
paths = (
{
closed = 1;
nodes = (
"522 -8 OFFCURVE",
"538 -5 OFFCURVE",
"557 1 CURVE",
"557 49 LINE",
"507 58 LINE",
"439 205 LINE SMOOTH",
"425 235 OFFCURVE",
"408 254 OFFCURVE",
"380 268 CURVE",
"380 277 LINE",
"446 309 OFFCURVE",
"479 364 OFFCURVE",
"479 443 CURVE SMOOTH",
"479 572 OFFCURVE",
"400 626 OFFCURVE",
"248 626 CURVE SMOOTH",
"189 626 OFFCURVE",
"127 615 OFFCURVE",
"75 600 CURVE",
"75 0 LINE",
"160 0 LINE",
"160 247 LINE",
"256 247 LINE SMOOTH",
"326 247 OFFCURVE",
"340 220 OFFCURVE",
"362 170 CURVE SMOOTH",
"420 35 LINE SMOOTH",
"434 4 OFFCURVE",
"456 -8 OFFCURVE",
"491 -8 CURVE SMOOTH"
);
},
{
closed = 1;
nodes = (
"160 541 LINE",
"184 547 OFFCURVE",
"216 549 OFFCURVE",
"247 549 CURVE SMOOTH",
"347 549 OFFCURVE",
"393 523 OFFCURVE",
"393 440 CURVE SMOOTH",
"393 379 OFFCURVE",
"372 347 OFFCURVE",
"329 323 CURVE",
"160 323 LINE"
);
},
{
closed = 1;
nodes = (
"307 696 LINE",
"406 829 LINE",
"353 840 LINE",
"272 765 LINE",
"267 765 LINE",
"183 840 LINE",
"132 829 LINE",
"232 696 LINE"
);
}
);
width = 586;
}
);
note = Rcaron;
unicode = 0158;
},
{
glyphname = Rcommaaccent;
lastChange = "2015-07-19 15:35:22 +0000";
layers = (
{
layerId = "E35F1BB4-987F-4EDF-94B4-0283FA17DEFF";
name = Regular;
paths = (
{
closed = 1;
nodes = (
"522 -8 OFFCURVE",
"538 -5 OFFCURVE",
"557 1 CURVE",
"557 49 LINE",
"507 58 LINE",
"439 205 LINE SMOOTH",
"425 235 OFFCURVE",
"408 254 OFFCURVE",
"380 268 CURVE",
"380 277 LINE",
"446 309 OFFCURVE",
"479 364 OFFCURVE",
"479 443 CURVE SMOOTH",
"479 572 OFFCURVE",
"400 626 OFFCURVE",
"248 626 CURVE SMOOTH",
"189 626 OFFCURVE",
"127 615 OFFCURVE",
"75 600 CURVE",
"75 0 LINE",
"160 0 LINE",
"160 247 LINE",
"266 247 LINE SMOOTH",
"327 244 OFFCURVE",
"341 217 OFFCURVE",
"362 170 CURVE SMOOTH",
"420 35 LINE SMOOTH",
"434 4 OFFCURVE",
"456 -8 OFFCURVE",
"491 -8 CURVE SMOOTH"
);
},
{
closed = 1;
nodes = (
"325 -229 OFFCURVE",
"344 -183 OFFCURVE",
"344 -142 CURVE SMOOTH",
"344 -94 OFFCURVE",
"324 -70 OFFCURVE",
"278 -70 CURVE SMOOTH",
"262 -70 OFFCURVE",
"244 -73 OFFCURVE",
"228 -79 CURVE",
"228 -135 LINE",
"281 -135 LINE",
"281 -175 OFFCURVE",
"268 -213 OFFCURVE",
"247 -252 CURVE",
"296 -263 LINE"
);
},
{
closed = 1;
nodes = (
"160 541 LINE",
"184 547 OFFCURVE",
"216 549 OFFCURVE",
"247 549 CURVE SMOOTH",
"347 549 OFFCURVE",
"393 523 OFFCURVE",
"393 440 CURVE SMOOTH",
"393 379 OFFCURVE",
"372 347 OFFCURVE",
"329 323 CURVE",
"160 323 LINE"
);
}
);
width = 586;
}
);
note = Rcommaaccent;
unicode = 0156;
},
{
glyphname = Rdotbelow;
lastChange = "2015-07-19 15:35:22 +0000";
layers = (
{
layerId = "E35F1BB4-987F-4EDF-94B4-0283FA17DEFF";
name = Regular;
paths = (
{
closed = 1;
nodes = (
"522 -8 OFFCURVE",
"538 -5 OFFCURVE",
"557 1 CURVE",
"557 49 LINE",
"507 58 LINE",
"439 205 LINE SMOOTH",
"425 235 OFFCURVE",
"408 254 OFFCURVE",
"380 268 CURVE",
"380 277 LINE",
"446 309 OFFCURVE",
"479 364 OFFCURVE",
"479 443 CURVE SMOOTH",
"479 572 OFFCURVE",
"400 626 OFFCURVE",
"248 626 CURVE SMOOTH",
"189 626 OFFCURVE",
"127 615 OFFCURVE",
"75 600 CURVE",
"75 0 LINE",
"160 0 LINE",
"160 247 LINE",
"256 247 LINE SMOOTH",
"326 247 OFFCURVE",
"340 220 OFFCURVE",
"362 170 CURVE SMOOTH",
"420 35 LINE SMOOTH",
"434 4 OFFCURVE",
"456 -8 OFFCURVE",
"491 -8 CURVE SMOOTH"
);
},
{
closed = 1;
nodes = (
"330 -178 OFFCURVE",
"352 -157 OFFCURVE",
"352 -122 CURVE SMOOTH",
"352 -85 OFFCURVE",
"330 -64 OFFCURVE",
"292 -64 CURVE SMOOTH",
"254 -64 OFFCURVE",
"232 -85 OFFCURVE",
"232 -122 CURVE SMOOTH",
"232 -157 OFFCURVE",
"254 -178 OFFCURVE",
"292 -178 CURVE SMOOTH"
);
},
{
closed = 1;
nodes = (
"160 541 LINE",
"184 547 OFFCURVE",
"216 549 OFFCURVE",
"247 549 CURVE SMOOTH",
"347 549 OFFCURVE",
"393 523 OFFCURVE",
"393 440 CURVE SMOOTH",
"393 379 OFFCURVE",
"372 347 OFFCURVE",
"329 323 CURVE",
"160 323 LINE"
);
}
);
width = 586;
}
);
note = Rdotbelow;
unicode = 1E5A;
},
{
glyphname = Rdotbelowmacron;
lastChange = "2015-07-19 15:35:22 +0000";
layers = (
{
layerId = "E35F1BB4-987F-4EDF-94B4-0283FA17DEFF";
name = Regular;
paths = (
{
closed = 1;
nodes = (
"522 -8 OFFCURVE",
"538 -5 OFFCURVE",
"557 1 CURVE",
"557 49 LINE",
"507 58 LINE",
"439 205 LINE SMOOTH",
"425 235 OFFCURVE",
"408 254 OFFCURVE",
"380 268 CURVE",
"380 277 LINE",
"446 309 OFFCURVE",
"479 364 OFFCURVE",
"479 443 CURVE SMOOTH",
"479 572 OFFCURVE",
"400 626 OFFCURVE",
"248 626 CURVE SMOOTH",
"189 626 OFFCURVE",
"127 615 OFFCURVE",
"75 600 CURVE",
"75 0 LINE",
"160 0 LINE",
"160 247 LINE",
"256 247 LINE SMOOTH",
"326 247 OFFCURVE",
"340 220 OFFCURVE",
"362 170 CURVE SMOOTH",
"420 35 LINE SMOOTH",
"434 4 OFFCURVE",
"456 -8 OFFCURVE",
"491 -8 CURVE SMOOTH"
);
},
{
closed = 1;
nodes = (
"322 -179 OFFCURVE",
"344 -158 OFFCURVE",
"344 -123 CURVE SMOOTH",
"344 -86 OFFCURVE",
"322 -65 OFFCURVE",
"284 -65 CURVE SMOOTH",
"246 -65 OFFCURVE",
"224 -86 OFFCURVE",
"224 -123 CURVE SMOOTH",
"224 -158 OFFCURVE",
"246 -179 OFFCURVE",
"284 -179 CURVE SMOOTH"
);
},
{
closed = 1;
nodes = (
"160 541 LINE",
"184 547 OFFCURVE",
"216 549 OFFCURVE",
"247 549 CURVE SMOOTH",
"347 549 OFFCURVE",
"393 523 OFFCURVE",
"393 440 CURVE SMOOTH",
"393 379 OFFCURVE",
"372 347 OFFCURVE",
"329 323 CURVE",
"160 323 LINE"
);
},
{
closed = 1;
nodes = (
"421 696 LINE",
"421 766 LINE",
"115 766 LINE",
"115 696 LINE"
);
}
);
width = 586;
}
);
note = Rdotbelowmacron;
unicode = 1E5C;
},
{
glyphname = Rlinebelow;
lastChange = "2015-07-19 16:39:37 +0000";
layers = (
{
layerId = "E35F1BB4-987F-4EDF-94B4-0283FA17DEFF";
name = Regular;
paths = (
{
closed = 1;
nodes = (
"522 -8 OFFCURVE",
"538 -5 OFFCURVE",
"557 1 CURVE",
"557 49 LINE",
"507 58 LINE",
"439 205 LINE SMOOTH",
"425 235 OFFCURVE",
"408 254 OFFCURVE",
"380 268 CURVE",
"380 277 LINE",
"446 309 OFFCURVE",
"479 364 OFFCURVE",
"479 443 CURVE SMOOTH",
"479 572 OFFCURVE",
"400 626 OFFCURVE",
"248 626 CURVE SMOOTH",
"189 626 OFFCURVE",
"127 615 OFFCURVE",
"75 600 CURVE",
"75 0 LINE",
"160 0 LINE",
"160 247 LINE",
"256 247 LINE SMOOTH",
"326 247 OFFCURVE",
"340 220 OFFCURVE",
"362 170 CURVE SMOOTH",
"420 35 LINE SMOOTH",
"434 4 OFFCURVE",
"456 -8 OFFCURVE",
"491 -8 CURVE SMOOTH"
);
},
{
closed = 1;
nodes = (
"385 -145 LINE",
"385 -70 LINE",
"75 -70 LINE",
"75 -145 LINE"
);
},
{
closed = 1;
nodes = (
"160 541 LINE",
"184 547 OFFCURVE",
"216 549 OFFCURVE",
"247 549 CURVE SMOOTH",
"347 549 OFFCURVE",
"393 523 OFFCURVE",
"393 440 CURVE SMOOTH",
"393 379 OFFCURVE",
"372 347 OFFCURVE",
"329 323 CURVE",
"160 323 LINE"
);
}
);
width = 586;
}
);
note = Rlinebelow;
unicode = 1E5E;
},
{
glyphname = S;
lastChange = "2015-07-19 17:32:59 +0000";
layers = (
{
layerId = "E35F1BB4-987F-4EDF-94B4-0283FA17DEFF";
name = Regular;
paths = (
{
closed = 1;
nodes = (
"417 -8 OFFCURVE",
"466 82 OFFCURVE",
"466 177 CURVE SMOOTH",
"466 279 OFFCURVE",
"403 320 OFFCURVE",
"279 348 CURVE SMOOTH",
"177 371 OFFCURVE",
"148 394 OFFCURVE",
"148 451 CURVE SMOOTH",
"148 518 OFFCURVE",
"177 550 OFFCURVE",
"265 550 CURVE SMOOTH",
"299 550 OFFCURVE",
"326 547 OFFCURVE",
"354 543 CURVE",
"367 458 LINE",
"428 458 LINE",
"437 483 OFFCURVE",
"445 518 OFFCURVE",
"445 548 CURVE SMOOTH",
"445 584 LINE",
"404 608 OFFCURVE",
"359 626 OFFCURVE",
"270 626 CURVE SMOOTH",
"111 626 OFFCURVE",
"63 535 OFFCURVE",
"63 444 CURVE SMOOTH",
"63 330 OFFCURVE",
"153 293 OFFCURVE",
"257 268 CURVE SMOOTH",
"349 246 OFFCURVE",
"381 220 OFFCURVE",
"381 159 CURVE SMOOTH",
"381 133 OFFCURVE",
"377 105 OFFCURVE",
"369 84 CURVE",
"339 77 OFFCURVE",
"304 73 OFFCURVE",
"261 73 CURVE SMOOTH",
"195 73 OFFCURVE",
"137 85 OFFCURVE",
"79 115 CURVE",
"50 41 LINE",
"113 7 OFFCURVE",
"181 -8 OFFCURVE",
"253 -8 CURVE SMOOTH"
);
}
);
width = 518;
}
);
leftKerningGroup = S;
note = S;
rightKerningGroup = S;
unicode = 0053;
},
{
glyphname = Sacute;
lastChange = "2015-07-19 17:32:59 +0000";
layers = (
{
layerId = "E35F1BB4-987F-4EDF-94B4-0283FA17DEFF";
name = Regular;
paths = (
{
closed = 1;
nodes = (
"417 -8 OFFCURVE",
"466 82 OFFCURVE",
"466 177 CURVE SMOOTH",
"466 279 OFFCURVE",
"403 320 OFFCURVE",
"279 348 CURVE SMOOTH",
"177 371 OFFCURVE",
"148 394 OFFCURVE",
"148 451 CURVE SMOOTH",
"148 518 OFFCURVE",
"177 550 OFFCURVE",
"265 550 CURVE SMOOTH",
"299 550 OFFCURVE",
"326 547 OFFCURVE",
"354 543 CURVE",
"367 458 LINE",
"428 458 LINE",
"437 483 OFFCURVE",
"445 518 OFFCURVE",
"445 548 CURVE SMOOTH",
"445 584 LINE",
"404 608 OFFCURVE",
"359 626 OFFCURVE",
"270 626 CURVE SMOOTH",
"111 626 OFFCURVE",
"63 535 OFFCURVE",
"63 444 CURVE SMOOTH",
"63 330 OFFCURVE",
"153 293 OFFCURVE",
"257 268 CURVE SMOOTH",
"349 246 OFFCURVE",
"381 220 OFFCURVE",
"381 159 CURVE SMOOTH",
"381 133 OFFCURVE",
"377 105 OFFCURVE",
"369 84 CURVE",
"339 77 OFFCURVE",
"304 73 OFFCURVE",
"261 73 CURVE SMOOTH",
"195 73 OFFCURVE",
"137 85 OFFCURVE",
"79 115 CURVE",
"50 41 LINE",
"113 7 OFFCURVE",
"181 -8 OFFCURVE",
"253 -8 CURVE SMOOTH"
);
},
{
closed = 1;
nodes = (
"402 830 LINE",
"296 841 LINE",
"213 696 LINE",
"277 686 LINE"
);
}
);
width = 518;
}
);
leftKerningGroup = S;
note = Sacute;
rightKerningGroup = S;
unicode = 015A;
},
{
glyphname = Scaron;
lastChange = "2015-07-19 17:32:59 +0000";
layers = (
{
layerId = "E35F1BB4-987F-4EDF-94B4-0283FA17DEFF";
name = Regular;
paths = (
{
closed = 1;
nodes = (
"417 -8 OFFCURVE",
"466 82 OFFCURVE",
"466 177 CURVE SMOOTH",
"466 279 OFFCURVE",
"403 320 OFFCURVE",
"279 348 CURVE SMOOTH",
"177 371 OFFCURVE",
"148 394 OFFCURVE",
"148 451 CURVE SMOOTH",
"148 518 OFFCURVE",
"177 550 OFFCURVE",
"265 550 CURVE SMOOTH",
"299 550 OFFCURVE",
"326 547 OFFCURVE",
"354 543 CURVE",
"367 458 LINE",
"428 458 LINE",
"437 483 OFFCURVE",
"445 518 OFFCURVE",
"445 548 CURVE SMOOTH",
"445 584 LINE",
"404 608 OFFCURVE",
"359 626 OFFCURVE",
"270 626 CURVE SMOOTH",
"111 626 OFFCURVE",
"63 535 OFFCURVE",
"63 444 CURVE SMOOTH",
"63 330 OFFCURVE",
"153 293 OFFCURVE",
"257 268 CURVE SMOOTH",
"349 246 OFFCURVE",
"381 220 OFFCURVE",
"381 159 CURVE SMOOTH",
"381 133 OFFCURVE",
"377 105 OFFCURVE",
"369 84 CURVE",
"339 77 OFFCURVE",
"304 73 OFFCURVE",
"261 73 CURVE SMOOTH",
"195 73 OFFCURVE",
"137 85 OFFCURVE",
"79 115 CURVE",
"50 41 LINE",
"113 7 OFFCURVE",
"181 -8 OFFCURVE",
"253 -8 CURVE SMOOTH"
);
},
{
closed = 1;
nodes = (
"306 696 LINE",
"405 829 LINE",
"352 840 LINE",
"271 765 LINE",
"266 765 LINE",
"182 840 LINE",
"131 829 LINE",
"231 696 LINE"
);
}
);
width = 518;
}
);
leftKerningGroup = S;
note = Scaron;
rightKerningGroup = S;
unicode = 0160;
},
{
glyphname = Scedilla;
lastChange = "2015-07-19 17:32:59 +0000";
layers = (
{
layerId = "E35F1BB4-987F-4EDF-94B4-0283FA17DEFF";
name = Regular;
paths = (
{
closed = 1;
nodes = (
"345 -216 OFFCURVE",
"379 -186 OFFCURVE",
"379 -128 CURVE SMOOTH",
"379 -82 OFFCURVE",
"356 -52 OFFCURVE",
"300 -52 CURVE SMOOTH",
"285 -52 OFFCURVE",
"272 -54 OFFCURVE",
"261 -59 CURVE",
"299 -5 LINE",
"426 10 OFFCURVE",
"466 91 OFFCURVE",
"466 177 CURVE SMOOTH",
"466 279 OFFCURVE",
"403 320 OFFCURVE",
"279 348 CURVE SMOOTH",
"177 371 OFFCURVE",
"148 394 OFFCURVE",
"148 451 CURVE SMOOTH",
"148 518 OFFCURVE",
"177 550 OFFCURVE",
"265 550 CURVE SMOOTH",
"299 550 OFFCURVE",
"326 547 OFFCURVE",
"354 543 CURVE",
"367 458 LINE",
"428 458 LINE",
"437 483 OFFCURVE",
"445 518 OFFCURVE",
"445 548 CURVE SMOOTH",
"445 584 LINE",
"404 608 OFFCURVE",
"359 626 OFFCURVE",
"270 626 CURVE SMOOTH",
"111 626 OFFCURVE",
"63 535 OFFCURVE",
"63 444 CURVE SMOOTH",
"63 330 OFFCURVE",
"153 293 OFFCURVE",
"257 268 CURVE SMOOTH",
"349 246 OFFCURVE",
"381 220 OFFCURVE",
"381 159 CURVE SMOOTH",
"381 133 OFFCURVE",
"377 105 OFFCURVE",
"369 84 CURVE",
"339 77 OFFCURVE",
"304 73 OFFCURVE",
"261 73 CURVE SMOOTH",
"195 73 OFFCURVE",
"137 85 OFFCURVE",
"79 115 CURVE",
"50 41 LINE",
"106 10 OFFCURVE",
"167 -5 OFFCURVE",
"231 -7 CURVE",
"183 -66 LINE",
"226 -109 LINE",
"236 -104 OFFCURVE",
"251 -101 OFFCURVE",
"266 -101 CURVE SMOOTH",
"293 -101 OFFCURVE",
"311 -109 OFFCURVE",
"311 -131 CURVE SMOOTH",
"311 -142 OFFCURVE",
"310 -148 OFFCURVE",
"307 -157 CURVE",
"292 -160 OFFCURVE",
"278 -161 OFFCURVE",
"260 -161 CURVE SMOOTH",
"242 -161 OFFCURVE",
"213 -157 OFFCURVE",
"195 -150 CURVE",
"178 -199 LINE",
"208 -213 OFFCURVE",
"239 -216 OFFCURVE",
"267 -216 CURVE SMOOTH"
);
}
);
width = 518;
}
);
leftKerningGroup = S;
note = Scedilla;
rightKerningGroup = S;
unicode = 015E;
},
{
glyphname = Scircumflex;
lastChange = "2015-07-19 17:32:59 +0000";
layers = (
{
layerId = "E35F1BB4-987F-4EDF-94B4-0283FA17DEFF";
name = Regular;
paths = (
{
closed = 1;
nodes = (
"417 -8 OFFCURVE",
"466 82 OFFCURVE",
"466 177 CURVE SMOOTH",
"466 279 OFFCURVE",
"403 320 OFFCURVE",
"279 348 CURVE SMOOTH",
"177 371 OFFCURVE",
"148 394 OFFCURVE",
"148 451 CURVE SMOOTH",
"148 518 OFFCURVE",
"177 550 OFFCURVE",
"265 550 CURVE SMOOTH",
"299 550 OFFCURVE",
"326 547 OFFCURVE",
"354 543 CURVE",
"367 458 LINE",
"428 458 LINE",
"437 483 OFFCURVE",
"445 518 OFFCURVE",
"445 548 CURVE SMOOTH",
"445 584 LINE",
"404 608 OFFCURVE",
"359 626 OFFCURVE",
"270 626 CURVE SMOOTH",
"111 626 OFFCURVE",
"63 535 OFFCURVE",
"63 444 CURVE SMOOTH",
"63 330 OFFCURVE",
"153 293 OFFCURVE",
"257 268 CURVE SMOOTH",
"349 246 OFFCURVE",
"381 220 OFFCURVE",
"381 159 CURVE SMOOTH",
"381 133 OFFCURVE",
"377 105 OFFCURVE",
"369 84 CURVE",
"339 77 OFFCURVE",
"304 73 OFFCURVE",
"261 73 CURVE SMOOTH",
"195 73 OFFCURVE",
"137 85 OFFCURVE",
"79 115 CURVE",
"50 41 LINE",
"113 7 OFFCURVE",
"181 -8 OFFCURVE",
"253 -8 CURVE SMOOTH"
);
},
{
closed = 1;
nodes = (
"266 759 LINE",
"271 759 LINE",
"352 684 LINE",
"405 695 LINE",
"306 828 LINE",
"231 828 LINE",
"131 695 LINE",
"182 684 LINE"
);
}
);
width = 518;
}
);
leftKerningGroup = S;
note = Scircumflex;
rightKerningGroup = S;
unicode = 015C;
},
{
glyphname = Scommaaccent;
lastChange = "2015-07-19 17:32:59 +0000";
layers = (
{
layerId = "E35F1BB4-987F-4EDF-94B4-0283FA17DEFF";
name = Regular;
paths = (
{
closed = 1;
nodes = (
"417 -8 OFFCURVE",
"466 82 OFFCURVE",
"466 177 CURVE SMOOTH",
"466 279 OFFCURVE",
"403 320 OFFCURVE",
"279 348 CURVE SMOOTH",
"177 371 OFFCURVE",
"148 394 OFFCURVE",
"148 451 CURVE SMOOTH",
"148 518 OFFCURVE",
"177 550 OFFCURVE",
"265 550 CURVE SMOOTH",
"299 550 OFFCURVE",
"326 547 OFFCURVE",
"354 543 CURVE",
"367 458 LINE",
"428 458 LINE",
"437 483 OFFCURVE",
"445 518 OFFCURVE",
"445 548 CURVE SMOOTH",
"445 584 LINE",
"404 608 OFFCURVE",
"359 626 OFFCURVE",
"270 626 CURVE SMOOTH",
"111 626 OFFCURVE",
"63 535 OFFCURVE",
"63 444 CURVE SMOOTH",
"63 330 OFFCURVE",
"153 293 OFFCURVE",
"257 268 CURVE SMOOTH",
"349 246 OFFCURVE",
"381 220 OFFCURVE",
"381 159 CURVE SMOOTH",
"381 133 OFFCURVE",
"377 105 OFFCURVE",
"369 84 CURVE",
"339 77 OFFCURVE",
"304 73 OFFCURVE",
"261 73 CURVE SMOOTH",
"195 73 OFFCURVE",
"137 85 OFFCURVE",
"79 115 CURVE",
"50 41 LINE",
"113 7 OFFCURVE",
"181 -8 OFFCURVE",
"253 -8 CURVE SMOOTH"
);
},
{
closed = 1;
nodes = (
"313 -229 OFFCURVE",
"332 -183 OFFCURVE",
"332 -142 CURVE SMOOTH",
"332 -94 OFFCURVE",
"312 -70 OFFCURVE",
"266 -70 CURVE SMOOTH",
"250 -70 OFFCURVE",
"232 -73 OFFCURVE",
"216 -79 CURVE",
"216 -135 LINE",
"269 -135 LINE",
"269 -175 OFFCURVE",
"256 -213 OFFCURVE",
"235 -252 CURVE",
"284 -263 LINE"
);
}
);
width = 518;
}
);
leftKerningGroup = S;
note = Scommaaccent;
rightKerningGroup = S;
unicode = 0218;
},
{
glyphname = Sdotaccent;
lastChange = "2015-07-19 17:32:59 +0000";
layers = (
{
layerId = "E35F1BB4-987F-4EDF-94B4-0283FA17DEFF";
name = Regular;
paths = (
{
closed = 1;
nodes = (
"417 -8 OFFCURVE",
"466 82 OFFCURVE",
"466 177 CURVE SMOOTH",
"466 279 OFFCURVE",
"403 320 OFFCURVE",
"279 348 CURVE SMOOTH",
"177 371 OFFCURVE",
"148 394 OFFCURVE",
"148 451 CURVE SMOOTH",
"148 518 OFFCURVE",
"177 550 OFFCURVE",
"265 550 CURVE SMOOTH",
"299 550 OFFCURVE",
"326 547 OFFCURVE",
"354 543 CURVE",
"367 458 LINE",
"428 458 LINE",
"437 483 OFFCURVE",
"445 518 OFFCURVE",
"445 548 CURVE SMOOTH",
"445 584 LINE",
"404 608 OFFCURVE",
"359 626 OFFCURVE",
"270 626 CURVE SMOOTH",
"111 626 OFFCURVE",
"63 535 OFFCURVE",
"63 444 CURVE SMOOTH",
"63 330 OFFCURVE",
"153 293 OFFCURVE",
"257 268 CURVE SMOOTH",
"349 246 OFFCURVE",
"381 220 OFFCURVE",
"381 159 CURVE SMOOTH",
"381 133 OFFCURVE",
"377 105 OFFCURVE",
"369 84 CURVE",
"339 77 OFFCURVE",
"304 73 OFFCURVE",
"261 73 CURVE SMOOTH",
"195 73 OFFCURVE",
"137 85 OFFCURVE",
"79 115 CURVE",
"50 41 LINE",
"113 7 OFFCURVE",
"181 -8 OFFCURVE",
"253 -8 CURVE SMOOTH"
);
},
{
closed = 1;
nodes = (
"299 691 OFFCURVE",
"321 712 OFFCURVE",
"321 747 CURVE SMOOTH",
"321 784 OFFCURVE",
"299 805 OFFCURVE",
"261 805 CURVE SMOOTH",
"223 805 OFFCURVE",
"201 784 OFFCURVE",
"201 747 CURVE SMOOTH",
"201 712 OFFCURVE",
"223 691 OFFCURVE",
"261 691 CURVE SMOOTH"
);
}
);
width = 518;
}
);
leftKerningGroup = S;
note = Sdotaccent;
rightKerningGroup = S;
unicode = 1E60;
},
{
glyphname = Sdotbelow;
lastChange = "2015-07-19 17:32:59 +0000";
layers = (
{
layerId = "E35F1BB4-987F-4EDF-94B4-0283FA17DEFF";
name = Regular;
paths = (
{
closed = 1;
nodes = (
"417 -8 OFFCURVE",
"466 82 OFFCURVE",
"466 177 CURVE SMOOTH",
"466 279 OFFCURVE",
"403 320 OFFCURVE",
"279 348 CURVE SMOOTH",
"177 371 OFFCURVE",
"148 394 OFFCURVE",
"148 451 CURVE SMOOTH",
"148 518 OFFCURVE",
"177 550 OFFCURVE",
"265 550 CURVE SMOOTH",
"299 550 OFFCURVE",
"326 547 OFFCURVE",
"354 543 CURVE",
"367 458 LINE",
"428 458 LINE",
"437 483 OFFCURVE",
"445 518 OFFCURVE",
"445 548 CURVE SMOOTH",
"445 584 LINE",
"404 608 OFFCURVE",
"359 626 OFFCURVE",
"270 626 CURVE SMOOTH",
"111 626 OFFCURVE",
"63 535 OFFCURVE",
"63 444 CURVE SMOOTH",
"63 330 OFFCURVE",
"153 293 OFFCURVE",
"257 268 CURVE SMOOTH",
"349 246 OFFCURVE",
"381 220 OFFCURVE",
"381 159 CURVE SMOOTH",
"381 133 OFFCURVE",
"377 105 OFFCURVE",
"369 84 CURVE",
"339 77 OFFCURVE",
"304 73 OFFCURVE",
"261 73 CURVE SMOOTH",
"195 73 OFFCURVE",
"137 85 OFFCURVE",
"79 115 CURVE",
"50 41 LINE",
"113 7 OFFCURVE",
"181 -8 OFFCURVE",
"253 -8 CURVE SMOOTH"
);
},
{
closed = 1;
nodes = (
"309 -179 OFFCURVE",
"331 -158 OFFCURVE",
"331 -123 CURVE SMOOTH",
"331 -86 OFFCURVE",
"309 -65 OFFCURVE",
"271 -65 CURVE SMOOTH",
"233 -65 OFFCURVE",
"211 -86 OFFCURVE",
"211 -123 CURVE SMOOTH",
"211 -158 OFFCURVE",
"233 -179 OFFCURVE",
"271 -179 CURVE SMOOTH"
);
}
);
width = 518;
}
);
leftKerningGroup = S;
note = Sdotbelow;
rightKerningGroup = S;
unicode = 1E62;
},
{
glyphname = uni1E9E;
lastChange = "2015-07-19 15:35:21 +0000";
layers = (
{
layerId = "E35F1BB4-987F-4EDF-94B4-0283FA17DEFF";
name = Regular;
paths = (
{
closed = 1;
nodes = (
"486 -10 OFFCURVE",
"555 55 OFFCURVE",
"555 175 CURVE SMOOTH",
"555 274 OFFCURVE",
"484 336 OFFCURVE",
"364 343 CURVE",
"364 350 LINE",
"501 493 LINE",
"501 549 LINE",
"437 594 OFFCURVE",
"364 616 OFFCURVE",
"286 616 CURVE SMOOTH",
"141 616 OFFCURVE",
"75 537 OFFCURVE",
"75 394 CURVE SMOOTH",
"75 0 LINE",
"158 0 LINE",
"158 394 LINE SMOOTH",
"158 500 OFFCURVE",
"195 540 OFFCURVE",
"292 540 CURVE SMOOTH",
"344 540 OFFCURVE",
"370 535 OFFCURVE",
"408 518 CURVE",
"408 507 LINE",
"269 353 LINE",
"269 283 LINE",
"322 283 LINE SMOOTH",
"426 283 OFFCURVE",
"471 250 OFFCURVE",
"471 176 CURVE SMOOTH",
"471 135 OFFCURVE",
"466 106 OFFCURVE",
"456 81 CURVE",
"425 71 OFFCURVE",
"407 66 OFFCURVE",
"352 66 CURVE SMOOTH",
"308 66 OFFCURVE",
"278 70 OFFCURVE",
"222 87 CURVE",
"202 16 LINE",
"258 -4 OFFCURVE",
"296 -10 OFFCURVE",
"345 -10 CURVE SMOOTH"
);
}
);
width = 593;
}
);
note = uni1E9E;
unicode = 1E9E;
},
{
glyphname = uni018F;
lastChange = "2015-07-19 15:35:22 +0000";
layers = (
{
layerId = "E35F1BB4-987F-4EDF-94B4-0283FA17DEFF";
name = Regular;
paths = (
{
closed = 1;
nodes = (
"471 -10 OFFCURVE",
"562 107 OFFCURVE",
"562 314 CURVE SMOOTH",
"562 502 OFFCURVE",
"476 626 OFFCURVE",
"286 626 CURVE SMOOTH",
"175 626 OFFCURVE",
"111 592 OFFCURVE",
"55 557 CURVE",
"88 491 LINE",
"141 526 OFFCURVE",
"182 548 OFFCURVE",
"279 548 CURVE SMOOTH",
"406 548 OFFCURVE",
"476 490 OFFCURVE",
"476 344 CURVE",
"130 349 LINE",
"52 277 LINE",
"51 264 OFFCURVE",
"51 252 OFFCURVE",
"51 239 CURVE SMOOTH",
"51 91 OFFCURVE",
"124 -10 OFFCURVE",
"289 -10 CURVE SMOOTH"
);
},
{
closed = 1;
nodes = (
"185 68 OFFCURVE",
"135 127 OFFCURVE",
"135 213 CURVE SMOOTH",
"135 237 OFFCURVE",
"136 247 OFFCURVE",
"139 268 CURVE",
"477 273 LINE",
"477 140 OFFCURVE",
"420 68 OFFCURVE",
"290 68 CURVE SMOOTH"
);
}
);
width = 627;
}
);
note = uni018F;
unicode = 018F;
},
{
glyphname = T;
lastChange = "2015-07-19 18:08:30 +0000";
layers = (
{
layerId = "E35F1BB4-987F-4EDF-94B4-0283FA17DEFF";
name = Regular;
paths = (
{
closed = 1;
nodes = (
"319 0 LINE",
"319 538 LINE",
"517 538 LINE",
"517 616 LINE",
"36 616 LINE",
"36 538 LINE",
"234 538 LINE",
"234 0 LINE"
);
}
);
width = 553;
}
);
leftKerningGroup = T;
note = T;
rightKerningGroup = T;
unicode = 0054;
},
{
glyphname = Tbar;
lastChange = "2015-07-19 17:33:10 +0000";
layers = (
{
layerId = "E35F1BB4-987F-4EDF-94B4-0283FA17DEFF";
name = Regular;
paths = (
{
closed = 1;
nodes = (
"319 0 LINE",
"319 275 LINE",
"435 275 LINE",
"435 341 LINE",
"319 341 LINE",
"319 538 LINE",
"517 538 LINE",
"517 616 LINE",
"36 616 LINE",
"36 538 LINE",
"234 538 LINE",
"234 341 LINE",
"118 341 LINE",
"118 275 LINE",
"234 275 LINE",
"234 0 LINE"
);
}
);
width = 553;
}
);
leftKerningGroup = T;
note = Tbar;
rightKerningGroup = T;
unicode = 0166;
},
{
glyphname = Tcaron;
lastChange = "2015-07-19 17:33:10 +0000";
layers = (
{
layerId = "E35F1BB4-987F-4EDF-94B4-0283FA17DEFF";
name = Regular;
paths = (
{
closed = 1;
nodes = (
"319 0 LINE",
"319 538 LINE",
"517 538 LINE",
"517 616 LINE",
"36 616 LINE",
"36 538 LINE",
"234 538 LINE",
"234 0 LINE"
);
},
{
closed = 1;
nodes = (
"314 696 LINE",
"413 829 LINE",
"360 840 LINE",
"279 765 LINE",
"274 765 LINE",
"190 840 LINE",
"139 829 LINE",
"239 696 LINE"
);
}
);
width = 553;
}
);
leftKerningGroup = T;
note = Tcaron;
rightKerningGroup = T;
unicode = 0164;
},
{
glyphname = Tcedilla;
lastChange = "2015-07-19 17:33:10 +0000";
layers = (
{
layerId = "E35F1BB4-987F-4EDF-94B4-0283FA17DEFF";
name = Regular;
paths = (
{
closed = 1;
nodes = (
"341 -216 OFFCURVE",
"375 -186 OFFCURVE",
"375 -128 CURVE SMOOTH",
"375 -82 OFFCURVE",
"352 -52 OFFCURVE",
"296 -52 CURVE SMOOTH",
"281 -52 OFFCURVE",
"268 -54 OFFCURVE",
"257 -59 CURVE",
"299 0 LINE",
"319 0 LINE",
"319 538 LINE",
"517 538 LINE",
"517 616 LINE",
"36 616 LINE",
"36 538 LINE",
"234 538 LINE",
"234 0 LINE",
"179 -66 LINE",
"222 -109 LINE",
"232 -104 OFFCURVE",
"247 -101 OFFCURVE",
"262 -101 CURVE SMOOTH",
"289 -101 OFFCURVE",
"307 -109 OFFCURVE",
"307 -131 CURVE SMOOTH",
"307 -142 OFFCURVE",
"306 -148 OFFCURVE",
"303 -157 CURVE",
"288 -160 OFFCURVE",
"274 -161 OFFCURVE",
"256 -161 CURVE SMOOTH",
"238 -161 OFFCURVE",
"209 -157 OFFCURVE",
"191 -150 CURVE",
"174 -199 LINE",
"204 -213 OFFCURVE",
"235 -216 OFFCURVE",
"263 -216 CURVE SMOOTH"
);
}
);
width = 553;
}
);
leftKerningGroup = T;
note = Tcedilla;
rightKerningGroup = T;
unicode = 0162;
},
{
glyphname = Tcommaaccent;
lastChange = "2015-07-19 17:33:10 +0000";
layers = (
{
layerId = "E35F1BB4-987F-4EDF-94B4-0283FA17DEFF";
name = Regular;
paths = (
{
closed = 1;
nodes = (
"319 0 LINE",
"319 538 LINE",
"517 538 LINE",
"517 616 LINE",
"36 616 LINE",
"36 538 LINE",
"234 538 LINE",
"234 0 LINE"
);
},
{
closed = 1;
nodes = (
"314 -224 OFFCURVE",
"333 -178 OFFCURVE",
"333 -137 CURVE SMOOTH",
"333 -89 OFFCURVE",
"313 -65 OFFCURVE",
"267 -65 CURVE SMOOTH",
"251 -65 OFFCURVE",
"233 -68 OFFCURVE",
"217 -74 CURVE",
"217 -130 LINE",
"270 -130 LINE",
"270 -170 OFFCURVE",
"257 -208 OFFCURVE",
"236 -247 CURVE",
"285 -258 LINE"
);
}
);
width = 553;
}
);
leftKerningGroup = T;
note = Tcommaaccent;
rightKerningGroup = T;
},
{
glyphname = Tdotbelow;
lastChange = "2015-07-19 17:33:10 +0000";
layers = (
{
layerId = "E35F1BB4-987F-4EDF-94B4-0283FA17DEFF";
name = Regular;
paths = (
{
closed = 1;
nodes = (
"319 0 LINE",
"319 538 LINE",
"517 538 LINE",
"517 616 LINE",
"36 616 LINE",
"36 538 LINE",
"234 538 LINE",
"234 0 LINE"
);
},
{
closed = 1;
nodes = (
"315 -179 OFFCURVE",
"337 -158 OFFCURVE",
"337 -123 CURVE SMOOTH",
"337 -86 OFFCURVE",
"315 -65 OFFCURVE",
"277 -65 CURVE SMOOTH",
"239 -65 OFFCURVE",
"217 -86 OFFCURVE",
"217 -123 CURVE SMOOTH",
"217 -158 OFFCURVE",
"239 -179 OFFCURVE",
"277 -179 CURVE SMOOTH"
);
}
);
width = 553;
}
);
leftKerningGroup = T;
note = Tdotbelow;
rightKerningGroup = T;
unicode = 1E6C;
},
{
glyphname = Tlinebelow;
lastChange = "2015-07-19 17:33:10 +0000";
layers = (
{
layerId = "E35F1BB4-987F-4EDF-94B4-0283FA17DEFF";
name = Regular;
paths = (
{
closed = 1;
nodes = (
"319 0 LINE",
"319 538 LINE",
"517 538 LINE",
"517 616 LINE",
"36 616 LINE",
"36 538 LINE",
"234 538 LINE",
"234 0 LINE"
);
},
{
closed = 1;
nodes = (
"431 -145 LINE",
"431 -70 LINE",
"121 -70 LINE",
"121 -145 LINE"
);
}
);
width = 553;
}
);
leftKerningGroup = T;
note = Tlinebelow;
rightKerningGroup = T;
unicode = 1E6E;
},
{
glyphname = U;
lastChange = "2015-07-19 15:35:20 +0000";
layers = (
{
layerId = "E35F1BB4-987F-4EDF-94B4-0283FA17DEFF";
name = Regular;
paths = (
{
closed = 1;
nodes = (
"434 -8 OFFCURVE",
"536 24 OFFCURVE",
"536 128 CURVE SMOOTH",
"536 616 LINE",
"451 616 LINE",
"451 92 LINE",
"422 79 OFFCURVE",
"368 70 OFFCURVE",
"302 70 CURVE SMOOTH",
"202 70 OFFCURVE",
"158 96 OFFCURVE",
"158 189 CURVE SMOOTH",
"158 616 LINE",
"73 616 LINE",
"73 174 LINE SMOOTH",
"73 51 OFFCURVE",
"152 -8 OFFCURVE",
"295 -8 CURVE SMOOTH"
);
}
);
width = 609;
}
);
note = U;
unicode = 0055;
},
{
glyphname = Uacute;
lastChange = "2015-07-19 15:35:22 +0000";
layers = (
{
layerId = "E35F1BB4-987F-4EDF-94B4-0283FA17DEFF";
name = Regular;
paths = (
{
closed = 1;
nodes = (
"434 -8 OFFCURVE",
"536 24 OFFCURVE",
"536 128 CURVE SMOOTH",
"536 616 LINE",
"451 616 LINE",
"451 92 LINE",
"422 79 OFFCURVE",
"368 70 OFFCURVE",
"302 70 CURVE SMOOTH",
"202 70 OFFCURVE",
"158 96 OFFCURVE",
"158 189 CURVE SMOOTH",
"158 616 LINE",
"73 616 LINE",
"73 174 LINE SMOOTH",
"73 51 OFFCURVE",
"152 -8 OFFCURVE",
"295 -8 CURVE SMOOTH"
);
},
{
closed = 1;
nodes = (
"435 829 LINE",
"329 840 LINE",
"246 695 LINE",
"310 685 LINE"
);
}
);
width = 609;
}
);
note = Uacute;
unicode = 00DA;
},
{
glyphname = Ubreve;
lastChange = "2015-07-19 15:35:22 +0000";
layers = (
{
layerId = "E35F1BB4-987F-4EDF-94B4-0283FA17DEFF";
name = Regular;
paths = (
{
closed = 1;
nodes = (
"434 -8 OFFCURVE",
"536 24 OFFCURVE",
"536 128 CURVE SMOOTH",
"536 616 LINE",
"451 616 LINE",
"451 92 LINE",
"422 79 OFFCURVE",
"368 70 OFFCURVE",
"302 70 CURVE SMOOTH",
"202 70 OFFCURVE",
"158 96 OFFCURVE",
"158 189 CURVE SMOOTH",
"158 616 LINE",
"73 616 LINE",
"73 174 LINE SMOOTH",
"73 51 OFFCURVE",
"152 -8 OFFCURVE",
"295 -8 CURVE SMOOTH"
);
},
{
closed = 1;
nodes = (
"389 691 OFFCURVE",
"431 735 OFFCURVE",
"439 804 CURVE",
"362 816 LINE",
"359 777 OFFCURVE",
"350 755 OFFCURVE",
"304 755 CURVE SMOOTH",
"258 755 OFFCURVE",
"249 777 OFFCURVE",
"246 816 CURVE",
"169 804 LINE",
"177 735 OFFCURVE",
"219 691 OFFCURVE",
"304 691 CURVE SMOOTH"
);
}
);
width = 609;
}
);
note = Ubreve;
unicode = 016C;
},
{
glyphname = Ucaron;
lastChange = "2015-07-19 15:35:22 +0000";
layers = (
{
layerId = "E35F1BB4-987F-4EDF-94B4-0283FA17DEFF";
name = Regular;
paths = (
{
closed = 1;
nodes = (
"434 -8 OFFCURVE",
"536 24 OFFCURVE",
"536 128 CURVE SMOOTH",
"536 616 LINE",
"451 616 LINE",
"451 92 LINE",
"422 79 OFFCURVE",
"368 70 OFFCURVE",
"302 70 CURVE SMOOTH",
"202 70 OFFCURVE",
"158 96 OFFCURVE",
"158 189 CURVE SMOOTH",
"158 616 LINE",
"73 616 LINE",
"73 174 LINE SMOOTH",
"73 51 OFFCURVE",
"152 -8 OFFCURVE",
"295 -8 CURVE SMOOTH"
);
},
{
closed = 1;
nodes = (
"342 696 LINE",
"441 829 LINE",
"388 840 LINE",
"307 765 LINE",
"302 765 LINE",
"218 840 LINE",
"167 829 LINE",
"267 696 LINE"
);
}
);
width = 609;
}
);
note = Ucaron;
unicode = 01D3;
},
{
glyphname = Ucircumflex;
lastChange = "2015-07-19 15:35:21 +0000";
layers = (
{
layerId = "E35F1BB4-987F-4EDF-94B4-0283FA17DEFF";
name = Regular;
paths = (
{
closed = 1;
nodes = (
"434 -8 OFFCURVE",
"536 24 OFFCURVE",
"536 128 CURVE SMOOTH",
"536 616 LINE",
"451 616 LINE",
"451 92 LINE",
"422 79 OFFCURVE",
"368 70 OFFCURVE",
"302 70 CURVE SMOOTH",
"202 70 OFFCURVE",
"158 96 OFFCURVE",
"158 189 CURVE SMOOTH",
"158 616 LINE",
"73 616 LINE",
"73 174 LINE SMOOTH",
"73 51 OFFCURVE",
"152 -8 OFFCURVE",
"295 -8 CURVE SMOOTH"
);
},
{
closed = 1;
nodes = (
"302 759 LINE",
"307 759 LINE",
"388 684 LINE",
"441 695 LINE",
"342 828 LINE",
"267 828 LINE",
"167 695 LINE",
"218 684 LINE"
);
}
);
width = 609;
}
);
note = Ucircumflex;
unicode = 00DB;
},
{
glyphname = Udieresis;
lastChange = "2015-07-19 15:35:22 +0000";
layers = (
{
layerId = "E35F1BB4-987F-4EDF-94B4-0283FA17DEFF";
name = Regular;
paths = (
{
closed = 1;
nodes = (
"434 -8 OFFCURVE",
"536 24 OFFCURVE",
"536 128 CURVE SMOOTH",
"536 616 LINE",
"451 616 LINE",
"451 92 LINE",
"422 79 OFFCURVE",
"368 70 OFFCURVE",
"302 70 CURVE SMOOTH",
"202 70 OFFCURVE",
"158 96 OFFCURVE",
"158 189 CURVE SMOOTH",
"158 616 LINE",
"73 616 LINE",
"73 174 LINE SMOOTH",
"73 51 OFFCURVE",
"152 -8 OFFCURVE",
"295 -8 CURVE SMOOTH"
);
},
{
closed = 1;
nodes = (
"257 691 OFFCURVE",
"274 707 OFFCURVE",
"274 734 CURVE SMOOTH",
"274 762 OFFCURVE",
"257 778 OFFCURVE",
"228 778 CURVE SMOOTH",
"200 778 OFFCURVE",
"182 762 OFFCURVE",
"182 734 CURVE SMOOTH",
"182 707 OFFCURVE",
"200 691 OFFCURVE",
"228 691 CURVE SMOOTH"
);
},
{
closed = 1;
nodes = (
"415 691 OFFCURVE",
"432 707 OFFCURVE",
"432 734 CURVE SMOOTH",
"432 762 OFFCURVE",
"415 778 OFFCURVE",
"386 778 CURVE SMOOTH",
"357 778 OFFCURVE",
"339 762 OFFCURVE",
"339 734 CURVE SMOOTH",
"339 707 OFFCURVE",
"357 691 OFFCURVE",
"386 691 CURVE SMOOTH"
);
}
);
width = 609;
}
);
note = Udieresis;
unicode = 00DC;
},
{
glyphname = Udieresisacute;
lastChange = "2015-07-19 15:35:22 +0000";
layers = (
{
layerId = "E35F1BB4-987F-4EDF-94B4-0283FA17DEFF";
name = Regular;
paths = (
{
closed = 1;
nodes = (
"434 -8 OFFCURVE",
"536 24 OFFCURVE",
"536 128 CURVE SMOOTH",
"536 616 LINE",
"451 616 LINE",
"451 92 LINE",
"422 79 OFFCURVE",
"368 70 OFFCURVE",
"302 70 CURVE SMOOTH",
"202 70 OFFCURVE",
"158 96 OFFCURVE",
"158 189 CURVE SMOOTH",
"158 616 LINE",
"73 616 LINE",
"73 174 LINE SMOOTH",
"73 51 OFFCURVE",
"152 -8 OFFCURVE",
"295 -8 CURVE SMOOTH"
);
},
{
closed = 1;
nodes = (
"254 691 OFFCURVE",
"271 707 OFFCURVE",
"271 734 CURVE SMOOTH",
"271 762 OFFCURVE",
"254 778 OFFCURVE",
"225 778 CURVE SMOOTH",
"197 778 OFFCURVE",
"179 762 OFFCURVE",
"179 734 CURVE SMOOTH",
"179 707 OFFCURVE",
"197 691 OFFCURVE",
"225 691 CURVE SMOOTH"
);
},
{
closed = 1;
nodes = (
"412 691 OFFCURVE",
"429 707 OFFCURVE",
"429 734 CURVE SMOOTH",
"429 762 OFFCURVE",
"412 778 OFFCURVE",
"383 778 CURVE SMOOTH",
"354 778 OFFCURVE",
"336 762 OFFCURVE",
"336 734 CURVE SMOOTH",
"336 707 OFFCURVE",
"354 691 OFFCURVE",
"383 691 CURVE SMOOTH"
);
},
{
closed = 1;
nodes = (
"451 998 LINE",
"345 1009 LINE",
"262 864 LINE",
"326 854 LINE"
);
}
);
width = 609;
}
);
note = Udieresisacute;
unicode = 01D7;
},
{
glyphname = Udieresiscaron;
lastChange = "2015-07-19 15:35:22 +0000";
layers = (
{
layerId = "E35F1BB4-987F-4EDF-94B4-0283FA17DEFF";
name = Regular;
paths = (
{
closed = 1;
nodes = (
"434 -8 OFFCURVE",
"536 24 OFFCURVE",
"536 128 CURVE SMOOTH",
"536 616 LINE",
"451 616 LINE",
"451 92 LINE",
"422 79 OFFCURVE",
"368 70 OFFCURVE",
"302 70 CURVE SMOOTH",
"202 70 OFFCURVE",
"158 96 OFFCURVE",
"158 189 CURVE SMOOTH",
"158 616 LINE",
"73 616 LINE",
"73 174 LINE SMOOTH",
"73 51 OFFCURVE",
"152 -8 OFFCURVE",
"295 -8 CURVE SMOOTH"
);
},
{
closed = 1;
nodes = (
"254 691 OFFCURVE",
"271 707 OFFCURVE",
"271 734 CURVE SMOOTH",
"271 762 OFFCURVE",
"254 778 OFFCURVE",
"225 778 CURVE SMOOTH",
"197 778 OFFCURVE",
"179 762 OFFCURVE",
"179 734 CURVE SMOOTH",
"179 707 OFFCURVE",
"197 691 OFFCURVE",
"225 691 CURVE SMOOTH"
);
},
{
closed = 1;
nodes = (
"412 691 OFFCURVE",
"429 707 OFFCURVE",
"429 734 CURVE SMOOTH",
"429 762 OFFCURVE",
"412 778 OFFCURVE",
"383 778 CURVE SMOOTH",
"354 778 OFFCURVE",
"336 762 OFFCURVE",
"336 734 CURVE SMOOTH",
"336 707 OFFCURVE",
"354 691 OFFCURVE",
"383 691 CURVE SMOOTH"
);
},
{
closed = 1;
nodes = (
"336 840 LINE",
"435 973 LINE",
"382 984 LINE",
"301 909 LINE",
"296 909 LINE",
"212 984 LINE",
"161 973 LINE",
"261 840 LINE"
);
}
);
width = 609;
}
);
note = Udieresiscaron;
unicode = 01D9;
},
{
glyphname = Udieresisgrave;
lastChange = "2015-07-19 15:35:22 +0000";
layers = (
{
layerId = "E35F1BB4-987F-4EDF-94B4-0283FA17DEFF";
name = Regular;
paths = (
{
closed = 1;
nodes = (
"434 -8 OFFCURVE",
"536 24 OFFCURVE",
"536 128 CURVE SMOOTH",
"536 616 LINE",
"451 616 LINE",
"451 92 LINE",
"422 79 OFFCURVE",
"368 70 OFFCURVE",
"302 70 CURVE SMOOTH",
"202 70 OFFCURVE",
"158 96 OFFCURVE",
"158 189 CURVE SMOOTH",
"158 616 LINE",
"73 616 LINE",
"73 174 LINE SMOOTH",
"73 51 OFFCURVE",
"152 -8 OFFCURVE",
"295 -8 CURVE SMOOTH"
);
},
{
closed = 1;
nodes = (
"254 691 OFFCURVE",
"271 707 OFFCURVE",
"271 734 CURVE SMOOTH",
"271 762 OFFCURVE",
"254 778 OFFCURVE",
"225 778 CURVE SMOOTH",
"197 778 OFFCURVE",
"179 762 OFFCURVE",
"179 734 CURVE SMOOTH",
"179 707 OFFCURVE",
"197 691 OFFCURVE",
"225 691 CURVE SMOOTH"
);
},
{
closed = 1;
nodes = (
"412 691 OFFCURVE",
"429 707 OFFCURVE",
"429 734 CURVE SMOOTH",
"429 762 OFFCURVE",
"412 778 OFFCURVE",
"383 778 CURVE SMOOTH",
"354 778 OFFCURVE",
"336 762 OFFCURVE",
"336 734 CURVE SMOOTH",
"336 707 OFFCURVE",
"354 691 OFFCURVE",
"383 691 CURVE SMOOTH"
);
},
{
closed = 1;
nodes = (
"347 864 LINE",
"264 1009 LINE",
"158 998 LINE",
"283 854 LINE"
);
}
);
width = 609;
}
);
note = Udieresisgrave;
unicode = 01DB;
},
{
glyphname = Udieresismacron;
lastChange = "2015-07-19 15:35:22 +0000";
layers = (
{
layerId = "E35F1BB4-987F-4EDF-94B4-0283FA17DEFF";
name = Regular;
paths = (
{
closed = 1;
nodes = (
"434 -8 OFFCURVE",
"536 24 OFFCURVE",
"536 128 CURVE SMOOTH",
"536 616 LINE",
"451 616 LINE",
"451 92 LINE",
"422 79 OFFCURVE",
"368 70 OFFCURVE",
"302 70 CURVE SMOOTH",
"202 70 OFFCURVE",
"158 96 OFFCURVE",
"158 189 CURVE SMOOTH",
"158 616 LINE",
"73 616 LINE",
"73 174 LINE SMOOTH",
"73 51 OFFCURVE",
"152 -8 OFFCURVE",
"295 -8 CURVE SMOOTH"
);
},
{
closed = 1;
nodes = (
"254 691 OFFCURVE",
"271 707 OFFCURVE",
"271 734 CURVE SMOOTH",
"271 762 OFFCURVE",
"254 778 OFFCURVE",
"225 778 CURVE SMOOTH",
"197 778 OFFCURVE",
"179 762 OFFCURVE",
"179 734 CURVE SMOOTH",
"179 707 OFFCURVE",
"197 691 OFFCURVE",
"225 691 CURVE SMOOTH"
);
},
{
closed = 1;
nodes = (
"412 691 OFFCURVE",
"429 707 OFFCURVE",
"429 734 CURVE SMOOTH",
"429 762 OFFCURVE",
"412 778 OFFCURVE",
"383 778 CURVE SMOOTH",
"354 778 OFFCURVE",
"336 762 OFFCURVE",
"336 734 CURVE SMOOTH",
"336 707 OFFCURVE",
"354 691 OFFCURVE",
"383 691 CURVE SMOOTH"
);
},
{
closed = 1;
nodes = (
"457 839 LINE",
"457 909 LINE",
"151 909 LINE",
"151 839 LINE"
);
}
);
width = 609;
}
);
note = Udieresismacron;
unicode = 01D5;
},
{
glyphname = Udotbelow;
lastChange = "2015-07-19 15:35:22 +0000";
layers = (
{
layerId = "E35F1BB4-987F-4EDF-94B4-0283FA17DEFF";
name = Regular;
paths = (
{
closed = 1;
nodes = (
"434 -8 OFFCURVE",
"536 24 OFFCURVE",
"536 128 CURVE SMOOTH",
"536 616 LINE",
"451 616 LINE",
"451 92 LINE",
"422 79 OFFCURVE",
"368 70 OFFCURVE",
"302 70 CURVE SMOOTH",
"202 70 OFFCURVE",
"158 96 OFFCURVE",
"158 189 CURVE SMOOTH",
"158 616 LINE",
"73 616 LINE",
"73 174 LINE SMOOTH",
"73 51 OFFCURVE",
"152 -8 OFFCURVE",
"295 -8 CURVE SMOOTH"
);
},
{
closed = 1;
nodes = (
"350 -179 OFFCURVE",
"372 -158 OFFCURVE",
"372 -123 CURVE SMOOTH",
"372 -86 OFFCURVE",
"350 -65 OFFCURVE",
"312 -65 CURVE SMOOTH",
"274 -65 OFFCURVE",
"252 -86 OFFCURVE",
"252 -123 CURVE SMOOTH",
"252 -158 OFFCURVE",
"274 -179 OFFCURVE",
"312 -179 CURVE SMOOTH"
);
}
);
width = 609;
}
);
note = Udotbelow;
unicode = 1EE4;
},
{
glyphname = Ugrave;
lastChange = "2015-07-19 15:35:22 +0000";
layers = (
{
layerId = "E35F1BB4-987F-4EDF-94B4-0283FA17DEFF";
name = Regular;
paths = (
{
closed = 1;
nodes = (
"434 -8 OFFCURVE",
"536 24 OFFCURVE",
"536 128 CURVE SMOOTH",
"536 616 LINE",
"451 616 LINE",
"451 92 LINE",
"422 79 OFFCURVE",
"368 70 OFFCURVE",
"302 70 CURVE SMOOTH",
"202 70 OFFCURVE",
"158 96 OFFCURVE",
"158 189 CURVE SMOOTH",
"158 616 LINE",
"73 616 LINE",
"73 174 LINE SMOOTH",
"73 51 OFFCURVE",
"152 -8 OFFCURVE",
"295 -8 CURVE SMOOTH"
);
},
{
closed = 1;
nodes = (
"355 696 LINE",
"272 841 LINE",
"166 830 LINE",
"291 686 LINE"
);
}
);
width = 609;
}
);
note = Ugrave;
unicode = 00D9;
},
{
glyphname = Uhookabove;
lastChange = "2015-07-19 15:35:21 +0000";
layers = (
{
layerId = "E35F1BB4-987F-4EDF-94B4-0283FA17DEFF";
name = Regular;
paths = (
{
closed = 1;
nodes = (
"434 -8 OFFCURVE",
"536 24 OFFCURVE",
"536 128 CURVE SMOOTH",
"536 616 LINE",
"451 616 LINE",
"451 92 LINE",
"422 79 OFFCURVE",
"368 70 OFFCURVE",
"302 70 CURVE SMOOTH",
"202 70 OFFCURVE",
"158 96 OFFCURVE",
"158 189 CURVE SMOOTH",
"158 616 LINE",
"73 616 LINE",
"73 174 LINE SMOOTH",
"73 51 OFFCURVE",
"152 -8 OFFCURVE",
"295 -8 CURVE SMOOTH"
);
},
{
closed = 1;
nodes = (
"330 696 LINE",
"330 737 LINE",
"387 737 OFFCURVE",
"424 758 OFFCURVE",
"424 811 CURVE SMOOTH",
"424 857 OFFCURVE",
"396 890 OFFCURVE",
"330 890 CURVE SMOOTH",
"302 890 OFFCURVE",
"272 885 OFFCURVE",
"244 872 CURVE",
"260 827 LINE",
"278 834 OFFCURVE",
"301 838 OFFCURVE",
"319 838 CURVE SMOOTH",
"349 838 OFFCURVE",
"362 832 OFFCURVE",
"362 809 CURVE SMOOTH",
"362 780 OFFCURVE",
"334 780 OFFCURVE",
"272 780 CURVE",
"272 745 LINE",
"285 696 LINE"
);
}
);
width = 609;
}
);
note = Uhookabove;
unicode = 1EE6;
},
{
glyphname = Uhorn;
lastChange = "2015-07-19 16:45:03 +0000";
layers = (
{
layerId = "E35F1BB4-987F-4EDF-94B4-0283FA17DEFF";
name = Regular;
paths = (
{
closed = 1;
nodes = (
"434 -8 OFFCURVE",
"536 24 OFFCURVE",
"536 128 CURVE SMOOTH",
"536 441 LINE",
"655 470 OFFCURVE",
"737 554 OFFCURVE",
"737 696 CURVE",
"653 696 LINE",
"653 604 OFFCURVE",
"614 547 OFFCURVE",
"542 517 CURVE",
"534 517 LINE",
"534 616 LINE",
"451 616 LINE",
"451 92 LINE",
"422 79 OFFCURVE",
"368 70 OFFCURVE",
"302 70 CURVE SMOOTH",
"202 70 OFFCURVE",
"158 96 OFFCURVE",
"158 189 CURVE SMOOTH",
"158 616 LINE",
"73 616 LINE",
"73 174 LINE SMOOTH",
"73 51 OFFCURVE",
"152 -8 OFFCURVE",
"295 -8 CURVE SMOOTH"
);
}
);
width = 727;
}
);
note = Uhorn;
unicode = 01AF;
},
{
glyphname = Uhornacute;
lastChange = "2015-07-19 16:45:18 +0000";
layers = (
{
layerId = "E35F1BB4-987F-4EDF-94B4-0283FA17DEFF";
name = Regular;
paths = (
{
closed = 1;
nodes = (
"452 829 LINE",
"346 840 LINE",
"263 695 LINE",
"327 685 LINE"
);
},
{
closed = 1;
nodes = (
"434 -8 OFFCURVE",
"536 24 OFFCURVE",
"536 128 CURVE SMOOTH",
"536 441 LINE",
"655 470 OFFCURVE",
"737 554 OFFCURVE",
"737 696 CURVE",
"653 696 LINE",
"653 604 OFFCURVE",
"614 547 OFFCURVE",
"542 517 CURVE",
"534 517 LINE",
"534 616 LINE",
"451 616 LINE",
"451 92 LINE",
"422 79 OFFCURVE",
"368 70 OFFCURVE",
"302 70 CURVE SMOOTH",
"202 70 OFFCURVE",
"158 96 OFFCURVE",
"158 189 CURVE SMOOTH",
"158 616 LINE",
"73 616 LINE",
"73 174 LINE SMOOTH",
"73 51 OFFCURVE",
"152 -8 OFFCURVE",
"295 -8 CURVE SMOOTH"
);
}
);
width = 727;
}
);
note = Uhornacute;
unicode = 1EE8;
},
{
glyphname = Uhorndotbelow;
lastChange = "2015-07-19 16:45:21 +0000";
layers = (
{
layerId = "E35F1BB4-987F-4EDF-94B4-0283FA17DEFF";
name = Regular;
paths = (
{
closed = 1;
nodes = (
"348 -179 OFFCURVE",
"370 -158 OFFCURVE",
"370 -123 CURVE SMOOTH",
"370 -86 OFFCURVE",
"348 -65 OFFCURVE",
"310 -65 CURVE SMOOTH",
"272 -65 OFFCURVE",
"250 -86 OFFCURVE",
"250 -123 CURVE SMOOTH",
"250 -158 OFFCURVE",
"272 -179 OFFCURVE",
"310 -179 CURVE SMOOTH"
);
},
{
closed = 1;
nodes = (
"434 -8 OFFCURVE",
"536 24 OFFCURVE",
"536 128 CURVE SMOOTH",
"536 441 LINE",
"655 470 OFFCURVE",
"737 554 OFFCURVE",
"737 696 CURVE",
"653 696 LINE",
"653 604 OFFCURVE",
"614 547 OFFCURVE",
"542 517 CURVE",
"534 517 LINE",
"534 616 LINE",
"451 616 LINE",
"451 92 LINE",
"422 79 OFFCURVE",
"368 70 OFFCURVE",
"302 70 CURVE SMOOTH",
"202 70 OFFCURVE",
"158 96 OFFCURVE",
"158 189 CURVE SMOOTH",
"158 616 LINE",
"73 616 LINE",
"73 174 LINE SMOOTH",
"73 51 OFFCURVE",
"152 -8 OFFCURVE",
"295 -8 CURVE SMOOTH"
);
}
);
width = 727;
}
);
note = Uhorndotbelow;
unicode = 1EF0;
},
{
glyphname = Uhorngrave;
lastChange = "2015-07-19 16:45:25 +0000";
layers = (
{
layerId = "E35F1BB4-987F-4EDF-94B4-0283FA17DEFF";
name = Regular;
paths = (
{
closed = 1;
nodes = (
"363 696 LINE",
"280 841 LINE",
"174 830 LINE",
"299 686 LINE"
);
},
{
closed = 1;
nodes = (
"434 -8 OFFCURVE",
"536 24 OFFCURVE",
"536 128 CURVE SMOOTH",
"536 441 LINE",
"655 470 OFFCURVE",
"737 554 OFFCURVE",
"737 696 CURVE",
"653 696 LINE",
"653 604 OFFCURVE",
"614 547 OFFCURVE",
"542 517 CURVE",
"534 517 LINE",
"534 616 LINE",
"451 616 LINE",
"451 92 LINE",
"422 79 OFFCURVE",
"368 70 OFFCURVE",
"302 70 CURVE SMOOTH",
"202 70 OFFCURVE",
"158 96 OFFCURVE",
"158 189 CURVE SMOOTH",
"158 616 LINE",
"73 616 LINE",
"73 174 LINE SMOOTH",
"73 51 OFFCURVE",
"152 -8 OFFCURVE",
"295 -8 CURVE SMOOTH"
);
}
);
width = 727;
}
);
note = Uhorngrave;
unicode = 1EEA;
},
{
glyphname = Uhornhookabove;
lastChange = "2015-07-19 16:45:30 +0000";
layers = (
{
layerId = "E35F1BB4-987F-4EDF-94B4-0283FA17DEFF";
name = Regular;
paths = (
{
closed = 1;
nodes = (
"326 696 LINE",
"326 737 LINE",
"383 737 OFFCURVE",
"420 758 OFFCURVE",
"420 811 CURVE SMOOTH",
"420 857 OFFCURVE",
"392 890 OFFCURVE",
"326 890 CURVE SMOOTH",
"298 890 OFFCURVE",
"268 885 OFFCURVE",
"240 872 CURVE",
"256 827 LINE",
"274 834 OFFCURVE",
"297 838 OFFCURVE",
"315 838 CURVE SMOOTH",
"345 838 OFFCURVE",
"358 832 OFFCURVE",
"358 809 CURVE SMOOTH",
"358 780 OFFCURVE",
"330 780 OFFCURVE",
"268 780 CURVE",
"268 745 LINE",
"281 696 LINE"
);
},
{
closed = 1;
nodes = (
"434 -8 OFFCURVE",
"536 24 OFFCURVE",
"536 128 CURVE SMOOTH",
"536 441 LINE",
"655 470 OFFCURVE",
"737 554 OFFCURVE",
"737 696 CURVE",
"653 696 LINE",
"653 604 OFFCURVE",
"614 547 OFFCURVE",
"542 517 CURVE",
"534 517 LINE",
"534 616 LINE",
"451 616 LINE",
"451 92 LINE",
"422 79 OFFCURVE",
"368 70 OFFCURVE",
"302 70 CURVE SMOOTH",
"202 70 OFFCURVE",
"158 96 OFFCURVE",
"158 189 CURVE SMOOTH",
"158 616 LINE",
"73 616 LINE",
"73 174 LINE SMOOTH",
"73 51 OFFCURVE",
"152 -8 OFFCURVE",
"295 -8 CURVE SMOOTH"
);
}
);
width = 727;
}
);
note = Uhornhookabove;
unicode = 1EEC;
},
{
glyphname = Uhorntilde;
lastChange = "2015-07-19 16:45:33 +0000";
layers = (
{
layerId = "E35F1BB4-987F-4EDF-94B4-0283FA17DEFF";
name = Regular;
paths = (
{
closed = 1;
nodes = (
"226 708 OFFCURVE",
"236 727 OFFCURVE",
"263 727 CURVE SMOOTH",
"298 727 OFFCURVE",
"325 686 OFFCURVE",
"372 686 CURVE SMOOTH",
"427 686 OFFCURVE",
"452 717 OFFCURVE",
"456 782 CURVE",
"401 800 LINE",
"398 774 OFFCURVE",
"388 755 OFFCURVE",
"361 755 CURVE SMOOTH",
"332 755 OFFCURVE",
"294 796 OFFCURVE",
"252 796 CURVE SMOOTH",
"197 796 OFFCURVE",
"172 765 OFFCURVE",
"168 700 CURVE",
"223 682 LINE"
);
},
{
closed = 1;
nodes = (
"434 -8 OFFCURVE",
"536 24 OFFCURVE",
"536 128 CURVE SMOOTH",
"536 441 LINE",
"655 470 OFFCURVE",
"737 554 OFFCURVE",
"737 696 CURVE",
"653 696 LINE",
"653 604 OFFCURVE",
"614 547 OFFCURVE",
"542 517 CURVE",
"534 517 LINE",
"534 616 LINE",
"451 616 LINE",
"451 92 LINE",
"422 79 OFFCURVE",
"368 70 OFFCURVE",
"302 70 CURVE SMOOTH",
"202 70 OFFCURVE",
"158 96 OFFCURVE",
"158 189 CURVE SMOOTH",
"158 616 LINE",
"73 616 LINE",
"73 174 LINE SMOOTH",
"73 51 OFFCURVE",
"152 -8 OFFCURVE",
"295 -8 CURVE SMOOTH"
);
}
);
width = 727;
}
);
note = Uhorntilde;
unicode = 1EEE;
},
{
glyphname = Uhungarumlaut;
lastChange = "2015-07-19 15:35:22 +0000";
layers = (
{
layerId = "E35F1BB4-987F-4EDF-94B4-0283FA17DEFF";
name = Regular;
paths = (
{
closed = 1;
nodes = (
"434 -8 OFFCURVE",
"536 24 OFFCURVE",
"536 128 CURVE SMOOTH",
"536 616 LINE",
"451 616 LINE",
"451 92 LINE",
"422 79 OFFCURVE",
"368 70 OFFCURVE",
"302 70 CURVE SMOOTH",
"202 70 OFFCURVE",
"158 96 OFFCURVE",
"158 189 CURVE SMOOTH",
"158 616 LINE",
"73 616 LINE",
"73 174 LINE SMOOTH",
"73 51 OFFCURVE",
"152 -8 OFFCURVE",
"295 -8 CURVE SMOOTH"
);
},
{
closed = 1;
nodes = (
"260 719 OFFCURVE",
"279 765 OFFCURVE",
"279 806 CURVE SMOOTH",
"279 854 OFFCURVE",
"259 878 OFFCURVE",
"213 878 CURVE SMOOTH",
"197 878 OFFCURVE",
"181 875 OFFCURVE",
"165 869 CURVE",
"165 813 LINE",
"218 813 LINE",
"218 773 OFFCURVE",
"205 735 OFFCURVE",
"184 696 CURVE",
"231 685 LINE"
);
},
{
closed = 1;
nodes = (
"425 719 OFFCURVE",
"444 765 OFFCURVE",
"444 806 CURVE SMOOTH",
"444 854 OFFCURVE",
"426 878 OFFCURVE",
"380 878 CURVE SMOOTH",
"364 878 OFFCURVE",
"346 875 OFFCURVE",
"330 869 CURVE",
"330 813 LINE",
"383 813 LINE",
"383 773 OFFCURVE",
"370 735 OFFCURVE",
"349 696 CURVE",
"396 685 LINE"
);
}
);
width = 609;
}
);
note = Uhungarumlaut;
unicode = 0170;
},
{
glyphname = Umacron;
lastChange = "2015-07-19 15:35:22 +0000";
layers = (
{
layerId = "E35F1BB4-987F-4EDF-94B4-0283FA17DEFF";
name = Regular;
paths = (
{
closed = 1;
nodes = (
"434 -8 OFFCURVE",
"536 24 OFFCURVE",
"536 128 CURVE SMOOTH",
"536 616 LINE",
"451 616 LINE",
"451 92 LINE",
"422 79 OFFCURVE",
"368 70 OFFCURVE",
"302 70 CURVE SMOOTH",
"202 70 OFFCURVE",
"158 96 OFFCURVE",
"158 189 CURVE SMOOTH",
"158 616 LINE",
"73 616 LINE",
"73 174 LINE SMOOTH",
"73 51 OFFCURVE",
"152 -8 OFFCURVE",
"295 -8 CURVE SMOOTH"
);
},
{
closed = 1;
nodes = (
"457 696 LINE",
"457 766 LINE",
"151 766 LINE",
"151 696 LINE"
);
}
);
width = 609;
}
);
note = Umacron;
unicode = 016A;
},
{
glyphname = Uogonek;
lastChange = "2015-07-19 15:35:21 +0000";
layers = (
{
layerId = "E35F1BB4-987F-4EDF-94B4-0283FA17DEFF";
name = Regular;
paths = (
{
closed = 1;
nodes = (
"363 -167 OFFCURVE",
"383 -163 OFFCURVE",
"400 -156 CURVE",
"386 -102 LINE",
"372 -106 OFFCURVE",
"359 -107 OFFCURVE",
"345 -107 CURVE SMOOTH",
"331 -107 OFFCURVE",
"317 -106 OFFCURVE",
"307 -103 CURVE",
"305 -97 OFFCURVE",
"304 -89 OFFCURVE",
"304 -81 CURVE SMOOTH",
"304 -51 OFFCURVE",
"317 -31 OFFCURVE",
"358 -5 CURVE",
"464 4 OFFCURVE",
"536 40 OFFCURVE",
"536 128 CURVE SMOOTH",
"536 616 LINE",
"451 616 LINE",
"451 92 LINE",
"422 79 OFFCURVE",
"368 70 OFFCURVE",
"302 70 CURVE SMOOTH",
"202 70 OFFCURVE",
"158 96 OFFCURVE",
"158 189 CURVE SMOOTH",
"158 616 LINE",
"73 616 LINE",
"73 174 LINE SMOOTH",
"73 55 OFFCURVE",
"146 -4 OFFCURVE",
"280 -8 CURVE",
"251 -26 OFFCURVE",
"231 -49 OFFCURVE",
"231 -87 CURVE SMOOTH",
"231 -140 OFFCURVE",
"273 -167 OFFCURVE",
"335 -167 CURVE SMOOTH"
);
}
);
width = 609;
}
);
note = Uogonek;
unicode = 0172;
},
{
glyphname = Uring;
lastChange = "2015-07-19 15:35:22 +0000";
layers = (
{
layerId = "E35F1BB4-987F-4EDF-94B4-0283FA17DEFF";
name = Regular;
paths = (
{
closed = 1;
nodes = (
"434 -8 OFFCURVE",
"536 24 OFFCURVE",
"536 128 CURVE SMOOTH",
"536 616 LINE",
"451 616 LINE",
"451 92 LINE",
"422 79 OFFCURVE",
"368 70 OFFCURVE",
"302 70 CURVE SMOOTH",
"202 70 OFFCURVE",
"158 96 OFFCURVE",
"158 189 CURVE SMOOTH",
"158 616 LINE",
"73 616 LINE",
"73 174 LINE SMOOTH",
"73 51 OFFCURVE",
"152 -8 OFFCURVE",
"295 -8 CURVE SMOOTH"
);
},
{
closed = 1;
nodes = (
"373 686 OFFCURVE",
"419 726 OFFCURVE",
"419 777 CURVE SMOOTH",
"419 837 OFFCURVE",
"377 874 OFFCURVE",
"310 874 CURVE SMOOTH",
"230 874 OFFCURVE",
"189 829 OFFCURVE",
"189 778 CURVE SMOOTH",
"189 718 OFFCURVE",
"231 686 OFFCURVE",
"298 686 CURVE SMOOTH"
);
},
{
closed = 1;
nodes = (
"266 735 OFFCURVE",
"246 753 OFFCURVE",
"246 779 CURVE SMOOTH",
"246 792 OFFCURVE",
"247 806 OFFCURVE",
"251 820 CURVE",
"266 824 OFFCURVE",
"285 825 OFFCURVE",
"309 825 CURVE SMOOTH",
"342 825 OFFCURVE",
"362 802 OFFCURVE",
"362 776 CURVE SMOOTH",
"362 763 OFFCURVE",
"360 751 OFFCURVE",
"357 740 CURVE",
"344 736 OFFCURVE",
"322 735 OFFCURVE",
"299 735 CURVE SMOOTH"
);
}
);
width = 609;
}
);
note = Uring;
unicode = 016E;
},
{
glyphname = Utilde;
lastChange = "2015-07-19 15:35:21 +0000";
layers = (
{
layerId = "E35F1BB4-987F-4EDF-94B4-0283FA17DEFF";
name = Regular;
paths = (
{
closed = 1;
nodes = (
"434 -8 OFFCURVE",
"536 24 OFFCURVE",
"536 128 CURVE SMOOTH",
"536 616 LINE",
"451 616 LINE",
"451 92 LINE",
"422 79 OFFCURVE",
"368 70 OFFCURVE",
"302 70 CURVE SMOOTH",
"202 70 OFFCURVE",
"158 96 OFFCURVE",
"158 189 CURVE SMOOTH",
"158 616 LINE",
"73 616 LINE",
"73 174 LINE SMOOTH",
"73 51 OFFCURVE",
"152 -8 OFFCURVE",
"295 -8 CURVE SMOOTH"
);
},
{
closed = 1;
nodes = (
"224 713 OFFCURVE",
"234 732 OFFCURVE",
"261 732 CURVE SMOOTH",
"296 732 OFFCURVE",
"323 691 OFFCURVE",
"370 691 CURVE SMOOTH",
"425 691 OFFCURVE",
"450 722 OFFCURVE",
"454 787 CURVE",
"399 805 LINE",
"396 779 OFFCURVE",
"386 760 OFFCURVE",
"359 760 CURVE SMOOTH",
"330 760 OFFCURVE",
"292 801 OFFCURVE",
"250 801 CURVE SMOOTH",
"195 801 OFFCURVE",
"170 770 OFFCURVE",
"166 705 CURVE",
"221 687 LINE"
);
}
);
width = 609;
}
);
note = Utilde;
unicode = 0168;
},
{
glyphname = V;
lastChange = "2015-07-19 17:47:17 +0000";
layers = (
{
layerId = "E35F1BB4-987F-4EDF-94B4-0283FA17DEFF";
name = Regular;
paths = (
{
closed = 1;
nodes = (
"354 0 LINE",
"431 172 OFFCURVE",
"508 418 OFFCURVE",
"557 617 CURVE",
"466 624 LINE",
"422 434 OFFCURVE",
"351 201 OFFCURVE",
"301 81 CURVE",
"290 81 LINE",
"240 201 OFFCURVE",
"169 434 OFFCURVE",
"125 624 CURVE",
"34 617 LINE",
"83 418 OFFCURVE",
"160 172 OFFCURVE",
"237 0 CURVE"
);
}
);
width = 591;
}
);
note = V;
unicode = 0056;
},
{
glyphname = W;
lastChange = "2015-07-19 18:10:06 +0000";
layers = (
{
layerId = "E35F1BB4-987F-4EDF-94B4-0283FA17DEFF";
name = Regular;
paths = (
{
closed = 1;
nodes = (
"286 0 LINE",
"330 120 OFFCURVE",
"365 232 OFFCURVE",
"407 358 CURVE",
"421 358 LINE",
"457 231 OFFCURVE",
"499 109 OFFCURVE",
"535 0 CURVE",
"639 0 LINE",
"694 191 OFFCURVE",
"748 386 OFFCURVE",
"797 609 CURVE",
"705 618 LINE",
"667 405 OFFCURVE",
"628 246 OFFCURVE",
"593 106 CURVE",
"582 106 LINE",
"537 257 OFFCURVE",
"490 400 OFFCURVE",
"445 611 CURVE",
"360 602 LINE",
"366 571 OFFCURVE",
"373 539 OFFCURVE",
"381 508 CURVE",
"328 349 OFFCURVE",
"280 199 OFFCURVE",
"248 106 CURVE",
"240 106 LINE",
"205 246 OFFCURVE",
"166 405 OFFCURVE",
"128 618 CURVE",
"36 609 LINE",
"85 386 OFFCURVE",
"138 191 OFFCURVE",
"193 0 CURVE"
);
}
);
width = 833;
}
);
note = W;
unicode = 0057;
},
{
glyphname = Wacute;
lastChange = "2015-07-19 15:35:22 +0000";
layers = (
{
layerId = "E35F1BB4-987F-4EDF-94B4-0283FA17DEFF";
name = Regular;
paths = (
{
closed = 1;
nodes = (
"286 0 LINE",
"330 120 OFFCURVE",
"365 232 OFFCURVE",
"407 358 CURVE",
"421 358 LINE",
"457 231 OFFCURVE",
"499 109 OFFCURVE",
"535 0 CURVE",
"639 0 LINE",
"694 191 OFFCURVE",
"748 386 OFFCURVE",
"797 609 CURVE",
"705 618 LINE",
"667 405 OFFCURVE",
"628 246 OFFCURVE",
"593 106 CURVE",
"582 106 LINE",
"537 257 OFFCURVE",
"490 400 OFFCURVE",
"445 611 CURVE",
"360 602 LINE",
"366 571 OFFCURVE",
"373 539 OFFCURVE",
"381 508 CURVE",
"328 349 OFFCURVE",
"280 199 OFFCURVE",
"248 106 CURVE",
"240 106 LINE",
"205 246 OFFCURVE",
"166 405 OFFCURVE",
"128 618 CURVE",
"36 609 LINE",
"85 386 OFFCURVE",
"138 191 OFFCURVE",
"193 0 CURVE"
);
},
{
closed = 1;
nodes = (
"551 830 LINE",
"445 841 LINE",
"362 696 LINE",
"426 686 LINE"
);
}
);
width = 833;
}
);
note = Wacute;
unicode = 1E82;
},
{
glyphname = Wcircumflex;
lastChange = "2015-07-19 15:35:22 +0000";
layers = (
{
layerId = "E35F1BB4-987F-4EDF-94B4-0283FA17DEFF";
name = Regular;
paths = (
{
closed = 1;
nodes = (
"286 0 LINE",
"330 120 OFFCURVE",
"365 232 OFFCURVE",
"407 358 CURVE",
"421 358 LINE",
"457 231 OFFCURVE",
"499 109 OFFCURVE",
"535 0 CURVE",
"639 0 LINE",
"694 191 OFFCURVE",
"748 386 OFFCURVE",
"797 609 CURVE",
"705 618 LINE",
"667 405 OFFCURVE",
"628 246 OFFCURVE",
"593 106 CURVE",
"582 106 LINE",
"537 257 OFFCURVE",
"490 400 OFFCURVE",
"445 611 CURVE",
"360 602 LINE",
"366 571 OFFCURVE",
"373 539 OFFCURVE",
"381 508 CURVE",
"328 349 OFFCURVE",
"280 199 OFFCURVE",
"248 106 CURVE",
"240 106 LINE",
"205 246 OFFCURVE",
"166 405 OFFCURVE",
"128 618 CURVE",
"36 609 LINE",
"85 386 OFFCURVE",
"138 191 OFFCURVE",
"193 0 CURVE"
);
},
{
closed = 1;
nodes = (
"414 759 LINE",
"419 759 LINE",
"500 684 LINE",
"553 695 LINE",
"454 828 LINE",
"379 828 LINE",
"279 695 LINE",
"330 684 LINE"
);
}
);
width = 833;
}
);
note = Wcircumflex;
unicode = 0174;
},
{
glyphname = Wdieresis;
lastChange = "2015-07-19 15:35:22 +0000";
layers = (
{
layerId = "E35F1BB4-987F-4EDF-94B4-0283FA17DEFF";
name = Regular;
paths = (
{
closed = 1;
nodes = (
"286 0 LINE",
"330 120 OFFCURVE",
"365 232 OFFCURVE",
"407 358 CURVE",
"421 358 LINE",
"457 231 OFFCURVE",
"499 109 OFFCURVE",
"535 0 CURVE",
"639 0 LINE",
"694 191 OFFCURVE",
"748 386 OFFCURVE",
"797 609 CURVE",
"705 618 LINE",
"667 405 OFFCURVE",
"628 246 OFFCURVE",
"593 106 CURVE",
"582 106 LINE",
"537 257 OFFCURVE",
"490 400 OFFCURVE",
"445 611 CURVE",
"360 602 LINE",
"366 571 OFFCURVE",
"373 539 OFFCURVE",
"381 508 CURVE",
"328 349 OFFCURVE",
"280 199 OFFCURVE",
"248 106 CURVE",
"240 106 LINE",
"205 246 OFFCURVE",
"166 405 OFFCURVE",
"128 618 CURVE",
"36 609 LINE",
"85 386 OFFCURVE",
"138 191 OFFCURVE",
"193 0 CURVE"
);
},
{
closed = 1;
nodes = (
"366 691 OFFCURVE",
"383 707 OFFCURVE",
"383 734 CURVE SMOOTH",
"383 762 OFFCURVE",
"366 778 OFFCURVE",
"337 778 CURVE SMOOTH",
"309 778 OFFCURVE",
"291 762 OFFCURVE",
"291 734 CURVE SMOOTH",
"291 707 OFFCURVE",
"309 691 OFFCURVE",
"337 691 CURVE SMOOTH"
);
},
{
closed = 1;
nodes = (
"524 691 OFFCURVE",
"541 707 OFFCURVE",
"541 734 CURVE SMOOTH",
"541 762 OFFCURVE",
"524 778 OFFCURVE",
"495 778 CURVE SMOOTH",
"466 778 OFFCURVE",
"448 762 OFFCURVE",
"448 734 CURVE SMOOTH",
"448 707 OFFCURVE",
"466 691 OFFCURVE",
"495 691 CURVE SMOOTH"
);
}
);
width = 833;
}
);
note = Wdieresis;
unicode = 1E84;
},
{
glyphname = Wgrave;
lastChange = "2015-07-19 15:35:22 +0000";
layers = (
{
layerId = "E35F1BB4-987F-4EDF-94B4-0283FA17DEFF";
name = Regular;
paths = (
{
closed = 1;
nodes = (
"286 0 LINE",
"330 120 OFFCURVE",
"365 232 OFFCURVE",
"407 358 CURVE",
"421 358 LINE",
"457 231 OFFCURVE",
"499 109 OFFCURVE",
"535 0 CURVE",
"639 0 LINE",
"694 191 OFFCURVE",
"748 386 OFFCURVE",
"797 609 CURVE",
"705 618 LINE",
"667 405 OFFCURVE",
"628 246 OFFCURVE",
"593 106 CURVE",
"582 106 LINE",
"537 257 OFFCURVE",
"490 400 OFFCURVE",
"445 611 CURVE",
"360 602 LINE",
"366 571 OFFCURVE",
"373 539 OFFCURVE",
"381 508 CURVE",
"328 349 OFFCURVE",
"280 199 OFFCURVE",
"248 106 CURVE",
"240 106 LINE",
"205 246 OFFCURVE",
"166 405 OFFCURVE",
"128 618 CURVE",
"36 609 LINE",
"85 386 OFFCURVE",
"138 191 OFFCURVE",
"193 0 CURVE"
);
},
{
closed = 1;
nodes = (
"469 696 LINE",
"386 841 LINE",
"280 830 LINE",
"405 686 LINE"
);
}
);
width = 833;
}
);
note = Wgrave;
unicode = 1E80;
},
{
glyphname = X;
lastChange = "2015-07-19 18:10:58 +0000";
layers = (
{
layerId = "E35F1BB4-987F-4EDF-94B4-0283FA17DEFF";
name = Regular;
paths = (
{
closed = 1;
nodes = (
"180 96 OFFCURVE",
"237 178 OFFCURVE",
"299 270 CURVE",
"316 270 LINE",
"368 186 OFFCURVE",
"425 94 OFFCURVE",
"474 -8 CURVE",
"564 12 LINE",
"516 107 OFFCURVE",
"441 228 OFFCURVE",
"386 312 CURVE",
"451 402 OFFCURVE",
"523 505 OFFCURVE",
"576 604 CURVE",
"490 621 LINE",
"436 517 OFFCURVE",
"381 436 OFFCURVE",
"316 345 CURVE",
"299 345 LINE",
"245 430 OFFCURVE",
"191 519 OFFCURVE",
"139 621 CURVE",
"46 603 LINE",
"97 508 OFFCURVE",
"175 385 OFFCURVE",
"230 303 CURVE",
"167 215 OFFCURVE",
"95 109 OFFCURVE",
"42 12 CURVE",
"128 -8 LINE"
);
}
);
width = 618;
}
);
note = X;
unicode = 0058;
},
{
glyphname = Y;
lastChange = "2015-07-19 18:11:48 +0000";
layers = (
{
layerId = "E35F1BB4-987F-4EDF-94B4-0283FA17DEFF";
name = Regular;
paths = (
{
closed = 1;
nodes = (
"350 0 LINE",
"350 211 LINE",
"371 211 LINE",
"465 338 OFFCURVE",
"523 447 OFFCURVE",
"587 600 CURVE",
"502 621 LINE",
"448 488 OFFCURVE",
"382 365 OFFCURVE",
"323 278 CURVE",
"292 278 LINE",
"233 365 OFFCURVE",
"167 488 OFFCURVE",
"113 621 CURVE",
"28 600 LINE",
"92 447 OFFCURVE",
"150 338 OFFCURVE",
"244 211 CURVE",
"265 211 LINE",
"265 0 LINE"
);
}
);
width = 615;
}
);
leftKerningGroup = Y;
note = Y;
rightKerningGroup = Y;
unicode = 0059;
},
{
glyphname = Yacute;
lastChange = "2015-07-19 17:33:20 +0000";
layers = (
{
layerId = "E35F1BB4-987F-4EDF-94B4-0283FA17DEFF";
name = Regular;
paths = (
{
closed = 1;
nodes = (
"350 0 LINE",
"350 211 LINE",
"371 211 LINE",
"465 338 OFFCURVE",
"523 447 OFFCURVE",
"587 600 CURVE",
"502 621 LINE",
"448 488 OFFCURVE",
"382 365 OFFCURVE",
"323 278 CURVE",
"292 278 LINE",
"233 365 OFFCURVE",
"167 488 OFFCURVE",
"113 621 CURVE",
"28 600 LINE",
"92 447 OFFCURVE",
"150 338 OFFCURVE",
"244 211 CURVE",
"265 211 LINE",
"265 0 LINE"
);
},
{
closed = 1;
nodes = (
"450 829 LINE",
"344 840 LINE",
"261 695 LINE",
"325 685 LINE"
);
}
);
width = 615;
}
);
leftKerningGroup = Y;
note = Yacute;
rightKerningGroup = Y;
unicode = 00DD;
},
{
glyphname = Ycircumflex;
lastChange = "2015-07-19 17:33:20 +0000";
layers = (
{
layerId = "E35F1BB4-987F-4EDF-94B4-0283FA17DEFF";
name = Regular;
paths = (
{
closed = 1;
nodes = (
"350 0 LINE",
"350 211 LINE",
"371 211 LINE",
"465 338 OFFCURVE",
"523 447 OFFCURVE",
"587 600 CURVE",
"502 621 LINE",
"448 488 OFFCURVE",
"382 365 OFFCURVE",
"323 278 CURVE",
"292 278 LINE",
"233 365 OFFCURVE",
"167 488 OFFCURVE",
"113 621 CURVE",
"28 600 LINE",
"92 447 OFFCURVE",
"150 338 OFFCURVE",
"244 211 CURVE",
"265 211 LINE",
"265 0 LINE"
);
},
{
closed = 1;
nodes = (
"305 759 LINE",
"310 759 LINE",
"391 684 LINE",
"444 695 LINE",
"345 828 LINE",
"270 828 LINE",
"170 695 LINE",
"221 684 LINE"
);
}
);
width = 615;
}
);
leftKerningGroup = Y;
note = Ycircumflex;
rightKerningGroup = Y;
unicode = 0176;
},
{
glyphname = Ydieresis;
lastChange = "2015-07-19 17:33:20 +0000";
layers = (
{
layerId = "E35F1BB4-987F-4EDF-94B4-0283FA17DEFF";
name = Regular;
paths = (
{
closed = 1;
nodes = (
"350 0 LINE",
"350 211 LINE",
"371 211 LINE",
"465 338 OFFCURVE",
"523 447 OFFCURVE",
"587 600 CURVE",
"502 621 LINE",
"448 488 OFFCURVE",
"382 365 OFFCURVE",
"323 278 CURVE",
"292 278 LINE",
"233 365 OFFCURVE",
"167 488 OFFCURVE",
"113 621 CURVE",
"28 600 LINE",
"92 447 OFFCURVE",
"150 338 OFFCURVE",
"244 211 CURVE",
"265 211 LINE",
"265 0 LINE"
);
},
{
closed = 1;
nodes = (
"257 691 OFFCURVE",
"274 707 OFFCURVE",
"274 734 CURVE SMOOTH",
"274 762 OFFCURVE",
"257 778 OFFCURVE",
"228 778 CURVE SMOOTH",
"200 778 OFFCURVE",
"182 762 OFFCURVE",
"182 734 CURVE SMOOTH",
"182 707 OFFCURVE",
"200 691 OFFCURVE",
"228 691 CURVE SMOOTH"
);
},
{
closed = 1;
nodes = (
"415 691 OFFCURVE",
"432 707 OFFCURVE",
"432 734 CURVE SMOOTH",
"432 762 OFFCURVE",
"415 778 OFFCURVE",
"386 778 CURVE SMOOTH",
"357 778 OFFCURVE",
"339 762 OFFCURVE",
"339 734 CURVE SMOOTH",
"339 707 OFFCURVE",
"357 691 OFFCURVE",
"386 691 CURVE SMOOTH"
);
}
);
width = 615;
}
);
leftKerningGroup = Y;
note = Ydieresis;
rightKerningGroup = Y;
unicode = 0178;
},
{
glyphname = Ydotaccent;
lastChange = "2015-07-19 17:33:20 +0000";
layers = (
{
layerId = "E35F1BB4-987F-4EDF-94B4-0283FA17DEFF";
name = Regular;
paths = (
{
closed = 1;
nodes = (
"350 0 LINE",
"350 211 LINE",
"371 211 LINE",
"465 338 OFFCURVE",
"523 447 OFFCURVE",
"587 600 CURVE",
"502 621 LINE",
"448 488 OFFCURVE",
"382 365 OFFCURVE",
"323 278 CURVE",
"292 278 LINE",
"233 365 OFFCURVE",
"167 488 OFFCURVE",
"113 621 CURVE",
"28 600 LINE",
"92 447 OFFCURVE",
"150 338 OFFCURVE",
"244 211 CURVE",
"265 211 LINE",
"265 0 LINE"
);
},
{
closed = 1;
nodes = (
"347 691 OFFCURVE",
"369 712 OFFCURVE",
"369 747 CURVE SMOOTH",
"369 784 OFFCURVE",
"347 805 OFFCURVE",
"309 805 CURVE SMOOTH",
"271 805 OFFCURVE",
"249 784 OFFCURVE",
"249 747 CURVE SMOOTH",
"249 712 OFFCURVE",
"271 691 OFFCURVE",
"309 691 CURVE SMOOTH"
);
}
);
width = 615;
}
);
leftKerningGroup = Y;
note = Ydotaccent;
rightKerningGroup = Y;
unicode = 1E8E;
},
{
glyphname = Ydotbelow;
lastChange = "2015-07-19 17:33:20 +0000";
layers = (
{
layerId = "E35F1BB4-987F-4EDF-94B4-0283FA17DEFF";
name = Regular;
paths = (
{
closed = 1;
nodes = (
"350 0 LINE",
"350 211 LINE",
"371 211 LINE",
"465 338 OFFCURVE",
"523 447 OFFCURVE",
"587 600 CURVE",
"502 621 LINE",
"448 488 OFFCURVE",
"382 365 OFFCURVE",
"323 278 CURVE",
"292 278 LINE",
"233 365 OFFCURVE",
"167 488 OFFCURVE",
"113 621 CURVE",
"28 600 LINE",
"92 447 OFFCURVE",
"150 338 OFFCURVE",
"244 211 CURVE",
"265 211 LINE",
"265 0 LINE"
);
},
{
closed = 1;
nodes = (
"345 -179 OFFCURVE",
"367 -158 OFFCURVE",
"367 -123 CURVE SMOOTH",
"367 -86 OFFCURVE",
"345 -65 OFFCURVE",
"307 -65 CURVE SMOOTH",
"269 -65 OFFCURVE",
"247 -86 OFFCURVE",
"247 -123 CURVE SMOOTH",
"247 -158 OFFCURVE",
"269 -179 OFFCURVE",
"307 -179 CURVE SMOOTH"
);
}
);
width = 615;
}
);
leftKerningGroup = Y;
note = Ydotbelow;
rightKerningGroup = Y;
unicode = 1EF4;
},
{
glyphname = Ygrave;
lastChange = "2015-07-19 17:33:20 +0000";
layers = (
{
layerId = "E35F1BB4-987F-4EDF-94B4-0283FA17DEFF";
name = Regular;
paths = (
{
closed = 1;
nodes = (
"350 0 LINE",
"350 211 LINE",
"371 211 LINE",
"465 338 OFFCURVE",
"523 447 OFFCURVE",
"587 600 CURVE",
"502 621 LINE",
"448 488 OFFCURVE",
"382 365 OFFCURVE",
"323 278 CURVE",
"292 278 LINE",
"233 365 OFFCURVE",
"167 488 OFFCURVE",
"113 621 CURVE",
"28 600 LINE",
"92 447 OFFCURVE",
"150 338 OFFCURVE",
"244 211 CURVE",
"265 211 LINE",
"265 0 LINE"
);
},
{
closed = 1;
nodes = (
"361 696 LINE",
"278 841 LINE",
"172 830 LINE",
"297 686 LINE"
);
}
);
width = 615;
}
);
leftKerningGroup = Y;
note = Ygrave;
rightKerningGroup = Y;
unicode = 1EF2;
},
{
glyphname = Yhookabove;
lastChange = "2015-07-19 17:33:20 +0000";
layers = (
{
layerId = "E35F1BB4-987F-4EDF-94B4-0283FA17DEFF";
name = Regular;
paths = (
{
closed = 1;
nodes = (
"350 0 LINE",
"350 211 LINE",
"371 211 LINE",
"465 338 OFFCURVE",
"523 447 OFFCURVE",
"587 600 CURVE",
"502 621 LINE",
"448 488 OFFCURVE",
"382 365 OFFCURVE",
"323 278 CURVE",
"292 278 LINE",
"233 365 OFFCURVE",
"167 488 OFFCURVE",
"113 621 CURVE",
"28 600 LINE",
"92 447 OFFCURVE",
"150 338 OFFCURVE",
"244 211 CURVE",
"265 211 LINE",
"265 0 LINE"
);
},
{
closed = 1;
nodes = (
"328 696 LINE",
"328 737 LINE",
"385 737 OFFCURVE",
"422 758 OFFCURVE",
"422 811 CURVE SMOOTH",
"422 857 OFFCURVE",
"394 890 OFFCURVE",
"328 890 CURVE SMOOTH",
"300 890 OFFCURVE",
"270 885 OFFCURVE",
"242 872 CURVE",
"258 827 LINE",
"276 834 OFFCURVE",
"299 838 OFFCURVE",
"317 838 CURVE SMOOTH",
"347 838 OFFCURVE",
"360 832 OFFCURVE",
"360 809 CURVE SMOOTH",
"360 780 OFFCURVE",
"332 780 OFFCURVE",
"270 780 CURVE",
"270 745 LINE",
"283 696 LINE"
);
}
);
width = 615;
}
);
leftKerningGroup = Y;
note = Yhookabove;
rightKerningGroup = Y;
unicode = 1EF6;
},
{
glyphname = Ytilde;
lastChange = "2015-07-19 17:33:20 +0000";
layers = (
{
layerId = "E35F1BB4-987F-4EDF-94B4-0283FA17DEFF";
name = Regular;
paths = (
{
closed = 1;
nodes = (
"350 0 LINE",
"350 211 LINE",
"371 211 LINE",
"465 338 OFFCURVE",
"523 447 OFFCURVE",
"587 600 CURVE",
"502 621 LINE",
"448 488 OFFCURVE",
"382 365 OFFCURVE",
"323 278 CURVE",
"292 278 LINE",
"233 365 OFFCURVE",
"167 488 OFFCURVE",
"113 621 CURVE",
"28 600 LINE",
"92 447 OFFCURVE",
"150 338 OFFCURVE",
"244 211 CURVE",
"265 211 LINE",
"265 0 LINE"
);
},
{
closed = 1;
nodes = (
"221 708 OFFCURVE",
"231 727 OFFCURVE",
"258 727 CURVE SMOOTH",
"293 727 OFFCURVE",
"320 686 OFFCURVE",
"367 686 CURVE SMOOTH",
"422 686 OFFCURVE",
"447 717 OFFCURVE",
"451 782 CURVE",
"396 800 LINE",
"393 774 OFFCURVE",
"383 755 OFFCURVE",
"356 755 CURVE SMOOTH",
"327 755 OFFCURVE",
"289 796 OFFCURVE",
"247 796 CURVE SMOOTH",
"192 796 OFFCURVE",
"167 765 OFFCURVE",
"163 700 CURVE",
"218 682 LINE"
);
}
);
width = 615;
}
);
leftKerningGroup = Y;
note = Ytilde;
rightKerningGroup = Y;
unicode = 1EF8;
},
{
glyphname = Z;
lastChange = "2015-07-19 15:35:20 +0000";
layers = (
{
layerId = "E35F1BB4-987F-4EDF-94B4-0283FA17DEFF";
name = Regular;
paths = (
{
closed = 1;
nodes = (
"515 0 LINE",
"515 49 LINE SMOOTH",
"515 79 OFFCURVE",
"507 115 OFFCURVE",
"498 140 CURVE",
"424 140 LINE",
"424 75 LINE",
"154 75 LINE",
"154 91 LINE",
"501 534 LINE",
"501 616 LINE",
"60 616 LINE",
"60 567 LINE SMOOTH",
"60 536 OFFCURVE",
"68 501 OFFCURVE",
"77 476 CURVE",
"151 476 LINE",
"151 540 LINE",
"396 540 LINE",
"396 527 LINE",
"50 82 LINE",
"50 0 LINE"
);
}
);
width = 563;
}
);
note = Z;
unicode = 005A;
},
{
glyphname = Zacute;
lastChange = "2015-07-19 15:35:22 +0000";
layers = (
{
layerId = "E35F1BB4-987F-4EDF-94B4-0283FA17DEFF";
name = Regular;
paths = (
{
closed = 1;
nodes = (
"513 0 LINE",
"513 49 LINE SMOOTH",
"513 79 OFFCURVE",
"505 115 OFFCURVE",
"496 140 CURVE",
"422 140 LINE",
"422 75 LINE",
"152 75 LINE",
"152 91 LINE",
"499 534 LINE",
"499 616 LINE",
"58 616 LINE",
"58 567 LINE SMOOTH",
"58 536 OFFCURVE",
"66 501 OFFCURVE",
"75 476 CURVE",
"149 476 LINE",
"149 540 LINE",
"394 540 LINE",
"394 527 LINE",
"48 82 LINE",
"48 0 LINE"
);
},
{
closed = 1;
nodes = (
"414 829 LINE",
"308 840 LINE",
"225 695 LINE",
"289 685 LINE"
);
}
);
width = 561;
}
);
note = Zacute;
unicode = 0179;
},
{
glyphname = Zcaron;
lastChange = "2015-07-19 15:35:22 +0000";
layers = (
{
layerId = "E35F1BB4-987F-4EDF-94B4-0283FA17DEFF";
name = Regular;
paths = (
{
closed = 1;
nodes = (
"513 0 LINE",
"513 49 LINE SMOOTH",
"513 79 OFFCURVE",
"505 115 OFFCURVE",
"496 140 CURVE",
"422 140 LINE",
"422 75 LINE",
"152 75 LINE",
"152 91 LINE",
"499 534 LINE",
"499 616 LINE",
"58 616 LINE",
"58 567 LINE SMOOTH",
"58 536 OFFCURVE",
"66 501 OFFCURVE",
"75 476 CURVE",
"149 476 LINE",
"149 540 LINE",
"394 540 LINE",
"394 527 LINE",
"48 82 LINE",
"48 0 LINE"
);
},
{
closed = 1;
nodes = (
"318 696 LINE",
"417 829 LINE",
"364 840 LINE",
"283 765 LINE",
"278 765 LINE",
"194 840 LINE",
"143 829 LINE",
"243 696 LINE"
);
}
);
width = 561;
}
);
note = Zcaron;
unicode = 017D;
},
{
glyphname = Zdotaccent;
lastChange = "2015-07-19 15:35:21 +0000";
layers = (
{
layerId = "E35F1BB4-987F-4EDF-94B4-0283FA17DEFF";
name = Regular;
paths = (
{
closed = 1;
nodes = (
"513 0 LINE",
"513 49 LINE SMOOTH",
"513 79 OFFCURVE",
"505 115 OFFCURVE",
"496 140 CURVE",
"422 140 LINE",
"422 75 LINE",
"152 75 LINE",
"152 91 LINE",
"499 534 LINE",
"499 616 LINE",
"58 616 LINE",
"58 567 LINE SMOOTH",
"58 536 OFFCURVE",
"66 501 OFFCURVE",
"75 476 CURVE",
"149 476 LINE",
"149 540 LINE",
"394 540 LINE",
"394 527 LINE",
"48 82 LINE",
"48 0 LINE"
);
},
{
closed = 1;
nodes = (
"324 691 OFFCURVE",
"346 712 OFFCURVE",
"346 747 CURVE SMOOTH",
"346 784 OFFCURVE",
"324 805 OFFCURVE",
"286 805 CURVE SMOOTH",
"248 805 OFFCURVE",
"226 784 OFFCURVE",
"226 747 CURVE SMOOTH",
"226 712 OFFCURVE",
"248 691 OFFCURVE",
"286 691 CURVE SMOOTH"
);
}
);
width = 561;
}
);
note = Zdotaccent;
unicode = 017B;
},
{
glyphname = Zdotbelow;
lastChange = "2015-07-19 15:35:22 +0000";
layers = (
{
layerId = "E35F1BB4-987F-4EDF-94B4-0283FA17DEFF";
name = Regular;
paths = (
{
closed = 1;
nodes = (
"513 0 LINE",
"513 49 LINE SMOOTH",
"513 79 OFFCURVE",
"505 115 OFFCURVE",
"496 140 CURVE",
"422 140 LINE",
"422 75 LINE",
"152 75 LINE",
"152 91 LINE",
"499 534 LINE",
"499 616 LINE",
"58 616 LINE",
"58 567 LINE SMOOTH",
"58 536 OFFCURVE",
"66 501 OFFCURVE",
"75 476 CURVE",
"149 476 LINE",
"149 540 LINE",
"394 540 LINE",
"394 527 LINE",
"48 82 LINE",
"48 0 LINE"
);
},
{
closed = 1;
nodes = (
"326 -179 OFFCURVE",
"348 -158 OFFCURVE",
"348 -123 CURVE SMOOTH",
"348 -86 OFFCURVE",
"326 -65 OFFCURVE",
"288 -65 CURVE SMOOTH",
"250 -65 OFFCURVE",
"228 -86 OFFCURVE",
"228 -123 CURVE SMOOTH",
"228 -158 OFFCURVE",
"250 -179 OFFCURVE",
"288 -179 CURVE SMOOTH"
);
}
);
width = 561;
}
);
note = Zdotbelow;
unicode = 1E92;
},
{
glyphname = a;
lastChange = "2015-07-19 18:11:26 +0000";
layers = (
{
layerId = "E35F1BB4-987F-4EDF-94B4-0283FA17DEFF";
name = Regular;
paths = (
{
closed = 1;
nodes = (
"235 -8 OFFCURVE",
"288 20 OFFCURVE",
"321 66 CURVE",
"329 66 LINE",
"333 0 LINE",
"406 0 LINE",
"406 331 LINE SMOOTH",
"406 424 OFFCURVE",
"350 478 OFFCURVE",
"250 478 CURVE SMOOTH",
"188 478 OFFCURVE",
"110 450 OFFCURVE",
"74 428 CURVE",
"74 403 LINE SMOOTH",
"74 380 OFFCURVE",
"80 355 OFFCURVE",
"87 336 CURVE",
"148 336 LINE",
"158 411 LINE",
"174 413 OFFCURVE",
"199 415 OFFCURVE",
"224 415 CURVE SMOOTH",
"296 415 OFFCURVE",
"324 396 OFFCURVE",
"324 322 CURVE SMOOTH",
"324 260 LINE",
"302 262 OFFCURVE",
"279 263 OFFCURVE",
"258 263 CURVE SMOOTH",
"129 263 OFFCURVE",
"40 219 OFFCURVE",
"40 113 CURVE SMOOTH",
"40 40 OFFCURVE",
"87 -8 OFFCURVE",
"179 -8 CURVE SMOOTH"
);
},
{
closed = 1;
nodes = (
"151 56 OFFCURVE",
"126 71 OFFCURVE",
"126 122 CURVE SMOOTH",
"126 152 OFFCURVE",
"129 172 OFFCURVE",
"142 203 CURVE",
"164 209 OFFCURVE",
"199 211 OFFCURVE",
"234 211 CURVE SMOOTH",
"269 211 OFFCURVE",
"304 208 OFFCURVE",
"326 203 CURVE",
"326 129 LINE",
"295 82 OFFCURVE",
"244 56 OFFCURVE",
"190 56 CURVE SMOOTH"
);
}
);
width = 474;
}
);
leftKerningGroup = a;
note = a;
rightKerningGroup = a;
unicode = 0061;
},
